# This file uses centimeters as units for non-parametric coordinates.

mtllib DoorBase.mtl
g default
v -84.360893 4.681103 31.719778
v 84.360901 4.681103 31.719778
v -84.360893 4.681103 -19.013742
v 84.360901 4.681103 -19.013742
v -84.360893 4.681103 30.326529
v -84.360893 6.918274 29.335928
v 84.360901 6.918274 29.335928
v 84.360901 4.681103 30.326529
v -84.360893 6.918274 -16.629892
v -84.360893 4.681103 -17.620462
v 84.360901 4.681103 -17.620462
v 84.360901 6.918274 -16.629892
v -84.360893 5.826957 -12.479318
v -84.360893 7.031660 -13.188272
v 84.360901 7.031660 -13.188272
v 84.360901 5.826957 -12.479318
v -84.360893 7.031660 25.894339
v -84.360893 5.826957 25.185385
v 84.360901 5.826957 25.185385
v 84.360901 7.031660 25.894339
v -84.360893 1.357166 -10.126779
v 84.360901 1.357166 -10.126779
v 84.360901 1.357166 22.832846
v -84.360893 1.357166 22.832846
v 84.360901 5.826957 -11.081583
v 84.360901 3.702889 -10.217996
v -84.360893 3.702889 -10.217996
v -84.360893 5.826957 -11.081583
v -84.360893 5.826957 23.787649
v -84.360893 3.702889 22.924032
v 84.360901 3.702889 22.924032
v 84.360901 5.826957 23.787649
v -84.360893 0.000000 31.719778
v 84.360901 0.000000 31.719778
v -84.360893 0.000000 -19.013742
v 84.360901 0.000000 -19.013742
vt 0.832725 0.394515
vt 0.833990 0.007466
vt 0.837186 0.007476
vt 0.835921 0.394526
vt 0.967059 0.394954
vt 0.959159 0.394928
vt 0.960424 0.007879
vt 0.968323 0.007905
vt 0.972672 0.394972
vt 0.973936 0.007923
vt 0.977132 0.007933
vt 0.975868 0.394983
vt 0.841534 0.394544
vt 0.842798 0.007495
vt 0.850698 0.007520
vt 0.849433 0.394570
vt 0.948751 0.007841
vt 0.947486 0.394890
vt 0.942101 0.394873
vt 0.943366 0.007823
vt 0.861106 0.394608
vt 0.862371 0.007558
vt 0.867756 0.007576
vt 0.866491 0.394626
vt 0.955953 0.394918
vt 0.957217 0.007868
vt 0.852640 0.394580
vt 0.853905 0.007531
vt 0.952746 0.394907
vt 0.954011 0.007858
vt 0.857111 0.007541
vt 0.855846 0.394591
vt 0.821987 0.394480
vt 0.823251 0.007431
vt 0.987871 0.007969
vt 0.986606 0.395018
vn 0.000000 1.000000 0.000000
vn 0.000000 1.000000 0.000000
vn 0.000000 1.000000 0.000000
vn 0.000000 1.000000 0.000000
vn 0.000000 0.883449 -0.468527
vn 0.000000 0.967128 0.254289
vn 0.000000 0.967128 0.254289
vn 0.000000 0.883449 -0.468527
vn 0.000000 1.000000 0.000000
vn 0.000000 1.000000 0.000000
vn 0.000000 1.000000 0.000000
vn 0.000000 1.000000 0.000000
vn 0.000000 0.883449 0.468527
vn 0.000000 0.404876 0.914372
vn 0.000000 0.404876 0.914372
vn 0.000000 0.883449 0.468527
vn 0.000000 0.404866 -0.914376
vn 0.000000 0.404866 -0.914376
vn 0.000000 0.967128 -0.254290
vn 0.000000 0.967128 -0.254290
vn 0.000000 0.038857 0.999245
vn 0.000000 0.038857 0.999245
vn 0.000000 0.038857 0.999245
vn 0.000000 0.038857 0.999245
vn 0.000000 0.038844 -0.999245
vn 0.000000 0.038844 -0.999245
vn 0.000000 0.038844 -0.999245
vn 0.000000 0.038844 -0.999245
vn 0.000000 0.507182 0.861839
vn 0.000000 0.507182 0.861839
vn 0.000000 0.507182 -0.861839
vn 0.000000 0.507182 -0.861839
vn 0.000000 1.000000 0.000000
vn 0.000000 1.000000 0.000000
vn 0.000000 1.000000 0.000000
vn 0.000000 1.000000 0.000000
vn 0.000000 1.000000 0.000000
vn 0.000000 1.000000 0.000000
vn 0.000000 1.000000 0.000000
vn 0.000000 1.000000 0.000000
vn 0.000000 0.376633 0.926363
vn 0.000000 0.376633 0.926363
vn 0.000000 0.376633 0.926363
vn 0.000000 0.376633 0.926363
vn 0.000000 0.376644 -0.926358
vn 0.000000 0.376644 -0.926358
vn 0.000000 0.376644 -0.926358
vn 0.000000 0.376644 -0.926358
vn 0.000000 1.000000 0.000000
vn 0.000000 1.000000 0.000000
vn 0.000000 1.000000 0.000000
vn 0.000000 1.000000 0.000000
vn 0.000000 0.000000 1.000000
vn 0.000000 0.000000 1.000000
vn 0.000000 0.000000 1.000000
vn 0.000000 0.000000 1.000000
vn 0.000000 0.000000 -1.000000
vn 0.000000 0.000000 -1.000000
vn 0.000000 0.000000 -1.000000
vn 0.000000 0.000000 -1.000000
s off
g DoorBase
usemtl blinn6SG
f 1/1/1 2/2/2 8/3/3 5/4/4
s 1
f 9/5/5 14/6/6 15/7/7 12/8/8
s off
f 10/9/9 11/10/10 4/11/11 3/12/12
s 2
f 6/13/13 5/4/14 8/3/15 7/14/16
s 1
f 10/9/17 9/5/5 12/8/8 11/10/18
s 2
f 7/14/16 20/15/19 17/16/20 6/13/13
s off
f 26/17/21 27/18/22 21/19/23 22/20/24
f 30/21/25 31/22/26 23/23/27 24/24/28
s 1
f 14/6/6 13/25/29 16/26/30 15/7/7
s 2
f 18/27/31 17/16/20 20/15/19 19/28/32
s off
f 16/26/33 13/25/34 28/29/35 25/30/36
f 18/27/37 19/28/38 32/31/39 29/32/40
f 26/17/41 25/30/42 28/29/43 27/18/44
f 30/21/45 29/32/46 32/31/47 31/22/48
f 22/20/49 21/19/50 24/24/51 23/23/52
f 2/2/53 1/1/54 33/33/55 34/34/56
f 3/12/57 4/11/58 36/35/59 35/36/60
