# Blender 4.0.2
# www.blender.org
mtllib Grate02.mtl
o Grate02
v 0.018840 -0.312414 0.305182
v 0.063044 -0.032339 0.339293
v 0.063044 -0.032339 -0.339293
v 0.018840 -0.312414 -0.305182
v 0.063044 0.204375 0.193921
v 0.063044 0.204375 -0.193922
v -0.082984 -0.312414 -0.034354
v -0.092305 -0.312414 -0.043676
v 0.000914 -0.312414 -0.043676
v -0.008407 -0.312414 -0.034354
v -0.083120 -0.270073 -0.051024
v -0.075636 -0.270073 -0.043539
v -0.075636 -0.262589 -0.051024
v -0.015755 -0.262589 -0.051024
v -0.015755 -0.270073 -0.043539
v -0.008271 -0.270073 -0.051024
v -0.083120 -0.270073 -0.110905
v -0.075636 -0.262589 -0.110905
v -0.075636 -0.270073 -0.118389
v -0.015755 -0.270073 -0.118389
v -0.015755 -0.262589 -0.110905
v -0.008271 -0.270073 -0.110905
v -0.092305 -0.312414 -0.118253
v -0.082984 -0.312414 -0.127574
v -0.008407 -0.312414 -0.127574
v 0.000914 -0.312414 -0.118253
v -0.068515 -0.273342 -0.071038
v -0.035458 -0.273342 -0.064436
v -0.006863 0.236641 -0.071038
v 0.026194 0.236641 -0.064436
v -0.006863 0.236641 -0.090891
v 0.026194 0.236641 -0.097493
v -0.068515 -0.273342 -0.090891
v -0.035458 -0.273342 -0.097493
v 0.074891 0.288958 -0.129600
v 0.092305 0.296648 -0.157264
v 0.092305 0.043175 -0.408687
v 0.071878 0.018640 -0.395634
v 0.092305 0.003292 -0.421118
v 0.092305 -0.002836 0.422087
v 0.077606 0.020580 0.401791
v 0.092305 0.053012 0.403674
v 0.092305 0.297795 0.155011
v 0.073798 0.287786 0.129219
v 0.069129 -0.312414 -0.412566
v 0.071475 -0.312414 0.415245
v 0.074891 0.196408 -0.099529
v 0.092305 0.170140 -0.108328
v 0.092305 -0.004460 -0.281516
v 0.071878 -0.009330 -0.309551
v 0.092305 -0.033725 -0.289937
v 0.092305 -0.038435 0.290566
v 0.077606 -0.011328 0.303402
v 0.092305 0.002316 0.278063
v 0.092305 0.170930 0.106776
v 0.073798 0.197580 0.099909
v -0.011341 0.196408 -0.099529
v -0.028756 0.170140 -0.108328
v -0.028756 -0.004460 -0.281516
v -0.008329 -0.009330 -0.309551
v -0.028756 -0.033725 -0.289937
v -0.028756 -0.038435 0.290566
v -0.014057 -0.011328 0.303402
v -0.028756 0.002316 0.278063
v -0.028756 0.170930 0.106776
v -0.010249 0.197580 0.099909
v 0.069129 -0.312414 -0.327206
v -0.005580 -0.312414 -0.327206
v 0.071475 -0.312414 0.324525
v -0.007925 -0.312414 0.324525
v -0.028756 -0.296072 -0.301151
v 0.092305 -0.296072 -0.301151
v 0.092305 -0.295032 -0.439047
v -0.028756 -0.296071 0.301151
v 0.092305 -0.295032 0.439046
v 0.092305 -0.296071 0.301151
v -0.028756 0.180144 0.078130
v 0.092305 0.180144 0.078130
v 0.092305 0.311173 0.113424
v -0.028756 0.181000 -0.072731
v 0.092305 0.181000 -0.072731
v 0.092305 0.312414 -0.105585
v 0.028019 0.288958 -0.129600
v -0.011341 0.252811 -0.117855
v 0.008978 0.296648 -0.157264
v -0.028756 0.258099 -0.142352
v 0.008980 0.043175 -0.408687
v -0.028756 0.028659 -0.369934
v 0.030699 0.018640 -0.395634
v -0.008329 0.006826 -0.359275
v 0.009644 0.003292 -0.421118
v -0.028756 -0.007382 -0.383290
v -0.011651 -0.002836 0.422087
v -0.028756 -0.016769 0.370610
v 0.025321 0.020580 0.401791
v -0.014057 0.008853 0.365627
v 0.009101 0.053012 0.403674
v -0.028756 0.037629 0.365560
v 0.009010 0.297795 0.155011
v -0.028756 0.259234 0.140350
v 0.028878 0.287786 0.129219
v -0.010249 0.251498 0.117428
v -0.028756 0.272930 0.103123
v 0.009545 0.311173 0.113424
v 0.009894 -0.295032 -0.439047
v -0.028756 -0.295324 -0.400345
v -0.028756 -0.295324 0.400349
v 0.009893 -0.295032 0.439046
v 0.031771 -0.312414 -0.412566
v -0.005580 -0.312414 -0.372388
v -0.007925 -0.312414 0.375218
v 0.029550 -0.312414 0.415245
v -0.028756 0.274043 -0.095992
v 0.009560 0.312414 -0.105585
v -0.082984 -0.312414 0.282824
v -0.092305 -0.312414 0.273503
v 0.000914 -0.312414 0.273503
v -0.008407 -0.312414 0.282824
v -0.083120 -0.270073 0.266155
v -0.075636 -0.270073 0.273639
v -0.075636 -0.262589 0.266155
v -0.015755 -0.262589 0.266155
v -0.015755 -0.270073 0.273639
v -0.008271 -0.270073 0.266155
v -0.083120 -0.270073 0.206274
v -0.075636 -0.262589 0.206274
v -0.075636 -0.270073 0.198790
v -0.015755 -0.270073 0.198790
v -0.015755 -0.262589 0.206274
v -0.008271 -0.270073 0.206274
v -0.092305 -0.312414 0.198926
v -0.082984 -0.312414 0.189605
v -0.008407 -0.312414 0.189605
v 0.000914 -0.312414 0.198926
v -0.068515 -0.273342 0.246141
v -0.035458 -0.273342 0.252743
v -0.006863 0.115849 0.246141
v 0.026194 0.115849 0.252743
v -0.006863 0.115849 0.226288
v 0.026194 0.115849 0.219686
v -0.068515 -0.273342 0.226288
v -0.035458 -0.273342 0.219686
v -0.082984 -0.312414 -0.034354
v -0.092305 -0.312414 -0.043676
v 0.000914 -0.312414 -0.043676
v -0.008407 -0.312414 -0.034354
v -0.083120 -0.270073 -0.051024
v -0.075636 -0.270073 -0.043539
v -0.075636 -0.262589 -0.051024
v -0.015755 -0.262589 -0.051024
v -0.015755 -0.270073 -0.043539
v -0.008271 -0.270073 -0.051024
v -0.083120 -0.270073 -0.110905
v -0.075636 -0.262589 -0.110905
v -0.075636 -0.270073 -0.118389
v -0.015755 -0.270073 -0.118389
v -0.015755 -0.262589 -0.110905
v -0.008271 -0.270073 -0.110905
v -0.092305 -0.312414 -0.118253
v -0.082984 -0.312414 -0.127574
v -0.008407 -0.312414 -0.127574
v 0.000914 -0.312414 -0.118253
v -0.068515 -0.273342 -0.071038
v -0.035458 -0.273342 -0.064436
v -0.006863 0.236641 -0.071038
v 0.026194 0.236641 -0.064436
v -0.006863 0.236641 -0.090891
v 0.026194 0.236641 -0.097493
v -0.068515 -0.273342 -0.090891
v -0.035458 -0.273342 -0.097493
v -0.082984 -0.312414 0.147212
v -0.092305 -0.312414 0.137891
v 0.000914 -0.312414 0.137891
v -0.008407 -0.312414 0.147212
v -0.083120 -0.270073 0.130543
v -0.075636 -0.270073 0.138027
v -0.075636 -0.262589 0.130543
v -0.015755 -0.262589 0.130543
v -0.015755 -0.270073 0.138027
v -0.008271 -0.270073 0.130543
v -0.083120 -0.270073 0.070663
v -0.075636 -0.262589 0.070663
v -0.075636 -0.270073 0.063178
v -0.015755 -0.270073 0.063178
v -0.015755 -0.262589 0.070663
v -0.008271 -0.270073 0.070663
v -0.092305 -0.312414 0.063314
v -0.082984 -0.312414 0.053993
v -0.008407 -0.312414 0.053993
v 0.000914 -0.312414 0.063314
v -0.068515 -0.273342 0.110529
v -0.035458 -0.273342 0.117131
v -0.006863 0.236641 0.110529
v 0.026194 0.236641 0.117131
v -0.006863 0.236641 0.090676
v 0.026194 0.236641 0.084073
v -0.068515 -0.273342 0.090676
v -0.035458 -0.273342 0.084074
v -0.082984 -0.312414 -0.181992
v -0.092305 -0.312414 -0.191313
v 0.000914 -0.312414 -0.191313
v -0.008407 -0.312414 -0.181992
v -0.083120 -0.270073 -0.198661
v -0.075636 -0.270073 -0.191177
v -0.075636 -0.262589 -0.198661
v -0.015755 -0.262589 -0.198661
v -0.015755 -0.270073 -0.191177
v -0.008271 -0.270073 -0.198661
v -0.083120 -0.270073 -0.258542
v -0.075636 -0.262589 -0.258542
v -0.075636 -0.270073 -0.266027
v -0.015755 -0.270073 -0.266027
v -0.015755 -0.262589 -0.258542
v -0.008271 -0.270073 -0.258542
v -0.092305 -0.312414 -0.265890
v -0.082984 -0.312414 -0.275212
v -0.008407 -0.312414 -0.275212
v 0.000914 -0.312414 -0.265890
v -0.068515 -0.273342 -0.218676
v -0.035458 -0.273342 -0.212074
v -0.006863 0.095109 -0.218676
v 0.026194 0.095109 -0.212074
v -0.006863 0.095109 -0.238528
v 0.026194 0.095109 -0.245131
v -0.068515 -0.273342 -0.238528
v -0.035458 -0.273342 -0.245131
vn -0.9878 0.1559 -0.0000
vn -0.9944 0.1052 -0.0000
vn -1.0000 -0.0000 -0.0000
vn -0.6816 0.2661 0.6816
vn 0.6816 0.2661 0.6816
vn -0.7071 0.7071 -0.0000
vn -0.0000 0.7071 0.7071
vn 0.7071 0.7071 -0.0000
vn -0.6815 0.2662 -0.6817
vn -0.0000 0.7071 -0.7071
vn 0.6816 0.2662 -0.6816
vn -0.0000 0.2120 0.9773
vn -0.0000 1.0000 -0.0000
vn -0.0000 0.2120 -0.9773
vn 0.9773 0.2120 -0.0000
vn -0.9773 0.2120 -0.0000
vn -0.5773 0.5774 0.5774
vn 0.5773 0.5774 0.5774
vn -0.5773 0.5774 -0.5774
vn 0.5773 0.5774 -0.5774
vn -0.1958 0.0237 0.9804
vn -0.1958 0.0237 -0.9804
vn -0.9928 0.1200 -0.0000
vn -0.0000 -0.0427 0.9991
vn -0.0000 0.6266 0.7793
vn -0.0000 -0.9852 0.1711
vn -0.0000 -0.7042 0.7100
vn -0.0000 -0.3176 0.9482
vn -0.0000 -1.0000 -0.0057
vn -0.0000 -0.7806 0.6250
vn -0.0000 -0.2495 -0.9684
vn -0.0000 -0.7126 -0.7015
vn -0.0000 -0.8805 -0.4741
vn -0.0000 0.4280 -0.9038
vn -0.0000 -0.0410 -0.9992
vn -0.0000 -0.8471 0.5314
vn -0.0000 -0.8196 -0.5730
vn -0.0000 -0.8669 -0.4985
vn -0.5436 0.3479 -0.7639
vn -0.4952 0.6964 0.5194
vn -0.7071 0.4980 -0.5020
vn -0.4823 -0.7196 -0.4996
vn -0.2570 -0.6196 -0.7417
vn -0.1684 -0.5738 -0.8015
vn -0.5216 -0.7339 -0.4351
vn -0.5946 0.8024 0.0511
vn -0.4250 0.8883 -0.1743
vn -0.5459 0.8376 -0.0207
vn -0.7071 0.0418 -0.7059
vn -0.8513 0.0108 0.5246
vn -0.7772 0.6292 -0.0020
vn -0.6280 0.7563 0.1833
vn -0.7482 0.6622 0.0403
vn -0.5949 -0.3224 0.7363
vn -0.7064 0.5044 0.4966
vn -0.5620 0.5062 -0.6542
vn -0.4461 0.6686 -0.5950
vn -0.5979 0.4421 -0.6686
vn -0.6110 -0.0311 0.7910
vn -0.4473 0.2067 0.8702
vn -0.5679 0.0396 0.8221
vn -0.7071 0.7071 0.0040
vn -0.4084 -0.8870 -0.2155
vn -0.2039 -0.8920 -0.4033
vn -0.1504 -0.8828 -0.4451
vn -0.4894 -0.8629 -0.1256
vn -0.2170 -0.8705 0.4418
vn -0.4472 -0.8645 0.2295
vn -0.5302 -0.8373 0.1335
vn -0.1600 -0.8598 0.4850
vn -0.0000 0.9635 0.2678
vn -0.0000 0.7042 -0.7100
vn -0.0000 -0.4697 -0.8828
vn -0.0000 0.8566 -0.5159
vn -0.0000 0.6550 0.7557
vn -0.0000 -0.0580 0.9983
vn -0.0000 0.7126 0.7015
vn -0.0000 0.9323 -0.3618
vn -0.0000 0.5597 0.8287
vn -0.0000 0.0600 -0.9982
vn -0.0000 0.0579 0.9983
vn -0.7412 0.2289 0.6311
vn -0.6043 -0.7504 -0.2677
vn -0.6835 0.6997 0.2078
vn -0.8546 0.4983 -0.1466
vn -0.8557 -0.4853 0.1799
vn -0.6811 0.2475 -0.6891
vn -0.6949 -0.2001 0.6907
vn -0.0000 -0.8360 -0.5488
vn -0.5849 -0.8111 -0.0042
vn -0.6258 -0.7800 0.0039
vn -0.0000 -0.8076 0.5898
vn -0.0000 1.0000 0.0057
vn -0.8119 -0.1565 -0.5624
vn -0.0000 0.7154 -0.6987
vn -0.6816 0.2662 0.6816
vn 0.6816 0.2662 0.6816
vn -0.6816 0.2662 -0.6816
vn -0.1958 0.0310 0.9802
vn -0.1958 0.0310 -0.9802
vn -0.9877 0.1565 -0.0000
vn -0.6816 0.2661 -0.6816
vn 0.6816 0.2661 -0.6816
vn -0.5774 0.5774 -0.5773
vn 0.5774 0.5774 -0.5773
vn -0.5774 0.5773 0.5773
vn 0.5774 0.5773 0.5773
vn -0.5774 0.5773 -0.5773
vn 0.5774 0.5773 -0.5773
vn -0.1957 0.0328 0.9801
vn -0.1958 0.0328 -0.9801
vn -0.9863 0.1650 -0.0000
vt 0.666378 0.146211
vt 0.666378 0.123258
vt 0.676911 0.121975
vt 0.676911 0.147494
vt 0.685813 0.127441
vt 0.685813 0.142027
vt 0.642382 0.021028
vt 0.653009 0.011828
vt 0.669695 0.031856
vt 0.664895 0.036502
vt 0.721248 0.014449
vt 0.730416 0.025018
vt 0.710364 0.041729
vt 0.705721 0.036934
vt 0.670098 0.037933
vt 0.665986 0.072123
vt 0.659905 0.072530
vt 0.704282 0.042129
vt 0.705377 0.077763
vt 0.700180 0.076317
vt 0.664555 0.077324
vt 0.649138 0.099863
vt 0.639922 0.089331
vt 0.700567 0.082388
vt 0.727902 0.093180
vt 0.717329 0.102398
vt 0.763057 0.012352
vt 0.775490 0.013672
vt 0.777823 0.204185
vt 0.765390 0.202866
vt 0.758028 0.202956
vt 0.745631 0.204580
vt 0.743297 0.014066
vt 0.755694 0.012442
vt 0.801014 0.688637
vt 0.827190 0.638798
vt 0.847573 0.651683
vt 0.820562 0.691885
vt 0.835441 0.636697
vt 0.851470 0.646243
vt 0.834412 0.630796
vt 0.854695 0.640189
vt 0.854463 0.585911
vt 0.875393 0.595761
vt 0.859925 0.582588
vt 0.877464 0.589536
vt 0.879139 0.582481
vt 0.858110 0.576504
vt 0.864034 0.546887
vt 0.885674 0.552029
vt 0.868875 0.542607
vt 0.886909 0.545736
vt 0.865616 0.537822
vt 0.887455 0.539073
vt 0.864578 0.490921
vt 0.887665 0.490751
vt 0.867058 0.485476
vt 0.886638 0.484303
vt 0.863043 0.480657
vt 0.884896 0.478006
vt 0.852756 0.428670
vt 0.874596 0.430788
vt 0.805580 0.695575
vt 0.819376 0.697671
vt 0.858763 0.423635
vt 0.874762 0.425460
vt 0.904776 0.596337
vt 0.891624 0.592946
vt 0.894745 0.588152
vt 0.904488 0.590741
vt 0.901929 0.600261
vt 0.891982 0.597811
vt 0.876072 0.657485
vt 0.867493 0.651572
vt 0.875482 0.662412
vt 0.863092 0.654092
vt 0.871570 0.665694
vt 0.863011 0.659967
vt 0.840373 0.709097
vt 0.833316 0.702574
vt 0.909779 0.472763
vt 0.900066 0.475964
vt 0.889867 0.425113
vt 0.898674 0.421537
vt 0.915505 0.477139
vt 0.902407 0.480507
vt 0.914507 0.485158
vt 0.904211 0.487621
vt 0.913504 0.547206
vt 0.903447 0.545793
vt 0.914742 0.549442
vt 0.900856 0.547797
vt 0.912500 0.553823
vt 0.902392 0.552787
vt 0.836173 0.714261
vt 0.826543 0.704585
vt 0.884621 0.421162
vt 0.896630 0.415660
vt 0.914441 0.598888
vt 0.916806 0.604809
vt 0.890016 0.665645
vt 0.883400 0.667391
vt 0.885001 0.674758
vt 0.929314 0.468269
vt 0.926377 0.475130
vt 0.930067 0.480900
vt 0.929443 0.545938
vt 0.924430 0.550223
vt 0.927740 0.555220
vt 0.849219 0.720893
vt 0.910912 0.413327
vt 0.840407 0.720357
vt 0.903322 0.410942
vt 0.919964 0.594377
vt 0.669695 0.031856
vt 0.664895 0.036502
vt 0.730416 0.025019
vt 0.710364 0.041729
vt 0.705721 0.036934
vt 0.665986 0.072123
vt 0.704282 0.042129
vt 0.664555 0.077324
vt 0.700567 0.082388
vt 0.727902 0.093180
vt 0.745631 0.204580
vt 0.755694 0.012442
s 1
usemtl M_Props05
f 4/1/1 1/2/1 2/3/2 3/4/2
f 3/4/2 2/3/2 5/5/3 6/6/3
f 8/7/4 7/8/4 12/9/4 11/10/4
f 10/11/5 9/12/5 16/13/5 15/14/5
f 11/10/6 13/15/6 18/16/6 17/17/6
f 13/15/7 12/9/7 15/14/7 14/18/7
f 14/18/8 16/13/8 22/19/8 21/20/8
f 17/17/9 19/21/9 24/22/9 23/23/9
f 19/21/10 18/16/10 21/20/10 20/24/10
f 20/24/11 22/19/11 26/25/11 25/26/11
f 7/8/12 10/11/12 15/14/12 12/9/12
f 13/15/13 14/18/13 21/20/13 18/16/13
f 19/21/14 20/24/14 25/26/14 24/22/14
f 9/12/15 26/25/15 22/19/15 16/13/15
f 23/23/16 8/7/16 11/10/16 17/17/16
f 11/10/17 12/9/17 13/15/17
f 14/18/18 15/14/18 16/13/18
f 17/17/19 18/16/19 19/21/19
f 20/24/20 21/20/20 22/19/20
f 27/27/21 28/28/21 30/29/21 29/30/21
f 31/31/22 32/32/22 34/33/22 33/34/22
f 33/34/23 27/27/23 29/30/23 31/31/23
f 72/35/24 51/36/24 61/37/24 71/38/24
f 51/36/25 50/39/25 60/40/25 61/37/25
f 50/39/26 49/41/26 59/42/26 60/40/26
f 49/41/27 48/43/27 58/44/27 59/42/27
f 48/43/28 47/45/28 57/46/28 58/44/28
f 80/47/29 81/48/29 78/49/29 77/50/29
f 78/49/30 56/51/30 66/52/30 77/50/30
f 56/51/31 55/53/31 65/54/31 66/52/31
f 55/53/32 54/55/32 64/56/32 65/54/32
f 54/55/33 53/57/33 63/58/33 64/56/33
f 53/57/34 52/59/34 62/60/34 63/58/34
f 52/59/35 76/61/35 74/62/35 62/60/35
f 67/63/36 72/35/36 71/38/36 68/64/36
f 74/62/37 76/61/37 69/65/37 70/66/37
f 47/45/38 81/48/38 80/47/38 57/46/38
f 83/67/39 84/68/39 113/69/39 114/70/39
f 84/68/40 83/67/40 85/71/40 86/72/40
f 86/72/41 85/71/41 87/73/41 88/74/41
f 88/74/42 87/73/43 89/75/44 90/76/45
f 90/76/46 89/75/47 91/77/47 92/78/48
f 92/78/49 91/77/49 105/79/49 106/80/49
f 93/81/50 94/82/50 107/83/50 108/84/50
f 94/82/51 93/81/52 95/85/52 96/86/53
f 96/86/54 95/85/54 97/87/54 98/88/54
f 98/88/55 97/87/55 99/89/55 100/90/55
f 100/90/56 99/89/57 101/91/57 102/92/58
f 102/92/59 101/91/60 104/93/60 103/94/61
f 103/94/62 104/93/62 114/70/62 113/69/62
f 106/80/63 105/79/64 109/95/65 110/96/66
f 108/84/67 107/83/68 111/97/69 112/98/70
f 35/99/71 36/100/71 85/71/71 83/67/71
f 36/100/72 37/101/72 87/73/72 85/71/72
f 37/101/73 38/102/73 89/75/44 87/73/43
f 38/102/74 39/103/74 91/77/74 89/75/74
f 40/104/75 41/105/75 95/85/75 93/81/75
f 41/105/76 42/106/76 97/87/76 95/85/76
f 42/106/77 43/107/77 99/89/77 97/87/77
f 43/107/78 44/108/78 101/91/78 99/89/78
f 44/108/79 79/109/79 104/93/79 101/91/79
f 91/77/80 39/103/80 73/110/80 105/79/80
f 40/104/81 93/81/81 108/84/81 75/111/81
f 84/68/82 86/72/82 58/44/82 57/46/82
f 86/72/3 88/74/3 59/42/3 58/44/3
f 88/74/42 90/76/45 60/40/83 59/42/83
f 90/76/46 92/78/48 61/37/84 60/40/84
f 94/82/51 96/86/53 63/58/85 62/60/85
f 96/86/86 98/88/86 64/56/86 63/58/86
f 98/88/3 100/90/3 65/54/3 64/56/3
f 100/90/56 102/92/58 66/52/87 65/54/87
f 102/92/59 103/94/61 77/50/88 66/52/88
f 92/78/3 106/80/3 71/38/3 61/37/3
f 107/83/3 94/82/3 62/60/3 74/62/3
f 105/79/64 73/110/89 45/112/89 109/95/65
f 71/38/90 106/80/63 110/96/66 68/64/90
f 111/97/69 107/83/68 74/62/91 70/66/91
f 75/111/92 108/84/67 112/98/70 46/113/92
f 80/47/3 77/50/3 103/94/3 113/69/3
f 114/70/93 104/93/93 79/109/93 82/114/93
f 113/69/94 84/68/94 57/46/94 80/47/94
f 114/70/95 82/114/95 35/99/95 83/67/95
f 116/7/96 115/8/96 120/115/96 119/116/96
f 118/11/97 117/117/97 124/118/97 123/119/97
f 119/116/6 121/15/6 126/120/6 125/17/6
f 121/15/7 120/115/7 123/119/7 122/121/7
f 122/121/8 124/118/8 130/19/8 129/20/8
f 125/17/98 127/122/98 132/22/98 131/23/98
f 127/122/10 126/120/10 129/20/10 128/123/10
f 128/123/11 130/19/11 134/124/11 133/26/11
f 115/8/12 118/11/12 123/119/12 120/115/12
f 121/15/13 122/121/13 129/20/13 126/120/13
f 127/122/14 128/123/14 133/26/14 132/22/14
f 117/117/15 134/124/15 130/19/15 124/118/15
f 131/23/16 116/7/16 119/116/16 125/17/16
f 119/116/17 120/115/17 121/15/17
f 122/121/18 123/119/18 124/118/18
f 125/17/19 126/120/19 127/122/19
f 128/123/20 129/20/20 130/19/20
f 135/27/99 136/28/99 138/29/99 137/30/99
f 139/31/100 140/125/100 142/33/100 141/126/100
f 141/126/101 135/27/101 137/30/101 139/31/101
f 144/7/4 143/8/4 148/115/4 147/116/4
f 146/11/5 145/117/5 152/118/5 151/119/5
f 147/116/6 149/15/6 154/120/6 153/17/6
f 149/15/7 148/115/7 151/119/7 150/121/7
f 150/121/8 152/118/8 158/19/8 157/20/8
f 153/17/9 155/122/9 160/22/9 159/23/9
f 155/122/10 154/120/10 157/20/10 156/123/10
f 156/123/11 158/19/11 162/124/11 161/26/11
f 143/8/12 146/11/12 151/119/12 148/115/12
f 149/15/13 150/121/13 157/20/13 154/120/13
f 155/122/14 156/123/14 161/26/14 160/22/14
f 145/117/15 162/124/15 158/19/15 152/118/15
f 159/23/16 144/7/16 147/116/16 153/17/16
f 147/116/17 148/115/17 149/15/17
f 150/121/18 151/119/18 152/118/18
f 153/17/19 154/120/19 155/122/19
f 156/123/20 157/20/20 158/19/20
f 163/27/21 164/28/21 166/29/21 165/30/21
f 167/31/22 168/125/22 170/33/22 169/126/22
f 169/126/23 163/27/23 165/30/23 167/31/23
f 172/7/4 171/8/4 176/115/4 175/116/4
f 174/11/5 173/117/5 180/118/5 179/119/5
f 175/116/6 177/15/6 182/120/6 181/17/6
f 177/15/7 176/115/7 179/119/7 178/121/7
f 178/121/8 180/118/8 186/19/8 185/20/8
f 181/17/102 183/122/102 188/22/102 187/23/102
f 183/122/10 182/120/10 185/20/10 184/123/10
f 184/123/103 186/19/103 190/124/103 189/26/103
f 171/8/12 174/11/12 179/119/12 176/115/12
f 177/15/13 178/121/13 185/20/13 182/120/13
f 183/122/14 184/123/14 189/26/14 188/22/14
f 173/117/15 190/124/15 186/19/15 180/118/15
f 187/23/16 172/7/16 175/116/16 181/17/16
f 175/116/17 176/115/17 177/15/17
f 178/121/18 179/119/18 180/118/18
f 181/17/104 182/120/104 183/122/104
f 184/123/105 185/20/105 186/19/105
f 191/27/21 192/28/21 194/29/21 193/30/21
f 195/31/22 196/125/22 198/33/22 197/126/22
f 197/126/23 191/27/23 193/30/23 195/31/23
f 200/7/4 199/8/4 204/115/4 203/116/4
f 202/11/5 201/117/5 208/118/5 207/119/5
f 203/116/6 205/15/6 210/120/6 209/17/6
f 205/15/7 204/115/7 207/119/7 206/121/7
f 206/121/8 208/118/8 214/19/8 213/20/8
f 209/17/98 211/122/98 216/22/98 215/23/98
f 211/122/10 210/120/10 213/20/10 212/123/10
f 212/123/11 214/19/11 218/124/11 217/26/11
f 199/8/12 202/11/12 207/119/12 204/115/12
f 205/15/13 206/121/13 213/20/13 210/120/13
f 211/122/14 212/123/14 217/26/14 216/22/14
f 201/117/15 218/124/15 214/19/15 208/118/15
f 215/23/16 200/7/16 203/116/16 209/17/16
f 203/116/106 204/115/106 205/15/106
f 206/121/107 207/119/107 208/118/107
f 209/17/108 210/120/108 211/122/108
f 212/123/109 213/20/109 214/19/109
f 219/27/110 220/28/110 222/29/110 221/30/110
f 223/31/111 224/125/111 226/33/111 225/126/111
f 225/126/112 219/27/112 221/30/112 223/31/112
