# Blender 4.0.2
# www.blender.org
mtllib Rug.mtl
o Rug
v 1.322752 0.081907 -0.294025
v 1.231393 0.081907 -0.575201
v 1.083570 0.081907 -0.831237
v 0.885745 0.081907 -1.050944
v 0.646563 0.081907 -1.224721
v 0.376477 0.081907 -1.344970
v 0.087293 0.081907 -1.406439
v -0.208353 0.081907 -1.406439
v -0.497538 0.081907 -1.344970
v -0.767623 0.081907 -1.224721
v -1.006805 0.082023 -1.050944
v -1.204631 0.081907 -0.831238
v -1.352454 0.082023 -0.575201
v -1.443812 0.082023 -0.294025
v -1.474716 0.082023 0.000000
v -1.443812 0.082023 0.294026
v -1.352453 0.082023 0.575202
v -1.204631 0.082023 0.831238
v -1.006805 0.082023 1.050944
v -0.767623 0.082023 1.224721
v -0.497538 0.082023 1.344971
v -0.208353 0.082023 1.406439
v 0.087292 0.082023 1.406439
v 0.376477 0.082023 1.344970
v 0.646562 0.082023 1.224721
v 0.885744 0.082023 1.050944
v 1.083570 0.082023 0.831238
v 1.231393 0.082023 0.575201
v 1.322751 0.082023 0.294026
v 1.353655 0.082023 0.000000
v 1.463930 0.068728 -0.324033
v 1.410512 0.082014 -0.312679
v 1.363246 0.068728 -0.633905
v 1.313357 0.082014 -0.611693
v 1.200337 0.068728 -0.916073
v 1.156156 0.082014 -0.883974
v 0.982322 0.068728 -1.158203
v 0.945780 0.082014 -1.117620
v 0.718728 0.068728 -1.349715
v 0.691423 0.082014 -1.302421
v 0.421078 0.068728 -1.482237
v 0.404203 0.082014 -1.430300
v 0.102379 0.068629 -1.549979
v 0.096671 0.082014 -1.495668
v -0.223439 0.068629 -1.549979
v -0.217731 0.082014 -1.495668
v -0.542138 0.068728 -1.482237
v -0.525263 0.082014 -1.430300
v -0.839788 0.068728 -1.349715
v -0.812483 0.082014 -1.302421
v -1.103381 0.068728 -1.158202
v -1.066839 0.082014 -1.117619
v -1.321397 0.068629 -0.916073
v -1.277216 0.082014 -0.883974
v -1.484305 0.068629 -0.633905
v -1.434416 0.082113 -0.611693
v -1.584988 0.068728 -0.324033
v -1.531572 0.082113 -0.312679
v -1.619046 0.068728 0.000000
v -1.564436 0.082113 0.000000
v -1.584988 0.068728 0.324034
v -1.531572 0.082113 0.312680
v -1.484305 0.068728 0.633906
v -1.434416 0.082113 0.611694
v -1.321396 0.068629 0.916073
v -1.277215 0.082113 0.883974
v -1.103381 0.068728 1.158203
v -1.066839 0.082113 1.117620
v -0.839788 0.068728 1.349714
v -0.812483 0.082113 1.302421
v -0.542137 0.068728 1.482235
v -0.525262 0.082113 1.430299
v -0.223439 0.068728 1.549976
v -0.217731 0.082113 1.495666
v 0.102379 0.068728 1.549976
v 0.096670 0.082113 1.495666
v 0.421077 0.068728 1.482234
v 0.404202 0.082113 1.430299
v 0.718726 0.068728 1.349713
v 0.691422 0.082113 1.302420
v 0.982318 0.068728 1.158201
v 0.945778 0.082113 1.117619
v 1.200333 0.068728 0.916071
v 1.156154 0.082113 0.883973
v 1.363242 0.068728 0.633905
v 1.313355 0.082113 0.611694
v 1.463925 0.068728 0.324033
v 1.410510 0.082113 0.312680
v 1.497983 0.068728 0.000000
v 1.443374 0.082113 0.000000
v 0.632045 0.082018 -0.147211
v 0.586302 0.082018 -0.287989
v -0.060530 0.081915 0.000000
v 0.512292 0.082018 -0.416179
v 0.413245 0.082018 -0.526181
v 0.293493 0.082018 -0.613187
v 0.158268 0.082018 -0.673392
v 0.013481 0.082018 -0.704168
v -0.134541 0.082018 -0.704168
v -0.279329 0.082018 -0.673392
v -0.414554 0.082018 -0.613187
v -0.534306 0.082018 -0.526181
v -0.633352 0.082018 -0.416180
v -0.707363 0.081912 -0.287989
v -0.753105 0.081912 -0.147211
v -0.768577 0.081912 0.000000
v -0.753105 0.081912 0.147212
v -0.707363 0.081912 0.287989
v -0.633352 0.081912 0.416180
v -0.534306 0.081912 0.526181
v -0.414554 0.081912 0.613187
v -0.279329 0.081912 0.673393
v -0.134542 0.081912 0.704169
v 0.013480 0.081912 0.704169
v 0.158268 0.081912 0.673392
v 0.293493 0.081912 0.613187
v 0.413245 0.081912 0.526181
v 0.512291 0.081912 0.416180
v 0.586302 0.081912 0.287989
v 0.632044 0.081912 0.147212
v 0.647516 0.081912 0.000000
vn -0.0001 1.0000 0.0004
vn -0.0001 1.0000 0.0001
vn -0.0000 1.0000 0.0001
vn 0.0001 1.0000 0.0001
vn -0.0002 1.0000 0.0003
vn -0.0000 1.0000 -0.0000
vn -0.0000 1.0000 0.0004
vn 0.2316 0.9716 -0.0493
vn 0.0993 0.9948 -0.0212
vn 0.1020 0.9948 -0.0001
vn 0.2376 0.9714 -0.0000
vn 0.2160 0.9717 -0.0961
vn 0.0926 0.9949 -0.0412
vn 0.1912 0.9717 -0.1389
vn 0.0820 0.9949 -0.0596
vn 0.1582 0.9717 -0.1757
vn 0.0678 0.9949 -0.0753
vn 0.1182 0.9717 -0.2047
vn 0.0507 0.9949 -0.0878
vn 0.0731 0.9716 -0.2252
vn 0.0313 0.9948 -0.0966
vn 0.0247 0.9714 -0.2364
vn 0.0106 0.9948 -0.1014
vn -0.0247 0.9714 -0.2364
vn -0.0106 0.9948 -0.1014
vn -0.0731 0.9716 -0.2252
vn -0.0313 0.9948 -0.0966
vn -0.1182 0.9717 -0.2047
vn -0.0507 0.9948 -0.0879
vn -0.1585 0.9716 -0.1759
vn -0.0682 0.9948 -0.0757
vn -0.1927 0.9712 -0.1399
vn -0.0828 0.9948 -0.0602
vn -0.2182 0.9710 -0.0973
vn -0.0936 0.9947 -0.0418
vn -0.2332 0.9712 -0.0497
vn -0.1001 0.9947 -0.0213
vn -0.2381 0.9713 -0.0000
vn -0.1022 0.9948 -0.0000
vn -0.2329 0.9713 0.0495
vn -0.1000 0.9948 0.0213
vn -0.2178 0.9712 0.0971
vn -0.0935 0.9947 0.0417
vn -0.1933 0.9710 0.1404
vn -0.0830 0.9947 0.0603
vn -0.1597 0.9712 0.1771
vn -0.0686 0.9947 0.0761
vn -0.1190 0.9713 0.2062
vn -0.0511 0.9948 0.0885
vn -0.0736 0.9712 0.2264
vn -0.0316 0.9948 0.0972
vn -0.0249 0.9712 0.2368
vn -0.0107 0.9948 0.1017
vn 0.0249 0.9712 0.2368
vn 0.0107 0.9948 0.1017
vn 0.0736 0.9712 0.2264
vn 0.0316 0.9948 0.0972
vn 0.1190 0.9712 0.2062
vn 0.0511 0.9948 0.0885
vn 0.1593 0.9712 0.1769
vn 0.0684 0.9948 0.0760
vn 0.1926 0.9712 0.1399
vn 0.0827 0.9948 0.0601
vn 0.2175 0.9712 0.0968
vn 0.0934 0.9948 0.0416
vn 0.2329 0.9712 0.0495
vn 0.1000 0.9948 0.0213
vn -0.0011 1.0000 0.0005
vn -0.0011 1.0000 0.0001
vn -0.0010 1.0000 0.0007
vn -0.0008 1.0000 0.0009
vn -0.0006 1.0000 0.0010
vn -0.0004 1.0000 0.0011
vn -0.0001 1.0000 0.0012
vn 0.0001 1.0000 0.0012
vn 0.0004 1.0000 0.0011
vn 0.0005 1.0000 0.0007
vn 0.0004 1.0000 0.0004
vn 0.0007 1.0000 0.0004
vn 0.0011 1.0000 0.0003
vn 0.0010 1.0000 0.0002
vn 0.0010 1.0000 -0.0000
vn 0.0010 1.0000 -0.0002
vn 0.0009 1.0000 -0.0004
vn 0.0008 1.0000 -0.0006
vn 0.0007 1.0000 -0.0008
vn 0.0005 1.0000 -0.0009
vn 0.0003 1.0000 -0.0010
vn 0.0001 1.0000 -0.0010
vn -0.0001 1.0000 -0.0010
vn -0.0003 1.0000 -0.0010
vn -0.0005 1.0000 -0.0009
vn -0.0007 1.0000 -0.0008
vn -0.0008 1.0000 -0.0006
vn -0.0009 1.0000 -0.0004
vn -0.0010 1.0000 -0.0002
vn -0.0011 1.0000 -0.0002
vn 0.0002 1.0000 -0.0000
vn 0.0001 1.0000 -0.0001
vn -0.0000 1.0000 -0.0002
vn -0.0001 1.0000 -0.0001
vn 0.0002 1.0000 -0.0002
vn -0.0002 1.0000 0.0001
vn -0.0002 1.0000 -0.0000
vt 0.304952 0.161359
vt 0.327433 0.168664
vt 0.281443 0.271956
vt 0.347903 0.180483
vt 0.365469 0.196299
vt 0.379363 0.215422
vt 0.388978 0.237016
vt 0.393892 0.260138
vt 0.393892 0.283775
vt 0.388978 0.306896
vt 0.379363 0.328490
vt 0.365469 0.347614
vt 0.347903 0.363430
vt 0.327433 0.375249
vt 0.304952 0.382554
vt 0.281443 0.385024
vt 0.257935 0.382554
vt 0.235454 0.375249
vt 0.214983 0.363430
vt 0.197418 0.347614
vt 0.183524 0.328490
vt 0.173909 0.306896
vt 0.168995 0.283775
vt 0.168995 0.260138
vt 0.173909 0.237016
vt 0.183524 0.215422
vt 0.197418 0.196299
vt 0.214983 0.180483
vt 0.235454 0.168664
vt 0.257935 0.161359
vt 0.281443 0.158888
vt 0.333189 0.028516
vt 0.331375 0.037045
vt 0.281443 0.031798
vt 0.281443 0.023077
vt 0.382672 0.044593
vt 0.379125 0.052560
vt 0.427731 0.070609
vt 0.422605 0.077664
vt 0.466397 0.105423
vt 0.459916 0.111258
vt 0.496979 0.147516
vt 0.489427 0.151877
vt 0.518142 0.195048
vt 0.509848 0.197743
vt 0.528960 0.245941
vt 0.520287 0.246853
vt 0.528960 0.297971
vt 0.520287 0.297060
vt 0.518142 0.348864
vt 0.509848 0.346169
vt 0.496979 0.396396
vt 0.489427 0.392036
vt 0.466397 0.438489
vt 0.459916 0.432654
vt 0.427731 0.473304
vt 0.422605 0.466249
vt 0.382672 0.499319
vt 0.379125 0.491352
vt 0.333189 0.515397
vt 0.331375 0.506867
vt 0.281443 0.520836
vt 0.281443 0.512115
vt 0.229698 0.515397
vt 0.231512 0.506867
vt 0.180215 0.499319
vt 0.183762 0.491352
vt 0.135156 0.473304
vt 0.140281 0.466249
vt 0.096490 0.438489
vt 0.102970 0.432654
vt 0.065907 0.396396
vt 0.073460 0.392036
vt 0.044745 0.348864
vt 0.053039 0.346169
vt 0.033928 0.297971
vt 0.042600 0.297060
vt 0.033928 0.245941
vt 0.042600 0.246853
vt 0.044745 0.195048
vt 0.053039 0.197744
vt 0.065908 0.147517
vt 0.073460 0.151877
vt 0.096490 0.105424
vt 0.102971 0.111259
vt 0.135156 0.070609
vt 0.140281 0.077664
vt 0.180215 0.044594
vt 0.183762 0.052561
vt 0.229698 0.028516
vt 0.231512 0.037045
vt 0.373297 0.065649
vt 0.328396 0.051060
vt 0.414184 0.089255
vt 0.449269 0.120845
vt 0.477019 0.159040
vt 0.496222 0.202170
vt 0.506038 0.248350
vt 0.506038 0.295562
vt 0.496222 0.341742
vt 0.477019 0.384872
vt 0.449269 0.423067
vt 0.414184 0.454657
vt 0.373297 0.478264
vt 0.328396 0.492853
vt 0.281443 0.497787
vt 0.234491 0.492853
vt 0.189589 0.478264
vt 0.148703 0.454657
vt 0.113618 0.423067
vt 0.085868 0.384872
vt 0.066665 0.341742
vt 0.056849 0.295562
vt 0.056849 0.248350
vt 0.066665 0.202170
vt 0.085868 0.159041
vt 0.113618 0.120846
vt 0.148703 0.089255
vt 0.189589 0.065649
vt 0.234491 0.051060
vt 0.281443 0.046125
s 1
usemtl M_Props05
f 91/1/1 92/2/2 93/3/3
f 92/2/2 94/4/2 93/3/3
f 94/4/2 95/5/2 93/3/3
f 95/5/2 96/6/2 93/3/3
f 96/6/2 97/7/3 93/3/3
f 97/7/3 98/8/3 93/3/3
f 98/8/3 99/9/3 93/3/3
f 99/9/3 100/10/3 93/3/3
f 100/10/3 101/11/4 93/3/3
f 101/11/4 102/12/4 93/3/3
f 102/12/4 103/13/1 93/3/3
f 103/13/1 104/14/5 93/3/3
f 104/14/5 105/15/6 93/3/3
f 105/15/6 106/16/6 93/3/3
f 106/16/6 107/17/6 93/3/3
f 107/17/6 108/18/6 93/3/3
f 108/18/6 109/19/6 93/3/3
f 109/19/6 110/20/6 93/3/3
f 110/20/6 111/21/6 93/3/3
f 111/21/6 112/22/6 93/3/3
f 112/22/6 113/23/6 93/3/3
f 113/23/6 114/24/6 93/3/3
f 114/24/6 115/25/6 93/3/3
f 115/25/6 116/26/6 93/3/3
f 116/26/6 117/27/6 93/3/3
f 117/27/6 118/28/6 93/3/3
f 118/28/6 119/29/6 93/3/3
f 119/29/6 120/30/6 93/3/3
f 120/30/6 121/31/7 93/3/3
f 121/31/7 91/1/1 93/3/3
f 31/32/8 32/33/9 90/34/10 89/35/11
f 32/33/9 31/32/8 33/36/12 34/37/13
f 34/37/13 33/36/12 35/38/14 36/39/15
f 36/39/15 35/38/14 37/40/16 38/41/17
f 38/41/17 37/40/16 39/42/18 40/43/19
f 40/43/19 39/42/18 41/44/20 42/45/21
f 42/45/21 41/44/20 43/46/22 44/47/23
f 44/47/23 43/46/22 45/48/24 46/49/25
f 46/49/25 45/48/24 47/50/26 48/51/27
f 48/51/27 47/50/26 49/52/28 50/53/29
f 50/53/29 49/52/28 51/54/30 52/55/31
f 52/55/31 51/54/30 53/56/32 54/57/33
f 54/57/33 53/56/32 55/58/34 56/59/35
f 56/59/35 55/58/34 57/60/36 58/61/37
f 58/61/37 57/60/36 59/62/38 60/63/39
f 60/63/39 59/62/38 61/64/40 62/65/41
f 62/65/41 61/64/40 63/66/42 64/67/43
f 64/67/43 63/66/42 65/68/44 66/69/45
f 66/69/45 65/68/44 67/70/46 68/71/47
f 68/71/47 67/70/46 69/72/48 70/73/49
f 70/73/49 69/72/48 71/74/50 72/75/51
f 72/75/51 71/74/50 73/76/52 74/77/53
f 74/77/53 73/76/52 75/78/54 76/79/55
f 76/79/55 75/78/54 77/80/56 78/81/57
f 78/81/57 77/80/56 79/82/58 80/83/59
f 80/83/59 79/82/58 81/84/60 82/85/61
f 82/85/61 81/84/60 83/86/62 84/87/63
f 84/87/63 83/86/62 85/88/64 86/89/65
f 86/89/65 85/88/64 87/90/66 88/91/67
f 88/91/67 87/90/66 89/35/11 90/34/10
f 32/33/9 34/37/13 2/92/68 1/93/69
f 34/37/13 36/39/15 3/94/70 2/92/68
f 36/39/15 38/41/17 4/95/71 3/94/70
f 38/41/17 40/43/19 5/96/72 4/95/71
f 40/43/19 42/45/21 6/97/73 5/96/72
f 42/45/21 44/47/23 7/98/74 6/97/73
f 44/47/23 46/49/25 8/99/75 7/98/74
f 46/49/25 48/51/27 9/100/76 8/99/75
f 48/51/27 50/53/29 10/101/77 9/100/76
f 50/53/29 52/55/31 11/102/78 10/101/77
f 52/55/31 54/57/33 12/103/79 11/102/78
f 54/57/33 56/59/35 13/104/80 12/103/79
f 56/59/35 58/61/37 14/105/81 13/104/80
f 58/61/37 60/63/39 15/106/82 14/105/81
f 60/63/39 62/65/41 16/107/83 15/106/82
f 62/65/41 64/67/43 17/108/84 16/107/83
f 64/67/43 66/69/45 18/109/85 17/108/84
f 66/69/45 68/71/47 19/110/86 18/109/85
f 68/71/47 70/73/49 20/111/87 19/110/86
f 70/73/49 72/75/51 21/112/88 20/111/87
f 72/75/51 74/77/53 22/113/89 21/112/88
f 74/77/53 76/79/55 23/114/90 22/113/89
f 76/79/55 78/81/57 24/115/91 23/114/90
f 78/81/57 80/83/59 25/116/92 24/115/91
f 80/83/59 82/85/61 26/117/93 25/116/92
f 82/85/61 84/87/63 27/118/94 26/117/93
f 84/87/63 86/89/65 28/119/95 27/118/94
f 86/89/65 88/91/67 29/120/96 28/119/95
f 88/91/67 90/34/10 30/121/97 29/120/96
f 90/34/10 32/33/9 1/93/69 30/121/97
f 1/93/98 2/92/98 92/2/98 91/1/98
f 2/92/99 3/94/99 94/4/99 92/2/99
f 3/94/99 4/95/99 95/5/99 94/4/99
f 4/95/99 5/96/99 96/6/99 95/5/99
f 5/96/99 6/97/99 97/7/99 96/6/99
f 6/97/100 7/98/100 98/8/100 97/7/100
f 7/98/100 8/99/100 99/9/100 98/8/100
f 8/99/100 9/100/100 100/10/100 99/9/100
f 9/100/101 10/101/101 101/11/101 100/10/101
f 10/101/102 11/102/102 102/12/102 101/11/102
f 11/102/103 12/103/103 103/13/103 102/12/103
f 12/103/6 13/104/6 104/14/6 103/13/6
f 13/104/98 14/105/98 105/15/98 104/14/98
f 14/105/98 15/106/98 106/16/98 105/15/98
f 15/106/98 16/107/98 107/17/98 106/16/98
f 16/107/98 17/108/98 108/18/98 107/17/98
f 17/108/99 18/109/99 109/19/99 108/18/99
f 18/109/99 19/110/99 110/20/99 109/19/99
f 19/110/99 20/111/99 111/21/99 110/20/99
f 20/111/99 21/112/99 112/22/99 111/21/99
f 21/112/100 22/113/100 113/23/100 112/22/100
f 22/113/100 23/114/100 114/24/100 113/23/100
f 23/114/100 24/115/100 115/25/100 114/24/100
f 24/115/101 25/116/101 116/26/101 115/25/101
f 25/116/101 26/117/101 117/27/101 116/26/101
f 26/117/101 27/118/101 118/28/101 117/27/101
f 27/118/101 28/119/101 119/29/101 118/28/101
f 28/119/104 29/120/104 120/30/104 119/29/104
f 29/120/104 30/121/104 121/31/104 120/30/104
f 30/121/6 1/93/6 91/1/6 121/31/6
