# Blender 4.0.2
# www.blender.org
mtllib ChainFloor01.mtl
o ChainFloor01
v -0.253919 -0.049395 -0.411022
v -0.131262 -0.049395 -0.415270
v -0.131262 0.021556 -0.415270
v -0.253919 0.021556 -0.411022
v -0.099520 -0.049395 -0.385653
v -0.095272 -0.049395 -0.262995
v -0.095272 0.021556 -0.262995
v -0.099520 0.021556 -0.385653
v -0.124889 -0.049395 -0.231254
v -0.247547 -0.049395 -0.227006
v -0.247547 0.021556 -0.227006
v -0.124889 0.021556 -0.231254
v -0.279289 -0.049395 -0.256623
v -0.283537 -0.049395 -0.379280
v -0.283537 0.021556 -0.379280
v -0.279289 0.021556 -0.256623
v -0.155665 -0.034505 -0.375762
v -0.137245 -0.034505 -0.358575
v -0.155665 0.006666 -0.375762
v -0.137245 0.006666 -0.358575
v -0.134780 -0.034505 -0.287399
v -0.151967 -0.034505 -0.268979
v -0.134780 0.006666 -0.287399
v -0.151967 0.006666 -0.268979
v -0.223144 -0.034505 -0.266514
v -0.241563 -0.034505 -0.283700
v -0.223144 0.006666 -0.266514
v -0.241563 0.006666 -0.283700
v -0.244028 -0.034505 -0.354877
v -0.226842 -0.034505 -0.373297
v -0.244028 0.006666 -0.354877
v -0.226842 0.006666 -0.373297
v -0.091322 0.021556 -0.199933
v -0.087074 0.021556 -0.077276
v -0.087074 -0.049395 -0.077276
v -0.091322 -0.049395 -0.199933
v -0.055332 0.021556 -0.047659
v 0.067325 0.021556 -0.051906
v 0.067325 -0.049395 -0.051906
v -0.055332 -0.049395 -0.047659
v 0.096942 0.021556 -0.083648
v 0.092695 0.021556 -0.206306
v 0.092695 -0.049395 -0.206306
v 0.096942 -0.049395 -0.083648
v 0.060953 0.021556 -0.235923
v -0.061705 0.021556 -0.231675
v -0.061705 -0.049395 -0.231675
v 0.060953 -0.049395 -0.235923
v -0.049349 0.006666 -0.104353
v -0.030929 0.006666 -0.087167
v -0.049349 -0.034505 -0.104353
v -0.030929 -0.034505 -0.087167
v 0.040248 0.006666 -0.089631
v 0.057434 0.006666 -0.108051
v 0.040248 -0.034505 -0.089631
v 0.057434 -0.034505 -0.108051
v 0.054969 0.006666 -0.179228
v 0.036550 0.006666 -0.196415
v 0.054969 -0.034505 -0.179228
v 0.036550 -0.034505 -0.196415
v -0.034627 0.006666 -0.193950
v -0.051814 0.006666 -0.175530
v -0.034627 -0.034505 -0.193950
v -0.051814 -0.034505 -0.175530
v -0.161694 0.038381 -0.317189
v -0.132946 0.108692 -0.220789
v -0.172161 0.067102 -0.178761
v -0.200909 -0.003208 -0.275160
v -0.101203 0.108692 -0.191172
v -0.003046 0.038381 -0.169162
v -0.042261 -0.003208 -0.127133
v -0.140419 0.067102 -0.149144
v 0.014315 0.003209 -0.187769
v -0.014433 -0.067102 -0.284168
v -0.053648 -0.108692 -0.242139
v -0.024900 -0.038381 -0.145740
v -0.046175 -0.067102 -0.313785
v -0.144333 0.003209 -0.335796
v -0.183548 -0.038381 -0.293767
v -0.085390 -0.108692 -0.271756
v -0.116305 0.063073 -0.225270
v -0.097885 0.063073 -0.208083
v -0.139061 0.038939 -0.200881
v -0.120641 0.038939 -0.183694
v -0.040925 0.022272 -0.195311
v -0.030851 0.001862 -0.206108
v -0.063682 -0.001862 -0.170922
v -0.053607 -0.022272 -0.181719
v -0.047533 -0.038939 -0.262048
v -0.065952 -0.038939 -0.279234
v -0.070289 -0.063073 -0.237659
v -0.088709 -0.063073 -0.254845
v -0.122912 0.001862 -0.292007
v -0.132987 0.022272 -0.281210
v -0.145669 -0.022272 -0.267618
v -0.155743 -0.001862 -0.256821
v 0.009930 -0.049395 -0.092182
v 0.096714 -0.049395 -0.005398
v 0.096714 0.021556 -0.005398
v 0.009930 0.021556 -0.092182
v 0.096714 -0.049395 0.038015
v 0.009930 -0.049395 0.124799
v 0.009930 0.021556 0.124799
v 0.096714 0.021556 0.038015
v -0.033484 -0.049395 0.124799
v -0.120268 -0.049395 0.038015
v -0.120268 0.021556 0.038015
v -0.033484 0.021556 0.124799
v -0.120268 -0.049395 -0.005398
v -0.033484 -0.049395 -0.092182
v -0.033484 0.021556 -0.092182
v -0.120268 0.021556 -0.005398
v 0.051179 -0.034505 0.003712
v 0.051179 -0.034505 0.028905
v 0.051179 0.006666 0.003712
v 0.051179 0.006666 0.028905
v 0.000819 -0.034505 0.079264
v -0.024373 -0.034505 0.079264
v 0.000819 0.006666 0.079264
v -0.024373 0.006666 0.079264
v -0.074733 -0.034505 0.028905
v -0.074733 -0.034505 0.003712
v -0.074733 0.006666 0.028905
v -0.074733 0.006666 0.003712
v -0.024373 -0.034505 -0.046648
v 0.000819 -0.034505 -0.046648
v -0.024373 0.006666 -0.046648
v 0.000819 0.006666 -0.046648
v 0.131228 -0.038381 -0.170619
v 0.105300 -0.108692 -0.073423
v 0.145723 -0.067102 -0.032554
v 0.171651 0.003208 -0.129750
v 0.074434 -0.108692 -0.042894
v -0.023040 -0.038381 -0.018035
v 0.017382 0.003208 0.022834
v 0.114857 -0.067102 -0.002025
v -0.040936 -0.003209 -0.036127
v -0.015008 0.067102 -0.133324
v 0.025415 0.108692 -0.092455
v -0.000513 0.038381 0.004741
v 0.015858 0.067102 -0.163853
v 0.113333 -0.003209 -0.188712
v 0.153756 0.038381 -0.147843
v 0.056281 0.108692 -0.122984
v 0.088536 -0.063073 -0.077417
v 0.070625 -0.063073 -0.059701
v 0.111993 -0.038939 -0.053701
v 0.094082 -0.038939 -0.035985
v 0.014061 -0.022272 -0.045275
v 0.003677 -0.001862 -0.055775
v 0.037518 0.001862 -0.021560
v 0.027133 0.022272 -0.032059
v 0.018722 0.038939 -0.112177
v 0.036633 0.038939 -0.129892
v 0.042179 0.063073 -0.088461
v 0.060090 0.063073 -0.106176
v 0.093197 -0.001862 -0.144318
v 0.103582 -0.022272 -0.133819
v 0.116654 0.022272 -0.120602
v 0.127039 0.001862 -0.110103
v 0.004240 0.038381 0.039263
v -0.046631 0.108692 0.126047
v -0.104113 0.067102 0.126047
v -0.053242 -0.003208 0.039263
v -0.046631 0.108692 0.169461
v 0.004240 0.038381 0.256245
v -0.053242 -0.003208 0.256245
v -0.104113 0.067102 0.169461
v 0.029688 0.003209 0.256245
v 0.080560 -0.067102 0.169461
v 0.023077 -0.108692 0.169461
v -0.027794 -0.038381 0.256245
v 0.080560 -0.067102 0.126047
v 0.029688 0.003209 0.039263
v -0.027794 -0.038381 0.039263
v 0.023077 -0.108692 0.126047
v -0.032002 0.063073 0.135158
v -0.032002 0.063073 0.160350
v -0.065359 0.038939 0.135158
v -0.065359 0.038939 0.160350
v -0.002482 0.022272 0.210710
v 0.012285 0.001862 0.210710
v -0.035839 -0.001862 0.210710
v -0.021072 -0.022272 0.210710
v 0.041805 -0.038939 0.160350
v 0.041805 -0.038939 0.135158
v 0.008448 -0.063073 0.160350
v 0.008448 -0.063073 0.135158
v 0.012285 0.001862 0.084798
v -0.002482 0.022272 0.084798
v -0.021072 -0.022272 0.084798
v -0.035839 -0.001862 0.084798
v -0.050474 0.021556 0.224378
v -0.018032 0.021556 0.342743
v -0.018032 -0.049395 0.342743
v -0.050474 -0.049395 0.224378
v 0.019689 0.021556 0.364235
v 0.138054 0.021556 0.331792
v 0.138054 -0.049395 0.331792
v 0.019689 -0.049395 0.364235
v 0.159546 0.021556 0.294072
v 0.127104 0.021556 0.175706
v 0.127104 -0.049395 0.175706
v 0.159546 -0.049395 0.294072
v 0.089383 0.021556 0.154215
v -0.028982 0.021556 0.186657
v -0.028982 -0.049395 0.186657
v 0.089383 -0.049395 0.154215
v 0.012426 0.006666 0.307690
v 0.034315 0.006666 0.320161
v 0.012426 -0.034505 0.307690
v 0.034315 -0.034505 0.320161
v 0.103001 0.006666 0.301335
v 0.115472 0.006666 0.279446
v 0.103001 -0.034505 0.301335
v 0.115472 -0.034505 0.279446
v 0.096646 0.006666 0.210760
v 0.074757 0.006666 0.198288
v 0.096646 -0.034505 0.210760
v 0.074757 -0.034505 0.198288
v 0.006071 0.006666 0.217114
v -0.006400 0.006666 0.239003
v 0.006071 -0.034505 0.217114
v -0.006400 -0.034505 0.239003
v 0.066551 -0.038381 0.284505
v 0.167139 -0.108692 0.283266
v 0.195595 -0.067102 0.233321
v 0.095008 0.003208 0.234560
v 0.204860 -0.108692 0.304758
v 0.255080 -0.038381 0.391920
v 0.283537 0.003208 0.341975
v 0.233316 -0.067102 0.254813
v 0.242482 -0.003209 0.414031
v 0.141895 0.067102 0.415270
v 0.170352 0.108692 0.365325
v 0.270939 0.038381 0.364086
v 0.104174 0.067102 0.393778
v 0.053953 -0.003209 0.306616
v 0.082410 0.038381 0.256672
v 0.132631 0.108692 0.343833
v 0.167813 -0.063073 0.300487
v 0.189702 -0.063073 0.312958
v 0.184326 -0.038939 0.271504
v 0.206215 -0.038939 0.283976
v 0.218844 -0.022272 0.363537
v 0.211534 -0.001862 0.376368
v 0.235357 0.001862 0.334555
v 0.228047 0.022272 0.347386
v 0.153164 0.038939 0.377087
v 0.131275 0.038939 0.364616
v 0.169677 0.063073 0.348105
v 0.147788 0.063073 0.335633
v 0.102133 -0.001862 0.314037
v 0.109443 -0.022272 0.301206
v 0.118646 0.022272 0.285054
v 0.125956 0.001862 0.272223
vn 0.6822 -0.0000 -0.7312
vn 0.7312 -0.0000 0.6822
vn -0.6822 -0.0000 0.7312
vn -0.7312 -0.0000 -0.6822
vn -0.0346 -0.0000 -0.9994
vn 0.9994 -0.0000 -0.0346
vn 0.0346 -0.0000 0.9994
vn -0.9994 -0.0000 0.0346
vn -0.2120 -0.9505 0.2272
vn -0.2120 0.9505 0.2272
vn -0.2272 -0.9505 -0.2120
vn -0.2272 0.9505 -0.2120
vn 0.2120 -0.9505 -0.2272
vn 0.2120 0.9505 -0.2272
vn 0.2272 -0.9505 0.2120
vn 0.2272 0.9505 0.2120
vn 0.0124 -0.9331 0.3593
vn 0.0124 0.9331 0.3593
vn -0.3593 -0.9331 0.0124
vn -0.3593 0.9331 0.0124
vn -0.0124 -0.9331 -0.3593
vn -0.0124 0.9331 -0.3593
vn 0.3593 -0.9331 -0.0124
vn 0.3593 0.9331 -0.0124
vn -0.3594 0.9331 0.0124
vn -0.3594 -0.9331 0.0124
vn -0.3999 0.8102 0.4286
vn 0.3999 -0.8102 -0.4286
vn -0.7998 0.5729 -0.1793
vn 0.2342 0.5729 0.7855
vn 0.7998 -0.5729 0.1793
vn -0.2342 -0.5729 -0.7855
vn 0.6496 0.3054 -0.6962
vn -0.4011 -0.8090 0.4298
vn 0.2981 0.5572 -0.7751
vn -0.7526 -0.5572 0.3510
vn 0.4011 0.8090 -0.4298
vn -0.6496 -0.3054 0.6962
vn 0.7526 0.5571 -0.3510
vn -0.2981 -0.5571 0.7751
vn 0.8033 0.3410 -0.4883
vn -0.2282 -0.7530 0.6172
vn 0.4315 0.3410 -0.8352
vn -0.6000 -0.7530 0.2703
vn 0.2282 0.7530 -0.6172
vn -0.8033 -0.3410 0.4883
vn 0.6000 0.7530 -0.2703
vn -0.4315 -0.3410 0.8352
vn 1.0000 -0.0000 -0.0000
vn -0.0000 -0.0000 1.0000
vn -1.0000 -0.0000 -0.0000
vn -0.0000 -0.0000 -1.0000
vn 0.7071 -0.0000 -0.7071
vn 0.7071 -0.0000 0.7071
vn -0.7071 -0.0000 0.7071
vn -0.7071 -0.0000 -0.7071
vn -0.3108 -0.9505 -0.0000
vn -0.3108 0.9505 -0.0000
vn -0.0000 -0.9505 -0.3108
vn -0.0000 0.9505 -0.3108
vn 0.3108 -0.9505 -0.0000
vn 0.3108 0.9505 -0.0000
vn -0.0000 -0.9505 0.3108
vn -0.0000 0.9505 0.3108
vn -0.2543 -0.9331 0.2543
vn -0.2543 0.9331 0.2543
vn -0.2543 -0.9331 -0.2543
vn -0.2543 0.9331 -0.2543
vn 0.2543 -0.9331 -0.2543
vn 0.2543 0.9331 -0.2543
vn 0.2543 -0.9331 0.2543
vn 0.2543 0.9331 0.2543
vn 0.4122 -0.8102 0.4168
vn -0.7110 -0.0000 0.7032
vn -0.4122 0.8102 -0.4168
vn 0.7110 -0.0000 -0.7032
vn 0.7942 -0.5729 -0.2026
vn -0.2113 -0.5729 0.7919
vn -0.7942 0.5729 0.2026
vn 0.2113 0.5729 -0.7919
vn -0.6696 -0.3053 -0.6770
vn 0.4134 0.8090 0.4180
vn -0.3205 -0.5572 -0.7661
vn 0.7625 0.5571 0.3289
vn -0.4134 -0.8090 -0.4180
vn 0.6696 0.3054 0.6770
vn -0.7625 -0.5572 -0.3289
vn 0.3205 0.5571 0.7661
vn -0.8172 -0.3410 -0.4647
vn 0.2461 0.7530 0.6103
vn -0.4557 -0.3410 -0.8223
vn 0.6076 0.7530 0.2527
vn -0.2461 -0.7530 -0.6103
vn 0.8172 0.3410 0.4647
vn -0.6076 -0.7530 -0.2527
vn 0.4557 0.3410 0.8223
vn -0.5862 0.8102 -0.0000
vn 0.5862 -0.8102 -0.0000
vn -0.4145 0.5729 -0.7071
vn -0.4145 0.5729 0.7071
vn 0.4145 -0.5729 0.7071
vn 0.4145 -0.5729 -0.7071
vn 0.9522 0.3054 -0.0000
vn -0.5879 -0.8090 -0.0000
vn 0.7701 0.5572 -0.3108
vn -0.7701 -0.5572 -0.3108
vn 0.5879 0.8090 -0.0000
vn -0.9522 -0.3054 -0.0000
vn 0.7701 0.5572 0.3108
vn -0.7701 -0.5572 0.3108
vn 0.9050 0.3410 0.2542
vn -0.6070 -0.7530 0.2543
vn 0.9050 0.3410 -0.2542
vn -0.6070 -0.7530 -0.2542
vn 0.6070 0.7530 -0.2543
vn -0.9050 -0.3410 -0.2542
vn 0.6070 0.7530 0.2543
vn -0.9050 -0.3410 0.2542
vn -0.4950 -0.0000 0.8689
vn 0.8689 -0.0000 0.4950
vn 0.4950 -0.0000 -0.8689
vn -0.8689 -0.0000 -0.4950
vn -0.9644 -0.0000 0.2643
vn 0.2643 -0.0000 0.9644
vn 0.9644 -0.0000 -0.2643
vn -0.2643 -0.0000 -0.9644
vn 0.1539 0.9505 -0.2700
vn 0.1539 -0.9505 -0.2700
vn -0.2700 0.9505 -0.1539
vn -0.2700 -0.9505 -0.1539
vn -0.1539 0.9505 0.2700
vn -0.1539 -0.9505 0.2700
vn 0.2700 0.9505 0.1539
vn 0.2700 -0.9505 0.1539
vn 0.3468 0.9331 -0.0950
vn 0.3468 -0.9331 -0.0950
vn -0.0950 0.9331 -0.3468
vn -0.0950 -0.9331 -0.3468
vn -0.3468 0.9331 0.0950
vn -0.3468 -0.9331 0.0950
vn 0.0950 0.9331 0.3468
vn 0.0950 -0.9331 0.3468
vn 0.2902 -0.8102 -0.5093
vn -0.2902 0.8102 0.5093
vn -0.4092 -0.5729 -0.7102
vn 0.8196 -0.5729 -0.0101
vn 0.4092 0.5729 0.7102
vn -0.8196 0.5729 0.0101
vn -0.4714 -0.3054 0.8274
vn 0.2910 0.8090 -0.5108
vn -0.6512 -0.5572 0.5152
vn 0.1112 0.5572 -0.8229
vn -0.2910 -0.8090 0.5108
vn 0.4714 0.3053 -0.8274
vn -0.1112 -0.5571 0.8229
vn 0.6512 0.5572 -0.5152
vn -0.2271 -0.3410 0.9122
vn 0.5214 0.7530 -0.4015
vn -0.6689 -0.3410 0.6605
vn 0.0796 0.7530 -0.6532
vn -0.5214 -0.7530 0.4015
vn 0.2271 0.3410 -0.9122
vn -0.0796 -0.7530 0.6532
vn 0.6689 0.3410 -0.6605
vt 0.659495 0.820639
vt 0.659495 0.795773
vt 0.674709 0.795773
vt 0.674709 0.820639
vt 0.505667 0.887839
vt 0.534357 0.887839
vt 0.534357 0.905390
vt 0.505667 0.905390
vt 0.556943 0.817908
vt 0.556943 0.793048
vt 0.572161 0.793048
vt 0.572161 0.817908
vt 0.665193 0.881607
vt 0.693883 0.881607
vt 0.693883 0.899160
vt 0.665193 0.899160
vt 0.665193 0.934253
vt 0.693883 0.934253
vt 0.505667 0.852743
vt 0.534357 0.852743
vt 0.505667 0.940486
vt 0.534357 0.940486
vt 0.665193 0.846511
vt 0.693883 0.846511
vt 0.429528 0.157786
vt 0.429528 0.173328
vt 0.413225 0.170067
vt 0.413225 0.161047
vt 0.050916 0.187374
vt 0.035376 0.187374
vt 0.038634 0.171071
vt 0.047658 0.171071
vt 0.398456 0.204403
vt 0.382914 0.204403
vt 0.386175 0.188100
vt 0.395195 0.188100
vt 0.081991 0.140759
vt 0.081991 0.156299
vt 0.065688 0.153041
vt 0.065688 0.144017
vt 0.351839 0.173328
vt 0.351839 0.157786
vt 0.368142 0.161047
vt 0.368142 0.170067
vt 0.035376 0.109684
vt 0.050916 0.109684
vt 0.047658 0.125987
vt 0.038634 0.125987
vt 0.382914 0.126714
vt 0.398456 0.126714
vt 0.395195 0.143017
vt 0.386175 0.143017
vt 0.004301 0.156299
vt 0.004301 0.140759
vt 0.020604 0.144017
vt 0.020604 0.153041
vt 0.442996 0.683267
vt 0.442996 0.662903
vt 0.459645 0.662903
vt 0.459645 0.683267
vt 0.442996 0.652716
vt 0.459645 0.652716
vt 0.442996 0.632349
vt 0.459645 0.632349
vt 0.246721 0.018770
vt 0.237892 0.018770
vt 0.237892 0.004341
vt 0.246721 0.004341
vt 0.750653 0.579371
vt 0.750653 0.559008
vt 0.767301 0.559008
vt 0.767301 0.579371
vt 0.750653 0.548816
vt 0.767301 0.548816
vt 0.750653 0.528453
vt 0.767301 0.528453
vt 0.172656 0.018770
vt 0.163827 0.018770
vt 0.163827 0.004341
vt 0.172656 0.004341
s 1
usemtl M_Props03
f 2/1/1 3/2/1 8/3/1 5/4/1
f 6/5/2 7/6/2 12/7/2 9/8/2
f 10/9/3 11/10/3 16/11/3 13/12/3
f 14/13/4 15/14/4 4/15/4 1/16/4
f 2/17/5 1/16/5 4/15/5 3/18/5
f 6/5/6 5/19/6 8/20/6 7/6/6
f 10/21/7 9/8/7 12/7/7 11/22/7
f 14/13/8 13/23/8 16/24/8 15/14/8
f 2/25/9 5/26/9 18/27/9 17/28/9
f 8/29/10 3/30/10 19/31/10 20/32/10
f 6/33/11 9/34/11 22/35/11 21/36/11
f 12/37/12 7/38/12 23/39/12 24/40/12
f 10/41/13 13/42/13 26/43/13 25/44/13
f 16/45/14 11/46/14 27/47/14 28/48/14
f 14/49/15 1/50/15 30/51/15 29/52/15
f 4/53/16 15/54/16 31/55/16 32/56/16
f 1/50/17 2/25/17 17/28/17 30/51/17
f 3/30/18 4/53/18 32/56/18 19/31/18
f 5/26/19 6/33/19 21/36/19 18/27/19
f 7/38/20 8/29/20 20/32/20 23/39/20
f 9/34/21 10/41/21 25/44/21 22/35/21
f 11/46/22 12/37/22 24/40/22 27/47/22
f 13/42/23 14/49/23 29/52/23 26/43/23
f 15/54/24 16/45/24 28/48/24 31/55/24
f 18/57/8 21/58/8 23/59/8 20/60/8
f 21/58/4 22/61/4 24/62/4 23/59/4
f 22/61/5 25/63/5 27/64/5 24/62/5
f 25/65/1 26/66/1 28/67/1 27/68/1
f 26/69/6 29/70/6 31/71/6 28/72/6
f 29/70/2 30/73/2 32/74/2 31/71/2
f 30/73/7 17/75/7 19/76/7 32/74/7
f 17/77/3 18/78/3 20/79/3 19/80/3
f 34/1/3 35/2/3 40/3/3 37/4/3
f 38/5/2 39/6/2 44/7/2 41/8/2
f 42/9/1 43/10/1 48/11/1 45/12/1
f 46/13/4 47/14/4 36/15/4 33/16/4
f 34/17/8 33/16/8 36/15/8 35/18/8
f 38/5/7 37/19/7 40/20/7 39/6/7
f 42/21/6 41/8/6 44/7/6 43/22/6
f 46/13/5 45/23/5 48/24/5 47/14/5
f 34/25/14 37/26/14 50/27/14 49/28/14
f 40/29/13 35/30/13 51/31/13 52/32/13
f 38/33/12 41/34/12 54/35/12 53/36/12
f 44/37/11 39/38/11 55/39/11 56/40/11
f 42/41/10 45/42/10 58/43/10 57/44/10
f 48/45/9 43/46/9 59/47/9 60/48/9
f 46/49/16 33/50/16 62/51/16 61/52/16
f 36/53/15 47/54/15 63/55/15 64/56/15
f 33/50/24 34/25/24 49/28/24 62/51/24
f 35/30/23 36/53/23 64/56/23 51/31/23
f 37/26/22 38/33/22 53/36/22 50/27/22
f 39/38/21 40/29/21 52/32/21 55/39/21
f 41/34/25 42/41/25 57/44/25 54/35/25
f 43/46/26 44/37/26 56/40/26 59/47/26
f 45/42/18 46/49/18 61/52/18 58/43/18
f 47/54/17 48/45/17 60/48/17 63/55/17
f 50/57/5 53/58/5 55/59/5 52/60/5
f 53/58/4 54/61/4 56/62/4 55/59/4
f 54/61/8 57/63/8 59/64/8 56/62/8
f 57/65/3 58/66/3 60/67/3 59/68/3
f 58/69/7 61/70/7 63/71/7 60/72/7
f 61/70/2 62/73/2 64/74/2 63/71/2
f 62/73/6 49/75/6 51/76/6 64/74/6
f 49/77/1 50/78/1 52/79/1 51/80/1
f 66/1/27 67/2/27 72/3/27 69/4/27
f 70/5/2 71/6/2 76/7/2 73/8/2
f 74/9/28 75/10/28 80/11/28 77/12/28
f 78/13/4 79/14/4 68/15/4 65/16/4
f 66/17/29 65/16/29 68/15/29 67/18/29
f 70/5/30 69/19/30 72/20/30 71/6/30
f 74/21/31 73/8/31 76/7/31 75/22/31
f 78/13/32 77/23/32 80/24/32 79/14/32
f 66/25/33 69/26/33 82/27/33 81/28/33
f 72/29/34 67/30/34 83/31/34 84/32/34
f 70/33/35 73/34/35 86/35/35 85/36/35
f 76/37/36 71/38/36 87/39/36 88/40/36
f 74/41/37 77/42/37 90/43/37 89/44/37
f 80/45/38 75/46/38 91/47/38 92/48/38
f 78/49/39 65/50/39 94/51/39 93/52/39
f 68/53/40 79/54/40 95/55/40 96/56/40
f 65/50/41 66/25/41 81/28/41 94/51/41
f 67/30/42 68/53/42 96/56/42 83/31/42
f 69/26/43 70/33/43 85/36/43 82/27/43
f 71/38/44 72/29/44 84/32/44 87/39/44
f 73/34/45 74/41/45 89/44/45 86/35/45
f 75/46/46 76/37/46 88/40/46 91/47/46
f 77/42/47 78/49/47 93/52/47 90/43/47
f 79/54/48 80/45/48 92/48/48 95/55/48
f 82/57/32 85/58/32 87/59/32 84/60/32
f 85/58/4 86/61/4 88/62/4 87/59/4
f 86/61/29 89/63/29 91/64/29 88/62/29
f 89/65/27 90/66/27 92/67/27 91/68/27
f 90/69/30 93/70/30 95/71/30 92/72/30
f 93/70/2 94/73/2 96/74/2 95/71/2
f 94/73/31 81/75/31 83/76/31 96/74/31
f 81/77/28 82/78/28 84/79/28 83/80/28
f 98/1/49 99/2/49 104/3/49 101/4/49
f 102/5/50 103/6/50 108/7/50 105/8/50
f 106/9/51 107/10/51 112/11/51 109/12/51
f 110/13/52 111/14/52 100/15/52 97/16/52
f 98/17/53 97/16/53 100/15/53 99/18/53
f 102/5/54 101/19/54 104/20/54 103/6/54
f 106/21/55 105/8/55 108/7/55 107/22/55
f 110/13/56 109/23/56 112/24/56 111/14/56
f 98/25/57 101/26/57 114/27/57 113/28/57
f 104/29/58 99/30/58 115/31/58 116/32/58
f 102/33/59 105/34/59 118/35/59 117/36/59
f 108/37/60 103/38/60 119/39/60 120/40/60
f 106/41/61 109/42/61 122/43/61 121/44/61
f 112/45/62 107/46/62 123/47/62 124/48/62
f 110/49/63 97/50/63 126/51/63 125/52/63
f 100/53/64 111/54/64 127/55/64 128/56/64
f 97/50/65 98/25/65 113/28/65 126/51/65
f 99/30/66 100/53/66 128/56/66 115/31/66
f 101/26/67 102/33/67 117/36/67 114/27/67
f 103/38/68 104/29/68 116/32/68 119/39/68
f 105/34/69 106/41/69 121/44/69 118/35/69
f 107/46/70 108/37/70 120/40/70 123/47/70
f 109/42/71 110/49/71 125/52/71 122/43/71
f 111/54/72 112/45/72 124/48/72 127/55/72
f 114/57/56 117/58/56 119/59/56 116/60/56
f 117/58/52 118/61/52 120/62/52 119/59/52
f 118/61/53 121/63/53 123/64/53 120/62/53
f 121/65/49 122/66/49 124/67/49 123/68/49
f 122/69/54 125/70/54 127/71/54 124/72/54
f 125/70/50 126/73/50 128/74/50 127/71/50
f 126/73/55 113/75/55 115/76/55 128/74/55
f 113/77/51 114/78/51 116/79/51 115/80/51
f 130/1/73 131/2/73 136/3/73 133/4/73
f 134/5/74 135/6/74 140/7/74 137/8/74
f 138/9/75 139/10/75 144/11/75 141/12/75
f 142/13/76 143/14/76 132/15/76 129/16/76
f 130/17/77 129/16/77 132/15/77 131/18/77
f 134/5/78 133/19/78 136/20/78 135/6/78
f 138/21/79 137/8/79 140/7/79 139/22/79
f 142/13/80 141/23/80 144/24/80 143/14/80
f 130/25/81 133/26/81 146/27/81 145/28/81
f 136/29/82 131/30/82 147/31/82 148/32/82
f 134/33/83 137/34/83 150/35/83 149/36/83
f 140/37/84 135/38/84 151/39/84 152/40/84
f 138/41/85 141/42/85 154/43/85 153/44/85
f 144/45/86 139/46/86 155/47/86 156/48/86
f 142/49/87 129/50/87 158/51/87 157/52/87
f 132/53/88 143/54/88 159/55/88 160/56/88
f 129/50/89 130/25/89 145/28/89 158/51/89
f 131/30/90 132/53/90 160/56/90 147/31/90
f 133/26/91 134/33/91 149/36/91 146/27/91
f 135/38/92 136/29/92 148/32/92 151/39/92
f 137/34/93 138/41/93 153/44/93 150/35/93
f 139/46/94 140/37/94 152/40/94 155/47/94
f 141/42/95 142/49/95 157/52/95 154/43/95
f 143/54/96 144/45/96 156/48/96 159/55/96
f 146/57/80 149/58/80 151/59/80 148/60/80
f 149/58/76 150/61/76 152/62/76 151/59/76
f 150/61/77 153/63/77 155/64/77 152/62/77
f 153/65/73 154/66/73 156/67/73 155/68/73
f 154/69/78 157/70/78 159/71/78 156/72/78
f 157/70/74 158/73/74 160/74/74 159/71/74
f 158/73/79 145/75/79 147/76/79 160/74/79
f 145/77/75 146/78/75 148/79/75 147/80/75
f 162/1/97 163/2/97 168/3/97 165/4/97
f 166/5/50 167/6/50 172/7/50 169/8/50
f 170/9/98 171/10/98 176/11/98 173/12/98
f 174/13/52 175/14/52 164/15/52 161/16/52
f 162/17/99 161/16/99 164/15/99 163/18/99
f 166/5/100 165/19/100 168/20/100 167/6/100
f 170/21/101 169/8/101 172/7/101 171/22/101
f 174/13/102 173/23/102 176/24/102 175/14/102
f 162/25/103 165/26/103 178/27/103 177/28/103
f 168/29/104 163/30/104 179/31/104 180/32/104
f 166/33/105 169/34/105 182/35/105 181/36/105
f 172/37/106 167/38/106 183/39/106 184/40/106
f 170/41/107 173/42/107 186/43/107 185/44/107
f 176/45/108 171/46/108 187/47/108 188/48/108
f 174/49/109 161/50/109 190/51/109 189/52/109
f 164/53/110 175/54/110 191/55/110 192/56/110
f 161/50/111 162/25/111 177/28/111 190/51/111
f 163/30/112 164/53/112 192/56/112 179/31/112
f 165/26/113 166/33/113 181/36/113 178/27/113
f 167/38/114 168/29/114 180/32/114 183/39/114
f 169/34/115 170/41/115 185/44/115 182/35/115
f 171/46/116 172/37/116 184/40/116 187/47/116
f 173/42/117 174/49/117 189/52/117 186/43/117
f 175/54/118 176/45/118 188/48/118 191/55/118
f 178/57/102 181/58/102 183/59/102 180/60/102
f 181/58/52 182/61/52 184/62/52 183/59/52
f 182/61/99 185/63/99 187/64/99 184/62/99
f 185/65/97 186/66/97 188/67/97 187/68/97
f 186/69/100 189/70/100 191/71/100 188/72/100
f 189/70/50 190/73/50 192/74/50 191/71/50
f 190/73/101 177/75/101 179/76/101 192/74/101
f 177/77/98 178/78/98 180/79/98 179/80/98
f 194/1/119 195/2/119 200/3/119 197/4/119
f 198/5/120 199/6/120 204/7/120 201/8/120
f 202/9/121 203/10/121 208/11/121 205/12/121
f 206/13/122 207/14/122 196/15/122 193/16/122
f 194/17/123 193/16/123 196/15/123 195/18/123
f 198/5/124 197/19/124 200/20/124 199/6/124
f 202/21/125 201/8/125 204/7/125 203/22/125
f 206/13/126 205/23/126 208/24/126 207/14/126
f 194/25/127 197/26/127 210/27/127 209/28/127
f 200/29/128 195/30/128 211/31/128 212/32/128
f 198/33/129 201/34/129 214/35/129 213/36/129
f 204/37/130 199/38/130 215/39/130 216/40/130
f 202/41/131 205/42/131 218/43/131 217/44/131
f 208/45/132 203/46/132 219/47/132 220/48/132
f 206/49/133 193/50/133 222/51/133 221/52/133
f 196/53/134 207/54/134 223/55/134 224/56/134
f 193/50/135 194/25/135 209/28/135 222/51/135
f 195/30/136 196/53/136 224/56/136 211/31/136
f 197/26/137 198/33/137 213/36/137 210/27/137
f 199/38/138 200/29/138 212/32/138 215/39/138
f 201/34/139 202/41/139 217/44/139 214/35/139
f 203/46/140 204/37/140 216/40/140 219/47/140
f 205/42/141 206/49/141 221/52/141 218/43/141
f 207/54/142 208/45/142 220/48/142 223/55/142
f 210/57/126 213/58/126 215/59/126 212/60/126
f 213/58/122 214/61/122 216/62/122 215/59/122
f 214/61/123 217/63/123 219/64/123 216/62/123
f 217/65/119 218/66/119 220/67/119 219/68/119
f 218/69/124 221/70/124 223/71/124 220/72/124
f 221/70/120 222/73/120 224/74/120 223/71/120
f 222/73/125 209/75/125 211/76/125 224/74/125
f 209/77/121 210/78/121 212/79/121 211/80/121
f 226/1/143 227/2/143 232/3/143 229/4/143
f 230/5/120 231/6/120 236/7/120 233/8/120
f 234/9/144 235/10/144 240/11/144 237/12/144
f 238/13/122 239/14/122 228/15/122 225/16/122
f 226/17/145 225/16/145 228/15/145 227/18/145
f 230/5/146 229/19/146 232/20/146 231/6/146
f 234/21/147 233/8/147 236/7/147 235/22/147
f 238/13/148 237/23/148 240/24/148 239/14/148
f 226/25/149 229/26/149 242/27/149 241/28/149
f 232/29/150 227/30/150 243/31/150 244/32/150
f 230/33/151 233/34/151 246/35/151 245/36/151
f 236/37/152 231/38/152 247/39/152 248/40/152
f 234/41/153 237/42/153 250/43/153 249/44/153
f 240/45/154 235/46/154 251/47/154 252/48/154
f 238/49/155 225/50/155 254/51/155 253/52/155
f 228/53/156 239/54/156 255/55/156 256/56/156
f 225/50/157 226/25/157 241/28/157 254/51/157
f 227/30/158 228/53/158 256/56/158 243/31/158
f 229/26/159 230/33/159 245/36/159 242/27/159
f 231/38/160 232/29/160 244/32/160 247/39/160
f 233/34/161 234/41/161 249/44/161 246/35/161
f 235/46/162 236/37/162 248/40/162 251/47/162
f 237/42/163 238/49/163 253/52/163 250/43/163
f 239/54/164 240/45/164 252/48/164 255/55/164
f 242/57/148 245/58/148 247/59/148 244/60/148
f 245/58/122 246/61/122 248/62/122 247/59/122
f 246/61/145 249/63/145 251/64/145 248/62/145
f 249/65/143 250/66/143 252/67/143 251/68/143
f 250/69/146 253/70/146 255/71/146 252/72/146
f 253/70/120 254/73/120 256/74/120 255/71/120
f 254/73/147 241/75/147 243/76/147 256/74/147
f 241/77/144 242/78/144 244/79/144 243/80/144
