# Blender 4.0.2
# www.blender.org
mtllib Pot.mtl
o Pot
v 0.106529 0.000000 0.498978
v 0.090619 0.000000 0.467752
v 0.065839 0.000000 0.442972
v 0.034613 0.000000 0.427062
v 0.000000 0.000000 0.421580
v -0.034613 0.000000 0.427062
v -0.065839 0.000000 0.442972
v -0.090619 0.000000 0.467752
v -0.106529 0.000000 0.498978
v -0.112011 0.000000 0.533591
v -0.106529 0.000000 0.568205
v -0.090619 0.000000 0.599430
v -0.065839 0.000000 0.624211
v -0.034613 0.000000 0.640121
v -0.000000 0.000000 0.645603
v 0.034613 0.000000 0.640121
v 0.065839 0.000000 0.624211
v 0.090619 0.000000 0.599430
v 0.106529 0.000000 0.568204
v 0.112011 0.000000 0.533591
v 0.052256 0.258522 0.516612
v 0.044452 0.258522 0.501295
v 0.032296 0.258522 0.489139
v 0.016979 0.258522 0.481335
v -0.000000 0.258522 0.478646
v -0.016979 0.258522 0.481335
v -0.032296 0.258522 0.489139
v -0.044452 0.258522 0.501295
v -0.052256 0.258522 0.516612
v -0.054945 0.258522 0.533591
v -0.052256 0.258522 0.550570
v -0.044452 0.258522 0.565887
v -0.032296 0.258522 0.578043
v -0.016979 0.258522 0.585848
v -0.000000 0.258522 0.588537
v 0.016979 0.258522 0.585848
v 0.032296 0.258522 0.578043
v 0.044452 0.258522 0.565887
v 0.052256 0.258522 0.550570
v 0.054945 0.258522 0.533591
v 0.118916 0.203777 0.533591
v 0.128100 0.073761 0.533591
v 0.121830 0.073761 0.573176
v 0.113096 0.203777 0.570338
v 0.103635 0.073761 0.608886
v 0.096205 0.203777 0.603488
v 0.075295 0.073761 0.637226
v 0.069897 0.203777 0.629796
v 0.039585 0.073761 0.655421
v 0.036747 0.203777 0.646687
v -0.000000 0.073761 0.661691
v -0.000000 0.203777 0.652507
v -0.039585 0.073761 0.655421
v -0.036747 0.203777 0.646687
v -0.075295 0.073761 0.637226
v -0.069897 0.203777 0.629796
v -0.103635 0.073761 0.608886
v -0.096205 0.203777 0.603488
v -0.121830 0.073761 0.573176
v -0.113096 0.203777 0.570338
v -0.128100 0.073761 0.533591
v -0.118916 0.203777 0.533591
v -0.121830 0.073761 0.494006
v -0.113096 0.203777 0.496844
v -0.103635 0.073761 0.458296
v -0.096205 0.203777 0.463694
v -0.075295 0.073761 0.429956
v -0.069897 0.203777 0.437386
v -0.039585 0.073761 0.411761
v -0.036747 0.203777 0.420495
v 0.000000 0.073761 0.405492
v 0.000000 0.203777 0.414675
v 0.039585 0.073761 0.411761
v 0.036747 0.203777 0.420495
v 0.075295 0.073761 0.429956
v 0.069897 0.203777 0.437386
v 0.103635 0.073761 0.458296
v 0.096205 0.203777 0.463694
v 0.121830 0.073761 0.494006
v 0.113096 0.203777 0.496844
v -0.000000 0.304341 0.533591
v 0.065474 0.295178 0.512317
v 0.060497 0.304341 0.513934
v 0.051462 0.304341 0.496202
v 0.055696 0.295178 0.493126
v 0.037389 0.304341 0.482129
v 0.040465 0.295178 0.477896
v 0.019657 0.304341 0.473094
v 0.021274 0.295178 0.468117
v -0.000000 0.304341 0.469981
v -0.000000 0.295178 0.464748
v -0.019657 0.304341 0.473094
v -0.021274 0.295178 0.468117
v -0.037389 0.304341 0.482129
v -0.040465 0.295178 0.477896
v -0.051462 0.304341 0.496202
v -0.055696 0.295178 0.493126
v -0.060497 0.304341 0.513934
v -0.065474 0.295178 0.512317
v -0.063610 0.304341 0.533591
v -0.068844 0.295178 0.533591
v -0.060497 0.304341 0.553248
v -0.065474 0.295178 0.554865
v -0.051462 0.304341 0.570980
v -0.055696 0.295178 0.574056
v -0.037389 0.304341 0.585053
v -0.040465 0.295178 0.589287
v -0.019657 0.304341 0.594088
v -0.021274 0.295178 0.599065
v -0.000000 0.304341 0.597202
v -0.000000 0.295178 0.602435
v 0.019657 0.304341 0.594088
v 0.021274 0.295178 0.599065
v 0.037389 0.304341 0.585053
v 0.040465 0.295178 0.589287
v 0.051462 0.304341 0.570980
v 0.055696 0.295178 0.574056
v 0.060497 0.304341 0.553248
v 0.065474 0.295178 0.554865
v 0.063610 0.304341 0.533591
v 0.068844 0.295178 0.533591
vn 0.9995 -0.0311 -0.0000
vn 0.9506 -0.0311 0.3089
vn 0.9292 -0.2131 0.3019
vn 0.9770 -0.2131 -0.0000
vn 0.9564 0.2921 -0.0000
vn 0.9096 0.2921 0.2955
vn 0.6502 0.7598 -0.0000
vn 0.6184 0.7598 0.2009
vn 0.7737 0.2921 0.5622
vn 0.5260 0.7598 0.3822
vn 0.5621 0.2921 0.7738
vn 0.3822 0.7598 0.5260
vn 0.2955 0.2921 0.9096
vn 0.2009 0.7598 0.6184
vn -0.0000 0.2921 0.9564
vn -0.0000 0.7598 0.6502
vn -0.2956 0.2921 0.9096
vn -0.2009 0.7598 0.6184
vn -0.5622 0.2921 0.7737
vn -0.3822 0.7598 0.5260
vn -0.7737 0.2921 0.5622
vn -0.5260 0.7598 0.3822
vn -0.9096 0.2921 0.2955
vn -0.6184 0.7598 0.2009
vn -0.9564 0.2921 -0.0000
vn -0.6502 0.7598 -0.0000
vn -0.9096 0.2921 -0.2956
vn -0.6184 0.7598 -0.2009
vn -0.7737 0.2921 -0.5622
vn -0.5260 0.7598 -0.3822
vn -0.5621 0.2921 -0.7737
vn -0.3822 0.7598 -0.5260
vn -0.2955 0.2921 -0.9096
vn -0.2009 0.7598 -0.6184
vn -0.0000 0.2921 -0.9564
vn -0.0000 0.7598 -0.6502
vn 0.2956 0.2921 -0.9096
vn 0.2009 0.7598 -0.6184
vn 0.5622 0.2921 -0.7737
vn 0.3822 0.7598 -0.5260
vn 0.7737 0.2921 -0.5622
vn 0.5260 0.7598 -0.3822
vn 0.9096 0.2921 -0.2955
vn 0.6184 0.7598 -0.2009
vn 0.8086 -0.0310 0.5875
vn 0.7904 -0.2131 0.5743
vn 0.5875 -0.0310 0.8086
vn 0.5743 -0.2131 0.7904
vn 0.3089 -0.0310 0.9506
vn 0.3019 -0.2131 0.9292
vn -0.0000 -0.0310 0.9995
vn -0.0000 -0.2131 0.9770
vn -0.3089 -0.0310 0.9506
vn -0.3019 -0.2131 0.9292
vn -0.5875 -0.0310 0.8086
vn -0.5743 -0.2131 0.7904
vn -0.8086 -0.0310 0.5875
vn -0.7904 -0.2131 0.5743
vn -0.9506 -0.0311 0.3089
vn -0.9292 -0.2131 0.3019
vn -0.9995 -0.0311 -0.0000
vn -0.9770 -0.2131 -0.0000
vn -0.9506 -0.0311 -0.3089
vn -0.9292 -0.2131 -0.3019
vn -0.8086 -0.0311 -0.5875
vn -0.7904 -0.2131 -0.5743
vn -0.5875 -0.0311 -0.8086
vn -0.5743 -0.2131 -0.7904
vn -0.3089 -0.0311 -0.9506
vn -0.3019 -0.2131 -0.9292
vn -0.0000 -0.0311 -0.9995
vn -0.0000 -0.2131 -0.9770
vn 0.3089 -0.0311 -0.9506
vn 0.3019 -0.2131 -0.9292
vn 0.5875 -0.0311 -0.8086
vn 0.5743 -0.2131 -0.7904
vn 0.8086 -0.0311 -0.5875
vn 0.7904 -0.2131 -0.5743
vn 0.9506 -0.0310 -0.3089
vn 0.9292 -0.2131 -0.3019
vn 0.8259 0.4959 -0.2683
vn 0.8684 0.4959 -0.0000
vn 0.7025 0.4959 -0.5104
vn 0.5104 0.4959 -0.7025
vn 0.2683 0.4959 -0.8259
vn -0.0000 0.4959 -0.8684
vn -0.2683 0.4959 -0.8259
vn -0.5104 0.4959 -0.7025
vn -0.7025 0.4959 -0.5104
vn -0.8259 0.4959 -0.2683
vn -0.8684 0.4959 -0.0000
vn -0.8259 0.4959 0.2683
vn -0.7025 0.4959 0.5104
vn -0.5104 0.4959 0.7025
vn -0.2683 0.4959 0.8259
vn -0.0000 0.4959 0.8684
vn 0.2683 0.4959 0.8259
vn 0.5104 0.4959 0.7025
vn 0.7025 0.4959 0.5104
vn 0.8259 0.4959 0.2683
vn -0.0000 1.0000 -0.0000
vn 0.8893 -0.3545 -0.2889
vn 0.7565 -0.3545 -0.5496
vn 0.5496 -0.3545 -0.7565
vn 0.2889 -0.3545 -0.8893
vn -0.0000 -0.3545 -0.9350
vn -0.2889 -0.3545 -0.8893
vn -0.5496 -0.3545 -0.7565
vn -0.7565 -0.3545 -0.5496
vn -0.8893 -0.3545 -0.2889
vn -0.9350 -0.3545 -0.0000
vn -0.8893 -0.3545 0.2889
vn -0.7565 -0.3545 0.5496
vn -0.5496 -0.3545 0.7565
vn -0.2889 -0.3545 0.8893
vn -0.0000 -0.3545 0.9350
vn 0.2889 -0.3545 0.8893
vn 0.5496 -0.3545 0.7565
vn 0.7565 -0.3545 0.5496
vn 0.8893 -0.3545 0.2889
vn 0.9350 -0.3545 -0.0000
vt 0.152992 0.600478
vt 0.137289 0.600478
vt 0.139262 0.571218
vt 0.152992 0.571218
vt 0.152992 0.652053
vt 0.138415 0.652053
vt 0.152992 0.673770
vt 0.146258 0.673770
vt 0.125264 0.652053
vt 0.140181 0.673770
vt 0.477587 0.849375
vt 0.488411 0.838551
vt 0.503884 0.859846
vt 0.498882 0.864848
vt 0.470637 0.863016
vt 0.495671 0.871149
vt 0.468242 0.878137
vt 0.494563 0.878137
vt 0.470637 0.893258
vt 0.495671 0.885124
vt 0.477587 0.906899
vt 0.498882 0.891426
vt 0.488411 0.917723
vt 0.503884 0.896428
vt 0.251710 0.657028
vt 0.264860 0.657028
vt 0.249944 0.678744
vt 0.243868 0.678744
vt 0.237133 0.657028
vt 0.237133 0.678744
vt 0.222555 0.657028
vt 0.230397 0.678744
vt 0.209406 0.657028
vt 0.224322 0.678744
vt 0.742011 0.906873
vt 0.731187 0.917697
vt 0.715714 0.896403
vt 0.720717 0.891401
vt 0.748962 0.893233
vt 0.723927 0.885099
vt 0.751356 0.878112
vt 0.725035 0.878112
vt 0.748962 0.862990
vt 0.723927 0.871124
vt 0.742011 0.849350
vt 0.720717 0.864823
vt 0.731187 0.838526
vt 0.715714 0.859820
vt 0.167570 0.652053
vt 0.180720 0.652053
vt 0.165803 0.673770
vt 0.159728 0.673770
vt 0.123124 0.600478
vt 0.126875 0.571218
vt 0.114830 0.652053
vt 0.111882 0.600478
vt 0.117045 0.571218
vt 0.068743 0.803523
vt 0.066741 0.851742
vt 0.054446 0.851742
vt 0.055499 0.803523
vt 0.053656 0.776167
vt 0.065236 0.776167
vt 0.040818 0.851742
vt 0.040818 0.803523
vt 0.040818 0.776167
vt 0.027190 0.851742
vt 0.026137 0.803523
vt 0.027981 0.776167
vt 0.014895 0.851742
vt 0.012893 0.803523
vt 0.016401 0.776167
vt 0.278243 0.605453
vt 0.275296 0.657028
vt 0.267001 0.605453
vt 0.263250 0.576192
vt 0.273080 0.576192
vt 0.252835 0.605453
vt 0.250863 0.576192
vt 0.237133 0.605453
vt 0.237133 0.576192
vt 0.221430 0.605453
vt 0.223402 0.576192
vt 0.207264 0.605453
vt 0.211015 0.576192
vt 0.198969 0.657028
vt 0.196023 0.605453
vt 0.201186 0.576192
vt 0.280163 0.817312
vt 0.282166 0.769093
vt 0.294460 0.769093
vt 0.293408 0.817312
vt 0.295251 0.844668
vt 0.283671 0.844668
vt 0.308089 0.769093
vt 0.308089 0.817312
vt 0.308089 0.844668
vt 0.321717 0.769093
vt 0.322770 0.817312
vt 0.320926 0.844668
vt 0.334012 0.769093
vt 0.336014 0.817312
vt 0.332507 0.844668
vt 0.194102 0.600478
vt 0.191155 0.652053
vt 0.182861 0.600478
vt 0.179110 0.571218
vt 0.188939 0.571218
vt 0.168695 0.600478
vt 0.166722 0.571218
vt 0.161432 0.688311
vt 0.160789 0.691946
vt 0.152992 0.691946
vt 0.152992 0.688311
vt 0.169044 0.688311
vt 0.167824 0.691946
vt 0.175086 0.688311
vt 0.173406 0.691946
vt 0.483090 0.645608
vt 0.486612 0.644426
vt 0.486612 0.651804
vt 0.483090 0.652425
vt 0.486612 0.659981
vt 0.483090 0.659981
vt 0.486612 0.668159
vt 0.483090 0.667538
vt 0.486612 0.675537
vt 0.483090 0.674355
vt 0.216718 0.696920
vt 0.215039 0.693285
vt 0.221081 0.693285
vt 0.222301 0.696920
vt 0.228694 0.693285
vt 0.229335 0.696920
vt 0.237133 0.693285
vt 0.237133 0.696920
vt 0.245572 0.693285
vt 0.244930 0.696920
vt 0.253184 0.693285
vt 0.251964 0.696920
vt 0.259226 0.693285
vt 0.257547 0.696920
vt 0.277979 0.691414
vt 0.274456 0.692596
vt 0.274456 0.685219
vt 0.277979 0.684597
vt 0.274456 0.677041
vt 0.277979 0.677041
vt 0.274456 0.668863
vt 0.277979 0.669485
vt 0.274456 0.661486
vt 0.277979 0.662668
vt 0.132579 0.691946
vt 0.130899 0.688311
vt 0.136940 0.688311
vt 0.138160 0.691946
vt 0.144552 0.688311
vt 0.145195 0.691946
vt 0.329746 0.845777
vt 0.336090 0.849009
vt 0.322715 0.867419
vt 0.341123 0.854044
vt 0.344356 0.860387
vt 0.345469 0.867419
vt 0.344356 0.874450
vt 0.341123 0.880793
vt 0.336090 0.885827
vt 0.329746 0.889060
vt 0.322715 0.890172
vt 0.315684 0.889060
vt 0.309340 0.885827
vt 0.304307 0.880793
vt 0.301074 0.874450
vt 0.299961 0.867419
vt 0.301074 0.860387
vt 0.304307 0.854044
vt 0.309340 0.849009
vt 0.315684 0.845777
vt 0.322715 0.844665
vt 0.170626 0.673770
vt 0.500703 0.647566
vt 0.500703 0.653453
vt 0.500703 0.659981
vt 0.500703 0.666509
vt 0.500703 0.672397
vt 0.219499 0.678744
vt 0.254766 0.678744
vt 0.260365 0.689456
vt 0.260365 0.683568
vt 0.260365 0.677041
vt 0.260365 0.670514
vt 0.260365 0.664626
vt 0.135358 0.673770
s 1
usemtl M_Props02
f 42/1/1 43/2/2 19/3/3 20/4/4
f 42/1/1 41/5/5 44/6/6 43/2/2
f 44/6/6 41/5/5 40/7/7 39/8/8
f 46/9/9 44/6/6 39/8/8 38/10/10
f 48/11/11 46/12/9 38/13/10 37/14/12
f 50/15/13 48/11/11 37/14/12 36/16/14
f 52/17/15 50/15/13 36/16/14 35/18/16
f 54/19/17 52/17/15 35/18/16 34/20/18
f 56/21/19 54/19/17 34/20/18 33/22/20
f 58/23/21 56/21/19 33/22/20 32/24/22
f 60/25/23 58/26/21 32/27/22 31/28/24
f 62/29/25 60/25/23 31/28/24 30/30/26
f 64/31/27 62/29/25 30/30/26 29/32/28
f 66/33/29 64/31/27 29/32/28 28/34/30
f 68/35/31 66/36/29 28/37/30 27/38/32
f 70/39/33 68/35/31 27/38/32 26/40/34
f 72/41/35 70/39/33 26/40/34 25/42/36
f 74/43/37 72/41/35 25/42/36 24/44/38
f 76/45/39 74/43/37 24/44/38 23/46/40
f 78/47/41 76/45/39 23/46/40 22/48/42
f 80/49/43 78/50/41 22/51/42 21/52/44
f 41/5/5 80/49/43 21/52/44 40/7/7
f 43/2/2 44/6/6 46/9/9 45/53/45
f 43/2/2 45/53/45 18/54/46 19/3/3
f 45/53/45 46/9/9 48/55/11 47/56/47
f 45/53/45 47/56/47 17/57/48 18/54/46
f 47/58/47 48/59/11 50/60/13 49/61/49
f 47/58/47 49/61/49 16/62/50 17/63/48
f 49/61/49 50/60/13 52/64/15 51/65/51
f 49/61/49 51/65/51 15/66/52 16/62/50
f 51/65/51 52/64/15 54/67/17 53/68/53
f 51/65/51 53/68/53 14/69/54 15/66/52
f 53/68/53 54/67/17 56/70/19 55/71/55
f 53/68/53 55/71/55 13/72/56 14/69/54
f 55/73/55 56/74/19 58/26/21 57/75/57
f 55/73/55 57/75/57 12/76/58 13/77/56
f 57/75/57 58/26/21 60/25/23 59/78/59
f 57/75/57 59/78/59 11/79/60 12/76/58
f 59/78/59 60/25/23 62/29/25 61/80/61
f 59/78/59 61/80/61 10/81/62 11/79/60
f 61/80/61 62/29/25 64/31/27 63/82/63
f 61/80/61 63/82/63 9/83/64 10/81/62
f 63/82/63 64/31/27 66/33/29 65/84/65
f 63/82/63 65/84/65 8/85/66 9/83/64
f 65/84/65 66/33/29 68/86/31 67/87/67
f 65/84/65 67/87/67 7/88/68 8/85/66
f 67/89/67 68/90/31 70/91/33 69/92/69
f 67/89/67 69/92/69 6/93/70 7/94/68
f 69/92/69 70/91/33 72/95/35 71/96/71
f 69/92/69 71/96/71 5/97/72 6/93/70
f 71/96/71 72/95/35 74/98/37 73/99/73
f 71/96/71 73/99/73 4/100/74 5/97/72
f 73/99/73 74/98/37 76/101/39 75/102/75
f 73/99/73 75/102/75 3/103/76 4/100/74
f 75/104/75 76/105/39 78/50/41 77/106/77
f 75/104/75 77/106/77 2/107/78 3/108/76
f 77/106/77 78/50/41 80/49/43 79/109/79
f 77/106/77 79/109/79 1/110/80 2/107/78
f 41/5/5 42/1/1 79/109/79 80/49/43
f 79/109/79 42/1/1 20/4/4 1/110/80
f 82/111/81 83/112/81 120/113/82 121/114/82
f 83/112/81 82/111/81 85/115/83 84/116/83
f 84/116/83 85/115/83 87/117/84 86/118/84
f 86/119/84 87/120/84 89/121/85 88/122/85
f 88/122/85 89/121/85 91/123/86 90/124/86
f 90/124/86 91/123/86 93/125/87 92/126/87
f 92/126/87 93/125/87 95/127/88 94/128/88
f 94/129/88 95/130/88 97/131/89 96/132/89
f 96/132/89 97/131/89 99/133/90 98/134/90
f 98/134/90 99/133/90 101/135/91 100/136/91
f 100/136/91 101/135/91 103/137/92 102/138/92
f 102/138/92 103/137/92 105/139/93 104/140/93
f 104/140/93 105/139/93 107/141/94 106/142/94
f 106/143/94 107/144/94 109/145/95 108/146/95
f 108/146/95 109/145/95 111/147/96 110/148/96
f 110/148/96 111/147/96 113/149/97 112/150/97
f 112/150/97 113/149/97 115/151/98 114/152/98
f 114/153/98 115/154/98 117/155/99 116/156/99
f 116/156/99 117/155/99 119/157/100 118/158/100
f 118/158/100 119/157/100 121/114/82 120/113/82
f 83/159/101 84/160/101 81/161/101
f 84/160/101 86/162/101 81/161/101
f 86/162/101 88/163/101 81/161/101
f 88/163/101 90/164/101 81/161/101
f 90/164/101 92/165/101 81/161/101
f 92/165/101 94/166/101 81/161/101
f 94/166/101 96/167/101 81/161/101
f 96/167/101 98/168/101 81/161/101
f 98/168/101 100/169/101 81/161/101
f 100/169/101 102/170/101 81/161/101
f 102/170/101 104/171/101 81/161/101
f 104/171/101 106/172/101 81/161/101
f 106/172/101 108/173/101 81/161/101
f 108/173/101 110/174/101 81/161/101
f 110/174/101 112/175/101 81/161/101
f 112/175/101 114/176/101 81/161/101
f 114/176/101 116/177/101 81/161/101
f 116/177/101 118/178/101 81/161/101
f 118/178/101 120/179/101 81/161/101
f 120/179/101 83/159/101 81/161/101
f 21/52/102 22/51/103 85/115/103 82/111/102
f 22/51/103 23/180/104 87/117/104 85/115/103
f 23/181/104 24/182/105 89/121/105 87/120/104
f 24/182/105 25/183/106 91/123/106 89/121/105
f 25/183/106 26/184/107 93/125/107 91/123/106
f 26/184/107 27/185/108 95/127/108 93/125/107
f 27/186/108 28/34/109 97/131/109 95/130/108
f 28/34/109 29/32/110 99/133/110 97/131/109
f 29/32/110 30/30/111 101/135/111 99/133/110
f 30/30/111 31/28/112 103/137/112 101/135/111
f 31/28/112 32/27/113 105/139/113 103/137/112
f 32/27/113 33/187/114 107/141/114 105/139/113
f 33/188/114 34/189/115 109/145/115 107/144/114
f 34/189/115 35/190/116 111/147/116 109/145/115
f 35/190/116 36/191/117 113/149/117 111/147/116
f 36/191/117 37/192/118 115/151/118 113/149/117
f 37/193/118 38/10/119 117/155/119 115/154/118
f 38/10/119 39/8/120 119/157/120 117/155/119
f 39/8/120 40/7/121 121/114/121 119/157/120
f 40/7/121 21/52/102 82/111/102 121/114/121
