# Blender 4.0.2
# www.blender.org
mtllib LeverBottom.mtl
o Leverbase
v -0.040590 0.028159 0.083768
v 0.042496 0.027266 0.083115
v -0.029614 0.046941 0.075070
v 0.031792 0.046280 0.074588
v -0.030773 0.047977 -0.073941
v 0.030633 0.047316 -0.074423
v -0.041885 0.029317 -0.082727
v 0.041201 0.028423 -0.083379
v -0.057020 -0.000119 0.107156
v 0.058680 -0.001364 0.106247
v -0.049326 0.030808 0.093536
v 0.051440 0.029724 0.092745
v -0.050771 0.032099 -0.092321
v 0.049994 0.031016 -0.093112
v -0.058680 0.001364 -0.106248
v 0.057020 0.000119 -0.107156
vn 0.0116 0.4146 0.9099
vn 0.0108 0.9999 0.0069
vn -0.0025 0.4272 -0.9041
vn 0.8720 0.4894 -0.0034
vn -0.8613 0.5081 0.0102
vn 0.0115 0.4006 0.9162
vn -0.0027 0.4133 -0.9106
vn 0.9745 0.2243 -0.0060
vn -0.9694 0.2453 0.0092
vt 0.004308 0.292441
vt 0.004308 0.190287
vt 0.027468 0.203615
vt 0.027468 0.279113
vt 0.855186 0.183132
vt 0.927091 0.183132
vt 0.927091 0.357616
vt 0.855186 0.357616
vt 0.768473 0.779268
vt 0.768473 0.703770
vt 0.791633 0.690442
vt 0.791633 0.792596
vt 0.968998 0.213682
vt 0.968998 0.004274
vt 0.992691 0.015269
vt 0.992691 0.202688
vt 0.952739 0.813298
vt 0.952739 0.603890
vt 0.976432 0.614884
vt 0.976432 0.802303
vt 0.931061 0.337959
vt 0.931061 0.196201
vt 0.968934 0.205351
vt 0.968934 0.328810
vt 0.795571 0.663329
vt 0.913565 0.663329
vt 0.913565 0.880958
vt 0.795571 0.880958
vt 0.941900 0.460109
vt 0.941900 0.336650
vt 0.979773 0.327501
vt 0.979773 0.469258
vt 0.914802 0.957078
vt 0.914802 0.703626
vt 0.951516 0.719984
vt 0.951516 0.940720
vt 0.914802 0.703663
vt 0.914802 0.450211
vt 0.951516 0.466569
vt 0.951516 0.687305
s 1
usemtl M_Props
f 1/1/1 2/2/1 4/3/1 3/4/1
f 3/5/2 4/6/2 6/7/2 5/8/2
f 5/9/3 6/10/3 8/11/3 7/12/3
f 2/13/4 8/14/4 6/15/4 4/16/4
f 7/17/5 1/18/5 3/19/5 5/20/5
f 9/21/6 10/22/6 12/23/6 11/24/6
f 11/25/2 12/26/2 14/27/2 13/28/2
f 13/29/7 14/30/7 16/31/7 15/32/7
f 10/33/8 16/34/8 14/35/8 12/36/8
f 15/37/9 9/38/9 11/39/9 13/40/9
