# Blender 4.0.2
# www.blender.org
mtllib LevelTop.mtl
o Lever
v -0.022084 0.028070 -0.021864
v 0.022084 0.028070 -0.021864
v -0.022084 -0.000476 0.021864
v 0.022084 -0.000476 0.021864
v -0.018712 0.154288 0.105239
v 0.018712 0.154288 0.105239
v -0.018712 0.166671 0.086270
v 0.018712 0.166671 0.086270
v -0.021759 0.149022 0.065078
v 0.021759 0.149022 0.065078
v -0.021759 0.127786 0.097609
v 0.021759 0.127786 0.097609
v -0.017724 0.187185 0.139352
v 0.017724 0.187185 0.139352
v -0.017724 0.211138 0.102660
v 0.016586 0.210410 0.103775
v -0.025492 0.173695 0.140092
v -0.028496 0.144916 0.121134
v -0.025492 0.206387 0.090012
v -0.028496 0.177451 0.071294
v 0.025492 0.173695 0.140092
v 0.028496 0.144916 0.121134
v 0.025089 0.205936 0.090306
v 0.028486 0.177366 0.071267
vn -0.0000 -0.4743 0.8804
vn -0.0000 0.8374 0.5466
vn -0.0000 0.6151 -0.7884
vn 0.9998 0.0161 0.0105
vn -0.9998 0.0161 0.0105
vn -0.0000 -0.8374 -0.5466
vn -0.2816 0.6521 0.7039
vn 0.2822 0.6550 0.7010
vn 0.2762 0.9062 0.3203
vn -0.2780 0.9085 0.3121
vn -0.7142 -0.2028 0.6699
vn -0.7215 -0.4756 0.5033
vn 0.7210 -0.4742 0.5053
vn 0.7125 -0.1973 0.6734
vn -0.7137 0.5370 -0.4498
vn -0.7221 0.2715 -0.6363
vn 0.7129 0.5379 -0.4500
vn 0.7213 0.2733 -0.6364
vn -0.6616 -0.6836 0.3083
vn 0.6609 -0.6840 0.3087
vn 0.6615 0.0069 -0.7499
vn -0.6622 0.0068 -0.7493
vt 0.860606 0.357616
vt 0.916863 0.357616
vt 0.912567 0.554736
vt 0.864902 0.554736
vt 0.912567 0.570507
vt 0.864902 0.570507
vt 0.009343 0.767220
vt 0.065213 0.767220
vt 0.070248 0.928654
vt 0.004308 0.928654
vt 0.153144 0.037688
vt 0.026520 0.199989
vt 0.004308 0.185489
vt 0.101939 0.004262
vt 0.130932 0.846107
vt 0.004308 0.683806
vt 0.055513 0.650380
vt 0.153144 0.831607
vt 0.357184 0.919728
vt 0.357184 0.860735
vt 0.385971 0.860735
vt 0.385971 0.919728
vt 0.599094 0.832116
vt 0.648088 0.832116
vt 0.646515 0.881288
vt 0.599094 0.882829
vt 0.241368 0.905844
vt 0.237351 0.867374
vt 0.313535 0.867374
vt 0.309518 0.905844
vt 0.851817 0.061073
vt 0.874506 0.095516
vt 0.814572 0.134641
vt 0.792171 0.100011
vt 0.584206 0.926180
vt 0.588359 0.900310
vt 0.658268 0.899904
vt 0.662962 0.926219
vt 0.670920 0.844351
vt 0.693637 0.809866
vt 0.753390 0.848750
vt 0.730576 0.882983
vt 0.873621 0.111660
vt 0.829709 0.140326
vt 0.251750 0.923877
vt 0.299135 0.923877
vt 0.671807 0.860515
vt 0.714437 0.888344
vt 0.246357 0.844476
vt 0.304529 0.844476
vt 0.318645 0.928861
vt 0.318760 0.851617
vt 0.760805 0.814786
vt 0.721826 0.789340
vt 0.784731 0.065987
vt 0.823663 0.040573
s 1
usemtl M_Props
f 3/1/1 4/2/1 6/3/1 5/4/1
f 5/4/2 6/3/2 8/5/2 7/6/2
f 7/7/3 8/8/3 2/9/3 1/10/3
f 2/11/4 8/12/4 6/13/4 4/14/4
f 7/15/5 1/16/5 3/17/5 5/18/5
f 9/19/6 10/20/6 12/21/6 11/22/6
f 13/23/7 14/24/8 16/25/9 15/26/10
f 17/27/11 18/28/12 22/29/13 21/30/14
f 18/31/12 17/32/11 19/33/15 20/34/16
f 20/35/16 19/36/15 23/37/17 24/38/18
f 21/39/14 22/40/13 24/41/18 23/42/17
f 17/32/11 13/43/7 15/44/10 19/33/15
f 13/45/7 17/27/11 21/30/14 14/46/8
f 14/47/8 21/39/14 23/42/17 16/48/9
f 19/36/15 15/26/10 16/25/9 23/37/17
f 11/49/19 12/50/20 22/29/13 18/28/12
f 20/51/16 24/52/18 10/20/21 9/19/22
f 10/53/21 24/41/18 22/40/13 12/54/20
f 20/34/16 9/55/22 11/56/19 18/31/12
