# Blender 4.0.2
# www.blender.org
mtllib Torch.mtl
o Torch
v -0.019658 0.068165 -0.023891
v -0.042413 0.062351 -0.032672
v -0.064514 0.056685 -0.022274
v -0.073015 0.054484 0.001212
v -0.062935 0.057038 0.024028
v -0.040180 0.062852 0.032809
v -0.018079 0.068519 0.022411
v -0.009579 0.070719 -0.001075
v -0.017083 0.096702 -0.034125
v -0.049584 0.088398 -0.046666
v -0.081151 0.080304 -0.031815
v -0.093293 0.077161 0.001730
v -0.078896 0.080810 0.034319
v -0.046395 0.089113 0.046860
v -0.014828 0.097207 0.032009
v -0.002686 0.100350 -0.001536
v -0.027734 0.100373 -0.024028
v -0.050653 0.094517 -0.032873
v -0.072913 0.088810 -0.022400
v -0.081475 0.086593 0.001255
v -0.071323 0.089166 0.024236
v -0.048404 0.095022 0.033080
v -0.026144 0.100729 0.022607
v -0.017582 0.102946 -0.001048
v -0.033943 0.073322 -0.010412
v -0.043906 0.070777 -0.014256
v -0.043417 0.070887 0.000078
v -0.053581 0.068296 -0.009704
v -0.057303 0.067333 0.000578
v -0.052890 0.068451 0.010567
v -0.042928 0.070997 0.014412
v -0.033252 0.073477 0.009859
v -0.029531 0.074441 -0.000423
v -0.001766 -0.134053 0.013194
v 0.019153 -0.128699 0.012440
v -0.050356 0.055832 0.013399
v -0.029438 0.061186 0.012645
v -0.051240 0.055634 -0.012509
v -0.030321 0.060988 -0.013263
v -0.002649 -0.134251 -0.012714
v 0.018270 -0.128897 -0.013468
v -0.017696 0.043592 -0.019421
v -0.036183 0.038869 -0.026555
v -0.054137 0.034265 -0.018108
v -0.061043 0.032477 0.000972
v -0.052855 0.034553 0.019508
v -0.034369 0.039276 0.026642
v -0.016414 0.043879 0.018194
v -0.009508 0.045667 -0.000886
v -0.015567 0.067188 -0.027884
v -0.042112 0.060407 -0.038127
v -0.067894 0.053796 -0.025997
v -0.077811 0.051229 0.001401
v -0.066053 0.054209 0.028017
v -0.039507 0.060991 0.038260
v -0.013725 0.067601 0.026130
v -0.003809 0.070168 -0.001267
v -0.035276 0.039072 0.000043
v -0.041963 0.065205 0.000072
v 0.024576 -0.124894 0.016026
v 0.008586 -0.128994 0.023549
v -0.007877 -0.133200 0.017196
v -0.015169 -0.135048 0.000689
v -0.009019 -0.133456 -0.016303
v 0.006970 -0.129356 -0.023826
v 0.023433 -0.125150 -0.017473
v 0.030726 -0.123302 -0.000966
v 0.027520 -0.148935 0.013103
v 0.014396 -0.152300 0.019277
v 0.000885 -0.155751 0.014063
v -0.005100 -0.157268 0.000515
v -0.000052 -0.155962 -0.013430
v 0.013071 -0.152597 -0.019604
v 0.026582 -0.149145 -0.014390
v 0.032567 -0.147628 -0.000843
v 0.007778 -0.129175 -0.000138
v 0.013734 -0.152448 -0.000164
v 0.092269 -0.111522 0.029109
v 0.092269 -0.082389 0.058242
v 0.110556 -0.131026 0.035299
v 0.110556 -0.095704 0.070621
v 0.092269 0.072091 0.029109
v 0.092269 0.042958 0.058242
v 0.110556 0.091594 0.035299
v 0.110556 0.056272 0.070621
v 0.092269 0.042958 -0.058302
v 0.092269 0.072091 -0.029169
v 0.110556 0.056272 -0.070681
v 0.110556 0.091594 -0.035359
v 0.092269 -0.111522 -0.029169
v 0.092269 -0.082389 -0.058302
v 0.110556 -0.131026 -0.035359
v 0.110556 -0.095704 -0.070681
v -0.022861 -0.000153 -0.000030
v 0.095003 -0.000153 -0.000030
v -0.022861 0.018514 0.009205
v 0.095003 0.018514 0.009205
v -0.022861 0.018514 -0.009265
v 0.095003 0.018514 -0.009265
v -0.000700 -0.085923 -0.000030
v 0.095003 -0.085923 -0.000030
v -0.000700 -0.067256 0.009204
v 0.095003 -0.067256 0.009204
v -0.000700 -0.067256 -0.009265
v 0.095003 -0.067256 -0.009265
vn 0.0841 -0.4536 -0.8872
vn 0.6765 0.1003 -0.7296
vn 0.7004 -0.2961 -0.6494
vn -0.6893 -0.2492 -0.6803
vn -0.0189 -0.0665 -0.9976
vn -0.7447 -0.6666 0.0305
vn -0.5145 -0.6070 -0.6056
vn -0.4718 -0.5975 0.6485
vn -0.9490 -0.3135 0.0348
vn 0.1446 -0.4400 0.8863
vn -0.6424 -0.2344 0.7297
vn 0.7432 -0.2865 0.6047
vn 0.0510 -0.0586 0.9970
vn 0.9828 0.1815 -0.0349
vn 0.7225 0.1214 0.6806
vn 0.9734 -0.2269 -0.0315
vn -0.2479 0.9688 0.0010
vn -0.2378 0.9546 0.1795
vn -0.3667 0.9202 0.1374
vn -0.1127 0.9855 0.1270
vn -0.1240 0.9835 -0.1316
vn -0.0689 0.9976 -0.0053
vn -0.3723 0.9200 -0.1227
vn -0.2500 0.9504 -0.1853
vn -0.4176 0.9086 0.0073
vn -0.1224 0.5907 0.7976
vn -0.6763 0.4491 0.5838
vn 0.6225 0.7822 -0.0272
vn 0.4156 0.7286 0.5445
vn 0.3771 0.7200 -0.5826
vn -0.7147 0.4405 -0.5432
vn -0.1768 0.5785 -0.7963
vn -0.9217 0.3870 0.0285
vn 0.7610 0.1941 0.6190
vn -0.7170 -0.1842 0.6723
vn -0.7219 -0.1854 0.6667
vn -0.7627 -0.1945 -0.6168
vn 0.7188 0.1847 -0.6703
vn -0.7628 -0.1945 -0.6167
vn 0.2479 -0.9688 -0.0010
vn 0.7189 0.1847 -0.6701
vn 0.7656 0.1952 0.6130
vn 0.7518 -0.5140 -0.4131
vn -0.1039 0.2712 -0.9569
vn 0.5607 0.4424 -0.6999
vn -0.1635 -0.7826 -0.6007
vn -0.0165 -0.8511 -0.5247
vn -0.4751 -0.8618 -0.1776
vn -0.8191 0.2187 -0.5303
vn -0.7040 0.1173 0.7005
vn -0.9731 0.1783 0.1459
vn -0.1218 -0.7732 0.6223
vn -0.0386 0.2859 0.9575
vn 0.5196 -0.6091 0.5992
vn 0.4236 -0.7397 0.5230
vn 0.8307 -0.5281 0.1761
vn 0.6137 0.5842 0.5312
vn 0.7678 0.6241 -0.1450
vn 0.1923 0.3737 0.9074
vn 0.7411 0.0091 0.6714
vn 0.6315 0.4012 0.6635
vn -0.5082 0.1945 0.8390
vn 0.0767 -0.1612 0.9839
vn -0.9562 0.0765 0.2827
vn -0.6072 -0.3360 0.7200
vn -0.6547 -0.3466 -0.6717
vn -0.9102 -0.4127 0.0342
vn -0.3510 0.2326 -0.9070
vn -0.4401 0.5010 -0.7452
vn 0.6936 -0.0015 -0.7204
vn 0.0096 -0.1763 -0.9843
vn 0.7022 0.5057 -0.5012
vn 0.9966 0.0753 -0.0346
vn 0.5708 0.7585 0.3143
vn -0.5606 -0.0000 0.8281
vn -0.7295 0.6840 -0.0000
vn -0.5606 -0.0000 -0.8281
vn -0.7295 -0.6840 -0.0000
vn -1.0000 -0.0000 -0.0000
vn -0.7048 -0.5016 0.5016
vn -0.7048 0.5016 0.5016
vn -0.7048 0.5016 -0.5016
vn -0.7048 -0.5016 -0.5016
vn -0.0000 -0.4434 0.8963
vn -0.0000 1.0000 -0.0000
vn -0.0000 -0.4434 -0.8963
vt 0.760952 0.018727
vt 0.741374 0.004290
vt 0.757639 0.005758
vt 0.750720 0.040806
vt 0.746107 0.022814
vt 0.139798 0.070610
vt 0.155861 0.091156
vt 0.141167 0.085220
vt 0.141387 0.056417
vt 0.153905 0.070288
vt 0.945215 0.018751
vt 0.955456 0.040829
vt 0.941900 0.031727
vt 0.948447 0.006148
vt 0.960191 0.022295
vt 0.026179 0.099627
vt 0.043500 0.086596
vt 0.041790 0.104849
vt 0.027377 0.086847
vt 0.041514 0.068863
vt 0.192745 0.039692
vt 0.186586 0.042068
vt 0.186889 0.033207
vt 0.180605 0.039254
vt 0.178305 0.032898
vt 0.181032 0.026723
vt 0.187191 0.024346
vt 0.193172 0.027161
vt 0.195473 0.033517
vt 0.203167 0.054350
vt 0.182416 0.053576
vt 0.196583 0.048109
vt 0.163562 0.052922
vt 0.183076 0.062103
vt 0.156057 0.032186
vt 0.168655 0.047102
vt 0.169638 0.018274
vt 0.163363 0.032479
vt 0.185048 0.004288
vt 0.164956 0.012040
vt 0.197566 0.019281
vt 0.183806 0.012807
vt 0.212067 0.034205
vt 0.204562 0.013469
vt 0.202859 0.033903
vt 0.554449 0.021850
vt 0.544853 0.004289
vt 0.550764 0.005799
vt 0.703437 0.007713
vt 0.712566 0.020694
vt 0.706737 0.022189
vt 0.149616 0.004276
vt 0.135000 0.017080
vt 0.134465 0.011364
vt 0.149418 0.030205
vt 0.150848 0.017428
vt 0.040472 0.007068
vt 0.004308 0.103074
vt 0.029588 0.004282
vt 0.644503 0.040601
vt 0.632982 0.053893
vt 0.633449 0.040202
vt 0.687178 0.007079
vt 0.723342 0.103085
vt 0.712459 0.105871
vt 0.893124 0.023454
vt 0.904644 0.036746
vt 0.893590 0.037145
vt 0.139907 0.840333
vt 0.153493 0.940599
vt 0.139798 0.940704
vt 0.497492 0.858445
vt 0.511295 0.958921
vt 0.497601 0.958816
vt 0.321622 0.017627
vt 0.307806 0.008112
vt 0.322827 0.004275
vt 0.612208 0.030459
vt 0.600465 0.023404
vt 0.607253 0.019926
vt 0.623401 0.034510
vt 0.607580 0.038529
vt 0.639266 0.037448
vt 0.623652 0.044346
vt 0.004308 0.026607
vt 0.019384 0.018996
vt 0.015517 0.034133
vt 0.009626 0.005826
vt 0.007001 0.016065
vt 0.579916 0.018981
vt 0.591851 0.033681
vt 0.578943 0.029362
vt 0.591626 0.004290
vt 0.593248 0.018773
vt 0.611438 0.009081
vt 0.622856 0.019394
vt 0.634275 0.029706
vt 0.638459 0.018862
vt 0.633504 0.008329
vt 0.622311 0.004278
vt 0.248706 0.039379
vt 0.234618 0.044815
vt 0.234697 0.024543
vt 0.220935 0.038378
vt 0.215673 0.023838
vt 0.221913 0.009712
vt 0.236001 0.004276
vt 0.249683 0.010713
vt 0.254946 0.025253
vt 0.089343 0.014604
vt 0.078477 0.004287
vt 0.091577 0.005891
vt 0.087051 0.023575
vt 0.076644 0.011438
vt 0.894873 0.013640
vt 0.883144 0.006063
vt 0.895920 0.004288
vt 0.883025 0.021639
vt 0.882284 0.013738
vt 0.559399 0.014969
vt 0.573894 0.018795
vt 0.561633 0.023680
vt 0.570180 0.004284
vt 0.572061 0.011645
vt 0.651394 0.017933
vt 0.639223 0.026938
vt 0.638402 0.019602
vt 0.651532 0.036071
vt 0.652394 0.026871
vt 0.271582 0.004283
vt 0.280032 0.008259
vt 0.271156 0.016800
vt 0.262883 0.007640
vt 0.259030 0.016363
vt 0.262279 0.025342
vt 0.270729 0.029317
vt 0.279428 0.025960
vt 0.283282 0.017237
vt 0.303365 0.021573
vt 0.296430 0.024836
vt 0.296080 0.014563
vt 0.289290 0.022081
vt 0.286128 0.014922
vt 0.288795 0.007553
vt 0.295729 0.004290
vt 0.302869 0.007045
vt 0.306032 0.014204
vt 0.235655 0.827057
vt 0.228681 0.905167
vt 0.228681 0.834557
vt 0.215757 0.932565
vt 0.179442 0.921578
vt 0.212270 0.921578
vt 0.156057 0.912668
vt 0.163031 0.834557
vt 0.163031 0.905167
vt 0.175954 0.807160
vt 0.212270 0.818146
vt 0.179442 0.818146
vt 0.235655 0.912668
vt 0.156057 0.827057
vt 0.947320 0.096246
vt 0.957575 0.160998
vt 0.947320 0.160998
vt 0.031406 0.193672
vt 0.041012 0.254975
vt 0.031406 0.254975
vt 0.958159 0.082809
vt 0.968414 0.147560
vt 0.958159 0.147560
vt 0.128959 0.068633
vt 0.139214 0.121210
vt 0.128959 0.121210
vt 0.004308 0.105859
vt 0.013914 0.155635
vt 0.004308 0.155635
vt 0.730535 0.071747
vt 0.740790 0.124324
vt 0.730535 0.124324
vt 0.764182 0.031323
vt 0.156175 0.050015
vt 0.964806 0.004294
vt 0.025986 0.074432
vt 0.540849 0.018376
vt 0.716849 0.004275
vt 0.134379 0.022634
vt 0.015191 0.105860
vt 0.644036 0.054291
vt 0.698062 0.004293
vt 0.904178 0.023056
vt 0.153602 0.840228
vt 0.511187 0.858550
vt 0.311161 0.020300
vt 0.023154 0.004293
vt 0.578786 0.008895
vt 0.074763 0.018801
vt 0.895775 0.023266
vt 0.557108 0.005999
vt 0.638516 0.034488
vt 0.175954 0.932565
vt 0.215757 0.807160
vt 0.957575 0.096246
vt 0.041012 0.193672
vt 0.968414 0.082809
vt 0.139214 0.068633
vt 0.013914 0.105859
vt 0.740790 0.071747
s 1
usemtl M_Props
f 2/1/1 9/2/2 1/3/3
f 2/1/1 11/4/4 10/5/5
f 4/6/6 11/7/4 3/8/7
f 5/9/8 12/10/9 4/6/6
f 6/11/10 13/12/11 5/13/8
f 7/14/12 14/15/13 6/11/10
f 7/16/12 16/17/14 15/18/15
f 8/19/16 9/20/2 16/17/14
f 25/21/17 26/22/17 27/23/17
f 26/22/17 28/24/17 27/23/17
f 28/24/17 29/25/17 27/23/17
f 29/25/17 30/26/17 27/23/17
f 30/26/17 31/27/17 27/23/17
f 31/27/17 32/28/17 27/23/17
f 32/28/17 33/29/17 27/23/17
f 33/29/17 25/21/17 27/23/17
f 9/30/2 18/31/18 17/32/19
f 11/33/4 18/31/18 10/34/5
f 12/35/9 19/36/20 11/33/4
f 12/35/9 21/37/21 20/38/22
f 14/39/13 21/37/21 13/40/11
f 14/39/13 23/41/23 22/42/24
f 16/43/14 23/41/23 15/44/15
f 9/30/2 24/45/25 16/43/14
f 17/46/19 26/47/26 25/48/27
f 19/36/20 26/22/26 18/31/18
f 19/36/20 29/25/28 28/24/29
f 21/37/21 29/25/28 20/38/22
f 22/42/24 30/26/30 21/37/21
f 22/49/24 32/50/31 31/51/32
f 23/52/23 33/53/33 32/54/31
f 17/55/19 33/53/33 24/56/25
f 35/57/34 36/58/35 34/59/36
f 37/60/17 38/61/17 36/62/17
f 38/63/37 41/64/38 40/65/39
f 40/66/40 35/67/40 34/68/40
f 35/69/34 39/70/41 37/71/42
f 40/72/39 36/73/35 38/74/37
f 42/75/43 51/76/44 50/77/45
f 44/78/46 51/79/44 43/80/47
f 45/81/48 52/82/49 44/78/46
f 45/81/48 54/83/50 53/84/51
f 46/85/52 55/86/53 54/87/50
f 48/88/54 55/86/53 47/89/55
f 49/90/56 56/91/57 48/92/54
f 49/90/56 50/93/45 57/94/58
f 43/80/47 42/95/43 58/96/40
f 44/78/46 43/80/47 58/96/40
f 45/81/48 44/78/46 58/96/40
f 46/97/52 45/81/48 58/96/40
f 47/98/55 46/97/52 58/96/40
f 48/99/54 47/98/55 58/96/40
f 49/100/56 48/99/54 58/96/40
f 42/95/43 49/100/56 58/96/40
f 50/101/45 51/102/44 59/103/17
f 51/102/44 52/104/49 59/103/17
f 52/104/49 53/105/51 59/103/17
f 53/105/51 54/106/50 59/103/17
f 54/106/50 55/107/53 59/103/17
f 55/107/53 56/108/57 59/103/17
f 56/108/57 57/109/58 59/103/17
f 57/109/58 50/101/45 59/103/17
f 61/110/59 68/111/60 60/112/61
f 62/113/62 69/114/63 61/110/59
f 63/115/64 70/116/65 62/117/62
f 63/115/64 72/118/66 71/119/67
f 65/120/68 72/121/66 64/122/69
f 65/120/68 74/123/70 73/124/71
f 66/125/72 75/126/73 74/127/70
f 60/128/61 75/126/73 67/129/74
f 61/130/59 60/131/61 76/132/17
f 62/133/62 61/130/59 76/132/17
f 63/134/64 62/133/62 76/132/17
f 64/135/69 63/134/64 76/132/17
f 65/136/68 64/135/69 76/132/17
f 66/137/72 65/136/68 76/132/17
f 67/138/74 66/137/72 76/132/17
f 60/131/61 67/138/74 76/132/17
f 68/139/40 69/140/40 77/141/40
f 69/140/40 70/142/40 77/141/40
f 70/142/40 71/143/40 77/141/40
f 71/143/40 72/144/40 77/141/40
f 72/144/40 73/145/40 77/141/40
f 73/145/40 74/146/40 77/141/40
f 74/146/40 75/147/40 77/141/40
f 75/147/40 68/139/40 77/141/40
f 81/148/75 83/149/75 79/150/75
f 84/151/76 87/152/76 82/153/76
f 88/154/77 91/155/77 86/156/77
f 92/157/78 78/158/78 90/159/78
f 79/150/79 82/153/79 86/156/79
f 78/158/80 81/148/80 79/150/80
f 82/153/81 85/160/81 84/151/81
f 87/152/82 88/154/82 86/156/82
f 90/159/83 93/161/83 92/157/83
f 95/162/84 96/163/84 94/164/84
f 97/165/85 98/166/85 96/167/85
f 99/168/86 94/169/86 98/170/86
f 101/171/84 102/172/84 100/173/84
f 103/174/85 104/175/85 102/176/85
f 105/177/86 100/178/86 104/179/86
f 2/1/1 10/5/5 9/2/2
f 2/1/1 3/180/7 11/4/4
f 4/6/6 12/10/9 11/7/4
f 5/9/8 13/181/11 12/10/9
f 6/11/10 14/15/13 13/12/11
f 7/14/12 15/182/15 14/15/13
f 7/16/12 8/19/16 16/17/14
f 8/19/16 1/183/3 9/20/2
f 9/30/2 10/34/5 18/31/18
f 11/33/4 19/36/20 18/31/18
f 12/35/9 20/38/22 19/36/20
f 12/35/9 13/40/11 21/37/21
f 14/39/13 22/42/24 21/37/21
f 14/39/13 15/44/15 23/41/23
f 16/43/14 24/45/25 23/41/23
f 9/30/2 17/32/19 24/45/25
f 17/46/19 18/184/18 26/47/26
f 19/36/20 28/24/29 26/22/26
f 19/36/20 20/38/22 29/25/28
f 21/37/21 30/26/30 29/25/28
f 22/42/24 31/27/32 30/26/30
f 22/49/24 23/185/23 32/50/31
f 23/52/23 24/56/25 33/53/33
f 17/55/19 25/186/27 33/53/33
f 35/57/34 37/187/42 36/58/35
f 37/60/17 39/188/17 38/61/17
f 38/63/37 39/189/41 41/64/38
f 40/66/40 41/190/40 35/67/40
f 35/69/34 41/191/38 39/70/41
f 40/72/39 34/192/36 36/73/35
f 42/75/43 43/193/47 51/76/44
f 44/78/46 52/82/49 51/79/44
f 45/81/48 53/84/51 52/82/49
f 45/81/48 46/97/52 54/83/50
f 46/85/52 47/89/55 55/86/53
f 48/88/54 56/194/57 55/86/53
f 49/90/56 57/94/58 56/91/57
f 49/90/56 42/195/43 50/93/45
f 61/110/59 69/114/63 68/111/60
f 62/113/62 70/196/65 69/114/63
f 63/115/64 71/119/67 70/116/65
f 63/115/64 64/197/69 72/118/66
f 65/120/68 73/124/71 72/121/66
f 65/120/68 66/198/72 74/123/70
f 66/125/72 67/129/74 75/126/73
f 60/128/61 68/199/60 75/126/73
f 81/148/75 85/160/75 83/149/75
f 84/151/76 89/200/76 87/152/76
f 88/154/77 93/161/77 91/155/77
f 92/157/78 80/201/78 78/158/78
f 86/156/79 91/155/79 90/159/79
f 90/159/79 78/158/79 79/150/79
f 79/150/79 83/149/79 82/153/79
f 82/153/79 87/152/79 86/156/79
f 86/156/79 90/159/79 79/150/79
f 78/158/80 80/201/80 81/148/80
f 82/153/81 83/149/81 85/160/81
f 87/152/82 89/200/82 88/154/82
f 90/159/83 91/155/83 93/161/83
f 95/162/84 97/202/84 96/163/84
f 97/165/85 99/203/85 98/166/85
f 99/168/86 95/204/86 94/169/86
f 101/171/84 103/205/84 102/172/84
f 103/174/85 105/206/85 104/175/85
f 105/177/86 101/207/86 100/178/86
