# Blender 4.0.2
# www.blender.org
mtllib Rocks.mtl
o Rocks
v 0.208879 0.000000 0.053976
v 0.144422 0.000000 0.079461
v 0.159972 0.000000 0.151837
v 0.223809 0.000000 0.156959
v 0.246604 0.000000 0.109610
v 0.210059 0.022959 0.076502
v 0.167026 0.029760 0.086422
v 0.174393 0.028596 0.133612
v 0.211748 0.022692 0.138735
v 0.225691 0.020488 0.105216
v -0.018217 0.000000 0.028476
v -0.175961 0.000000 0.093963
v -0.117462 0.000000 0.227062
v 0.012079 0.000000 0.237456
v 0.086515 0.000000 0.098120
v -0.018217 0.043075 0.074189
v -0.132485 0.043075 0.108089
v -0.090593 0.043075 0.190080
v -0.014790 0.043075 0.200474
v 0.043040 0.043075 0.112246
v 0.079328 0.000000 -0.204554
v -0.017629 0.000000 -0.167934
v -0.005213 0.000000 -0.052922
v 0.104408 0.000000 -0.044126
v 0.143552 0.000000 -0.125433
v 0.078467 0.032971 -0.171063
v 0.020903 0.033092 -0.155851
v 0.019660 0.033060 -0.084074
v 0.083967 0.034441 -0.075580
v 0.102412 0.033767 -0.129923
v -0.031687 0.000000 -0.115368
v 0.000066 0.031304 -0.124790
v -0.159483 0.000000 -0.136550
v -0.209031 0.000000 -0.122327
v -0.184698 0.000000 -0.042725
v -0.145273 0.000000 -0.045651
v -0.122528 0.000000 -0.093311
v -0.163897 0.018682 -0.119496
v -0.189595 0.018750 -0.112918
v -0.174831 0.018732 -0.063757
v -0.153232 0.019514 -0.066365
v -0.146446 0.019133 -0.086068
v -0.222385 0.000000 -0.086017
v -0.204208 0.017737 -0.087312
vn 0.7298 0.5178 -0.4465
vn -0.0485 0.5801 0.8131
vn -0.2292 0.5519 -0.8018
vn 0.6807 0.6723 0.2909
vn -0.8187 0.5508 0.1623
vn 0.1561 0.9877 -0.0000
vn 0.4132 0.6509 -0.6369
vn -0.0766 0.6495 0.7565
vn -0.2646 0.6367 -0.7243
vn 0.6622 0.6429 0.3849
vn -0.6897 0.6486 0.3219
vn -0.0000 1.0000 -0.0000
vn 0.6388 0.6073 -0.4724
vn -0.0778 0.6807 0.7284
vn -0.2436 0.6410 -0.7278
vn 0.6404 0.7196 0.2683
vn -0.6322 0.7263 0.2699
vn -0.0184 0.9998 -0.0085
vn -0.6479 0.7177 -0.2550
vn 0.5795 0.7011 -0.4154
vn 0.0519 0.7352 0.6759
vn -0.2087 0.6190 -0.7571
vn 0.6837 0.6671 0.2959
vn -0.5100 0.6990 0.5012
vn -0.0204 0.9998 -0.0011
vn -0.6378 0.7189 -0.2763
vt 0.612615 0.751410
vt 0.493646 0.702998
vt 0.547038 0.687598
vt 0.596636 0.703297
vt 0.656942 0.570554
vt 0.689320 0.685990
vt 0.642826 0.668888
vt 0.618958 0.615927
vt 0.515934 0.569144
vt 0.549526 0.621861
vt 0.564724 0.897263
vt 0.431856 0.930535
vt 0.453546 0.871316
vt 0.518040 0.860178
vt 0.419805 0.685432
vt 0.554203 0.731589
vt 0.502430 0.764192
vt 0.434838 0.746626
vt 0.311054 0.798241
vt 0.371469 0.800849
vt 0.706026 0.670190
vt 0.819076 0.676215
vt 0.784833 0.710716
vt 0.739329 0.712189
vt 0.733067 0.850932
vt 0.658408 0.758257
vt 0.707870 0.755898
vt 0.750178 0.802406
vt 0.849955 0.788308
vt 0.804856 0.762366
vt 0.809138 0.837425
vt 0.792917 0.795653
vt 0.996379 0.646371
vt 0.994832 0.749117
vt 0.960558 0.724578
vt 0.948699 0.667713
vt 0.847619 0.646904
vt 0.909797 0.604919
vt 0.920250 0.652375
vt 0.890853 0.669066
vt 0.908771 0.787745
vt 0.923632 0.743350
vt 0.846809 0.750439
vt 0.880315 0.727892
s 1
usemtl M_Props04
f 5/1/1 1/2/1 6/3/1 10/4/1
f 3/5/2 4/6/2 9/7/2 8/8/2
f 1/2/3 2/9/3 7/10/3 6/3/3
f 4/6/4 5/1/4 10/4/4 9/7/4
f 2/9/5 3/5/5 8/8/5 7/10/5
f 7/10/6 8/8/6 9/7/6 10/4/6 6/3/6
f 15/11/7 11/12/7 16/13/7 20/14/7
f 13/15/8 14/16/8 19/17/8 18/18/8
f 11/12/9 12/19/9 17/20/9 16/13/9
f 14/16/10 15/11/10 20/14/10 19/17/10
f 12/19/11 13/15/11 18/18/11 17/20/11
f 17/20/12 18/18/12 19/17/12 20/14/12 16/13/12
f 25/21/13 21/22/13 26/23/13 30/24/13
f 23/25/14 24/26/14 29/27/14 28/28/14
f 21/22/15 22/29/15 27/30/15 26/23/15
f 24/26/16 25/21/16 30/24/16 29/27/16
f 31/31/17 23/25/17 28/28/17 32/32/17
f 27/30/18 32/32/18 28/28/18 29/27/18 30/24/18 26/23/18
f 22/29/19 31/31/19 32/32/19 27/30/19
f 37/33/20 33/34/20 38/35/20 42/36/20
f 35/37/21 36/38/21 41/39/21 40/40/21
f 33/34/22 34/41/22 39/42/22 38/35/22
f 36/38/23 37/33/23 42/36/23 41/39/23
f 43/43/24 35/37/24 40/40/24 44/44/24
f 39/42/25 44/44/25 40/40/25 41/39/25 42/36/25 38/35/25
f 34/41/26 43/43/26 44/44/26 39/42/26
