# Blender 4.0.2
# www.blender.org
mtllib Arch.mtl
o Arch
v 0.000000 0.368630 0.160805
v -0.500000 0.234655 0.160805
v -0.866025 -0.131370 0.160805
v -1.000000 -0.631370 0.160806
v 1.000000 -0.631370 0.160806
v 0.866025 -0.131370 0.160805
v 0.500000 0.234655 0.160805
v 0.000000 0.368630 -0.160806
v -0.500000 0.234655 -0.160806
v -0.866025 -0.131370 -0.160806
v -1.000000 -0.631370 -0.160806
v 1.000000 -0.631370 -0.160806
v 0.866025 -0.131370 -0.160806
v 0.500000 0.234655 -0.160806
v 0.000000 0.556863 0.160805
v -0.516629 0.556863 0.160805
v -0.894827 0.556863 0.160805
v -1.000000 0.556863 0.160805
v 1.000000 0.556863 0.160805
v 0.894827 0.556863 0.160805
v 0.516629 0.556863 0.160805
v 0.000000 0.556863 -0.160806
v -0.516629 0.556863 -0.160806
v -0.894827 0.556863 -0.160806
v -1.000000 0.556863 -0.160806
v 1.000000 0.556863 -0.160806
v 0.894827 0.556863 -0.160806
v 0.516629 0.556863 -0.160806
v -0.983499 0.638508 0.134510
v -0.823920 0.638508 0.294071
v -0.936759 0.638508 0.247337
v -0.823920 0.638508 -0.294069
v -0.983499 0.638507 -0.134508
v -0.936759 0.638508 -0.247335
v -0.826793 0.556864 0.294071
v -0.983499 0.556864 0.137389
v -0.937600 0.556864 0.248180
v -0.826793 0.556864 -0.294069
v -0.983499 0.556864 -0.137387
v -0.937600 0.556864 -0.248178
v -0.874891 0.612914 0.343886
v -1.033314 0.612914 0.185481
v -0.986913 0.612914 0.297490
v -1.033314 0.612913 -0.185479
v -0.874891 0.612913 -0.343884
v -0.986913 0.612913 -0.297488
v -0.875503 0.582457 0.343886
v -1.033314 0.582457 0.186094
v -0.987091 0.582457 0.297669
v -1.033314 0.582457 -0.186092
v -0.875503 0.582457 -0.343884
v -0.987091 0.582457 -0.297667
v -0.483499 0.582457 0.343884
v -0.483499 0.582457 -0.343886
v -0.483499 0.612914 0.343884
v -0.483499 0.612913 -0.343886
v -0.483499 0.556864 0.294069
v -0.483499 0.556864 -0.294071
v -0.483499 0.638508 -0.294071
v -0.483499 0.638508 0.294069
v 0.987091 0.582457 0.297667
v 0.875503 0.582457 0.343884
v 1.033314 0.582457 0.186092
v 0.987091 0.582457 -0.297669
v 1.033314 0.582457 -0.186094
v 0.875503 0.582457 -0.343886
v 0.986913 0.612914 0.297488
v 0.874891 0.612914 0.343884
v 1.033314 0.612914 0.185479
v 0.986913 0.612913 -0.297490
v 1.033314 0.612913 -0.185481
v 0.874891 0.612913 -0.343886
v 0.937600 0.556864 0.248178
v 0.983499 0.556864 0.137387
v 0.826793 0.556864 0.294069
v 0.937600 0.556864 -0.248180
v 0.983499 0.556864 -0.137389
v 0.826793 0.556864 -0.294071
v 0.936759 0.638508 0.247335
v 0.983499 0.638507 0.134508
v 0.823920 0.638508 0.294069
v 0.936759 0.638508 -0.247337
v 0.823920 0.638508 -0.294071
v 0.983499 0.638508 -0.134510
v 0.483499 0.582457 0.343884
v 0.483499 0.582457 -0.343886
v 0.483499 0.612914 0.343884
v 0.483499 0.612913 -0.343886
v 0.483499 0.556864 0.294069
v 0.483499 0.556864 -0.294071
v 0.483499 0.638508 -0.294071
v 0.483499 0.638508 0.294069
v -1.026637 -0.624233 -0.133229
v -0.973363 -0.638508 -0.133229
v -0.973363 -0.638508 -0.188383
v -1.026638 -0.624233 -0.188383
v -0.889908 -0.117582 -0.133229
v -0.842143 -0.145159 -0.133229
v -0.842143 -0.145159 -0.188383
v -0.889908 -0.117582 -0.188383
v -0.513789 0.258538 -0.133229
v -0.486211 0.210773 -0.133229
v -0.486211 0.210773 -0.188383
v -0.513789 0.258538 -0.188383
v 0.000000 0.396207 -0.133229
v 0.000000 0.341053 -0.133229
v 0.000000 0.341053 -0.188383
v 0.000000 0.396207 -0.188383
v 0.513789 0.258538 -0.133229
v 0.486211 0.210773 -0.133229
v 0.486211 0.210773 -0.188383
v 0.513789 0.258538 -0.188383
v 0.889908 -0.117582 -0.133229
v 0.842143 -0.145159 -0.133229
v 0.842143 -0.145159 -0.188383
v 0.889908 -0.117582 -0.188383
v 1.026638 -0.624233 -0.133229
v 0.973362 -0.638508 -0.133229
v 0.973363 -0.638508 -0.188383
v 1.026638 -0.624233 -0.188383
v -1.026637 -0.624233 0.188383
v -0.973363 -0.638508 0.188383
v -0.973363 -0.638508 0.133228
v -1.026638 -0.624233 0.133228
v -0.889908 -0.117582 0.188383
v -0.842143 -0.145159 0.188383
v -0.842143 -0.145159 0.133228
v -0.889908 -0.117582 0.133228
v -0.513789 0.258538 0.188383
v -0.486211 0.210772 0.188383
v -0.486211 0.210772 0.133228
v -0.513789 0.258538 0.133228
v 0.000000 0.396207 0.188383
v 0.000000 0.341053 0.188383
v 0.000000 0.341053 0.133228
v 0.000000 0.396207 0.133228
v 0.513789 0.258538 0.188383
v 0.486211 0.210772 0.188383
v 0.486211 0.210772 0.133228
v 0.513789 0.258538 0.133228
v 0.889908 -0.117582 0.188383
v 0.842143 -0.145159 0.188383
v 0.842143 -0.145159 0.133228
v 0.889908 -0.117582 0.133228
v 1.026638 -0.624233 0.188383
v 0.973362 -0.638508 0.188383
v 0.973363 -0.638508 0.133228
v 1.026638 -0.624233 0.133228
vn -0.8660 -0.5000 -0.0000
vn -0.9659 -0.2588 -0.0000
vn 0.8660 -0.5000 -0.0000
vn 0.5000 -0.8660 -0.0000
vn -0.5000 -0.8660 -0.0000
vn 0.9659 -0.2588 -0.0000
vn -0.0000 -1.0000 -0.0000
vn -0.0000 -0.0000 -1.0000
vn -0.0000 -0.0000 1.0000
vn -0.0000 1.0000 -0.0000
vn -0.0272 0.9706 0.2390
vn -0.0979 0.9224 0.3737
vn -0.0000 0.8895 0.4570
vn -0.0000 0.9720 0.2351
vn -0.0272 0.9706 -0.2390
vn -0.0000 0.9720 -0.2351
vn -0.0000 0.8895 -0.4570
vn -0.0979 0.9224 -0.3737
vn -0.4181 -0.9071 0.0490
vn -0.3774 -0.9209 0.0979
vn -0.3774 -0.9209 -0.0979
vn -0.4181 -0.9071 -0.0490
vn -0.0490 -0.9071 -0.4181
vn -0.0979 -0.9209 -0.3774
vn -0.0000 -0.8895 -0.4570
vn -0.1509 0.9770 0.1509
vn -0.2400 0.9406 0.2400
vn -0.3737 0.9224 0.0979
vn -0.2390 0.9706 0.0272
vn -0.1975 0.0040 -0.9803
vn -0.3826 0.0077 -0.9239
vn -0.1927 0.0039 -0.9813
vn -0.3826 0.0077 0.9239
vn -0.1975 0.0040 0.9803
vn -0.1927 0.0039 0.9813
vn -0.9803 0.0040 0.1975
vn -0.9238 0.0077 0.3827
vn -0.9812 0.0039 0.1927
vn -0.2400 0.9406 -0.2400
vn -0.1509 0.9770 -0.1509
vn -0.0979 -0.9209 0.3774
vn -0.2428 -0.9392 0.2429
vn -0.0490 -0.9071 0.4181
vn -0.3737 0.9224 -0.0979
vn -0.2390 0.9706 -0.0272
vn -0.2428 -0.9392 -0.2429
vn -0.9238 0.0077 -0.3827
vn -0.9803 0.0040 -0.1975
vn -0.9812 0.0039 -0.1927
vn -0.0000 -0.8895 0.4570
vn 0.1975 0.0040 0.9803
vn 0.1927 0.0039 0.9813
vn 0.0272 0.9706 0.2390
vn 0.0979 0.9224 0.3737
vn 0.1509 0.9770 -0.1509
vn 0.2400 0.9406 -0.2400
vn 0.0979 0.9224 -0.3737
vn 0.0272 0.9706 -0.2390
vn 0.2428 -0.9392 0.2429
vn 0.4181 -0.9071 0.0490
vn 0.3774 -0.9209 0.0979
vn 0.3737 0.9224 -0.0979
vn 0.2390 0.9706 -0.0272
vn 0.0490 -0.9071 0.4181
vn 0.0979 -0.9209 0.3774
vn 0.2428 -0.9392 -0.2429
vn 0.3774 -0.9209 -0.0979
vn 0.4181 -0.9071 -0.0490
vn 0.0979 -0.9209 -0.3774
vn 0.0490 -0.9071 -0.4181
vn 0.3826 0.0077 0.9239
vn 0.9803 0.0040 -0.1975
vn 0.9238 0.0077 -0.3827
vn 0.9812 0.0039 -0.1927
vn 0.9812 0.0039 0.1927
vn 0.9803 0.0040 0.1975
vn 0.9238 0.0077 0.3827
vn 0.3826 0.0077 -0.9239
vn 0.1975 0.0040 -0.9803
vn 0.1927 0.0039 -0.9813
vn 0.2400 0.9406 0.2400
vn 0.1509 0.9770 0.1509
vn 0.3737 0.9224 0.0979
vn 0.2390 0.9706 0.0272
vn -0.9655 0.2605 -0.0000
vn -0.8656 0.5008 -0.0000
vn 0.9664 -0.2570 -0.0000
vn 0.8665 -0.4992 -0.0000
vn -0.5000 0.8660 -0.0000
vn 0.5000 0.8660 -0.0000
vn 0.8656 0.5008 -0.0000
vn -0.8665 -0.4992 -0.0000
vn 0.9655 0.2605 -0.0000
vn -0.9664 -0.2570 -0.0000
vt 0.921318 0.565200
vt 0.921318 0.878980
vt 1.142764 0.878980
vt 1.142764 0.565200
vt 0.035531 0.565200
vt 0.035531 0.878980
vt 0.256978 0.878980
vt 0.256978 0.565200
vt 0.699871 0.565200
vt 0.699871 0.878980
vt -0.185915 0.565200
vt -0.185915 0.878980
vt 0.478425 0.878980
vt 0.478425 0.565200
vt 0.146255 0.351144
vt 0.135208 0.565200
vt 0.478425 0.440148
vt 1.142764 -0.224192
vt 1.072894 0.565200
vt 1.053760 0.107979
vt 0.810595 0.351144
vt 0.821642 0.565200
vt 1.053760 0.107978
vt -0.096911 0.107978
vt -0.116045 0.565200
vt -0.185915 -0.224192
vt -0.185915 0.565200
vt -0.185915 0.878980
vt 0.008878 0.386030
vt 0.030777 0.374738
vt 0.029231 0.489314
vt 0.008878 0.489158
vt 0.115816 0.113915
vt 0.115816 0.216694
vt 0.097022 0.216665
vt 0.096879 0.101642
vt 0.055474 0.310275
vt 0.038759 0.321253
vt 0.036008 0.181966
vt 0.055474 0.193570
vt 0.068874 0.112890
vt 0.088319 0.101377
vt 0.087568 0.216638
vt 0.068874 0.216565
vt 0.008878 0.347940
vt 0.031651 0.347937
vt 0.030485 0.321239
vt 0.008878 0.310111
vt 0.087971 0.067186
vt 0.097380 0.067205
vt 0.038394 0.347904
vt 0.038931 0.374602
vt 0.115816 0.077135
vt 0.055474 0.347737
vt 0.055474 0.385498
vt 0.008878 0.157452
vt 0.026298 0.146965
vt 0.027161 0.182320
vt 0.008878 0.195084
vt 0.068874 0.076797
vt 0.055474 0.156532
vt 0.035971 0.146846
vt 0.086721 0.512661
vt 0.068874 0.512627
vt 0.096167 0.512686
vt 0.115816 0.512758
vt 0.038700 0.489385
vt -0.076021 1.315812
vt 0.104411 1.315812
vt 0.104411 1.610907
vt -0.076021 1.610907
vt 0.026920 0.786070
vt 0.008878 0.785957
vt 0.036397 0.786144
vt 0.055474 0.786300
vt 0.055474 0.489502
vt 0.104410 1.714792
vt 0.090149 1.749227
vt 0.055718 1.763490
vt -0.027328 1.763490
vt -0.061760 1.749227
vt -0.076021 1.714792
vt 0.035078 0.901688
vt 0.026498 0.901381
vt 0.008878 0.888994
vt 0.115816 0.653638
vt 0.094410 0.653749
vt 0.095179 0.626986
vt 0.115816 0.615625
vt 0.068874 0.807395
vt 0.068874 0.771349
vt 0.088017 0.782769
vt 0.088005 0.816772
vt 0.095556 0.680468
vt 0.115816 0.691734
vt 0.055474 0.890231
vt 0.068874 0.654014
vt 0.087679 0.653797
vt 0.087332 0.680399
vt 0.068874 0.691188
vt 0.087044 0.627158
vt 0.068874 0.616379
vt 0.055474 0.926437
vt 0.035259 0.935967
vt 0.025827 0.935902
vt 0.096640 0.782489
vt 0.097373 0.816656
vt 0.008878 0.925840
vt 0.115816 0.806396
vt 0.115816 0.770388
vt -0.076021 1.211927
vt -0.061759 1.177492
vt -0.027328 1.163229
vt 0.055718 1.163229
vt 0.090149 1.177492
vt 0.104411 1.211927
vt -0.814783 1.000000
vt -0.073093 1.000000
vt -0.073093 0.895090
vt -0.814783 0.895090
vt -0.814783 0.685270
vt -0.073093 0.685270
vt -0.073093 0.580360
vt -0.814783 0.580360
vt -0.814783 0.790180
vt -0.073093 0.790180
vt 0.668596 1.000000
vt 0.668596 0.895090
vt 0.668596 0.685270
vt 0.668596 0.580360
vt 0.668596 0.790180
vt 1.410285 1.000000
vt 1.410285 0.895090
vt 1.410285 0.685270
vt 1.410285 0.580360
vt 1.410285 0.790180
vt 2.151975 1.000000
vt 2.151975 0.895090
vt 2.151975 0.685270
vt 2.151975 0.580360
vt 2.151975 0.790180
vt 2.893664 1.000000
vt 2.893664 0.895090
vt 2.893664 0.685270
vt 2.893664 0.580360
vt 2.893664 0.790180
vt 3.635354 1.000000
vt 3.635354 0.895090
vt 3.635354 0.685270
vt 3.635354 0.580360
vt 3.635354 0.790180
s 1
usemtl wall
f 6/1/1 13/2/1 12/3/2 5/4/2
f 3/5/3 10/6/3 9/7/4 2/8/4
f 7/9/5 14/10/5 13/2/1 6/1/1
f 4/11/6 11/12/6 10/6/3 3/5/3
f 2/8/4 9/7/4 8/13/7 1/14/7
f 1/14/7 8/13/7 14/10/5 7/9/5
f 9/15/8 23/16/8 22/14/8 8/17/8
f 5/18/9 19/4/9 20/19/9 6/20/9
f 14/21/8 28/22/8 27/19/8 13/23/8
f 1/17/9 15/14/9 16/16/9 2/15/9
f 10/24/8 24/25/8 23/16/8 9/15/8
f 6/20/9 20/19/9 21/22/9 7/21/9
f 8/17/8 22/14/8 28/22/8 14/21/8
f 2/15/9 16/16/9 17/25/9 3/24/9
f 11/26/8 25/27/8 24/25/8 10/24/8
f 7/21/9 21/22/9 15/14/9 1/17/9
f 3/24/9 17/25/9 18/27/9 4/26/9
f 13/23/8 27/19/8 26/4/8 12/18/8
f 25/28/10 18/28/10 17/28/10 24/28/10
f 24/28/10 17/28/10 16/28/10 23/28/10
f 23/28/10 16/28/10 15/28/10 22/28/10
f 22/28/10 15/28/10 21/28/10 28/28/10
f 28/28/10 21/28/10 20/28/10 27/28/10
f 27/28/10 20/28/10 19/28/10 26/28/10
usemtl tops
f 30/29/11 41/30/12 55/31/13 60/32/14
f 32/33/15 59/34/16 56/35/17 45/36/18
f 36/37/19 48/38/20 50/39/21 39/40/22
f 38/41/23 51/42/24 54/43/25 58/44/25
f 31/45/26 43/46/27 41/30/12 30/29/11
f 42/47/28 43/46/27 31/45/26 29/48/29
f 51/42/30 52/49/31 46/50/31 45/36/32
f 43/46/33 49/51/33 47/52/34 41/30/35
f 48/38/36 49/51/37 43/46/37 42/47/38
f 45/36/18 46/50/39 34/53/40 32/33/15
f 47/52/41 49/51/42 37/54/42 35/55/43
f 37/54/42 49/51/42 48/38/20 36/37/19
f 34/56/40 46/57/39 44/58/44 33/59/45
f 51/42/24 38/41/23 40/60/46 52/49/46
f 40/61/46 39/40/22 50/39/21 52/62/46
f 46/57/47 52/62/47 50/39/48 44/58/49
f 54/43/8 51/42/30 45/36/32 56/35/8
f 86/63/25 90/64/25 58/44/25 54/43/25
f 88/65/8 86/63/8 54/43/8 56/35/8
f 91/66/16 88/65/17 56/35/17 59/34/16
f 53/67/9 55/31/9 41/30/35 47/52/34
f 42/47/38 44/58/49 50/39/48 48/38/36
f 92/68/14 91/69/16 59/70/16 60/71/14
f 87/72/13 92/73/14 60/32/14 55/31/13
f 85/74/9 87/72/9 55/31/9 53/67/9
f 89/75/50 85/74/50 53/67/50 57/76/50
f 33/59/45 44/58/44 42/47/28 29/48/29
f 35/55/43 57/76/50 53/67/50 47/52/41
f 32/77/15 34/78/40 33/79/45 29/80/29 31/81/26 30/82/11 60/71/14 59/70/16
f 85/74/9 62/83/51 68/84/52 87/72/9
f 81/85/53 92/73/14 87/72/13 68/84/54
f 82/86/55 70/87/56 72/88/57 83/89/58
f 73/90/59 74/91/60 63/92/61 61/93/59
f 71/94/62 70/87/56 82/86/55 84/95/63
f 75/96/64 62/83/65 85/74/50 89/75/50
f 76/97/66 64/98/66 65/99/67 77/100/68
f 66/101/69 64/98/66 76/97/66 78/102/70
f 77/100/68 65/99/67 63/92/61 74/91/60
f 62/83/65 75/96/64 73/103/59 61/104/59
f 78/102/70 90/64/25 86/63/25 66/101/69
f 62/83/51 61/104/71 67/105/71 68/84/52
f 65/99/72 64/98/73 70/87/73 71/94/74
f 71/94/74 69/106/75 63/92/76 65/99/72
f 67/107/77 61/93/77 63/92/76 69/106/75
f 83/89/58 72/88/57 88/65/17 91/66/16
f 70/87/78 64/98/78 66/101/79 72/88/80
f 86/63/8 88/65/8 72/88/80 66/101/79
f 68/84/54 67/105/81 79/108/82 81/85/53
f 79/109/82 67/107/81 69/106/83 80/110/84
f 80/110/84 69/106/83 71/94/62 84/95/63
f 91/69/16 92/68/14 81/111/53 79/112/82 80/113/84 84/114/63 82/115/55 83/116/58
f 93/117/85 97/118/86 100/119/86 96/120/85
f 94/121/9 98/122/9 97/123/9 93/124/9
f 95/125/87 99/126/88 98/122/88 94/121/87
f 96/120/8 100/119/8 99/126/8 95/125/8
f 97/118/86 101/127/89 104/128/89 100/119/86
f 98/122/9 102/129/9 101/130/9 97/123/9
f 99/126/88 103/131/4 102/129/4 98/122/88
f 100/119/8 104/128/8 103/131/8 99/126/8
f 101/127/89 105/132/10 108/133/10 104/128/89
f 102/129/9 106/134/9 105/135/9 101/130/9
f 103/131/4 107/136/7 106/134/7 102/129/4
f 104/128/8 108/133/8 107/136/8 103/131/8
f 105/132/10 109/137/90 112/138/90 108/133/10
f 106/134/9 110/139/9 109/140/9 105/135/9
f 107/136/7 111/141/5 110/139/5 106/134/7
f 108/133/8 112/138/8 111/141/8 107/136/8
f 109/137/90 113/142/91 116/143/91 112/138/90
f 110/139/9 114/144/9 113/145/9 109/140/9
f 111/141/5 115/146/92 114/144/92 110/139/5
f 112/138/8 116/143/8 115/146/8 111/141/8
f 113/142/91 117/147/93 120/148/93 116/143/91
f 114/144/9 118/149/9 117/150/9 113/145/9
f 115/146/92 119/151/94 118/149/94 114/144/92
f 116/143/8 120/148/8 119/151/8 115/146/8
f 121/117/85 125/118/86 128/119/86 124/120/85
f 122/121/9 126/122/9 125/123/9 121/124/9
f 123/125/87 127/126/88 126/122/88 122/121/87
f 124/120/8 128/119/8 127/126/8 123/125/8
f 125/118/86 129/127/89 132/128/89 128/119/86
f 126/122/9 130/129/9 129/130/9 125/123/9
f 127/126/88 131/131/4 130/129/4 126/122/88
f 128/119/8 132/128/8 131/131/8 127/126/8
f 129/127/89 133/132/10 136/133/10 132/128/89
f 130/129/9 134/134/9 133/135/9 129/130/9
f 131/131/4 135/136/7 134/134/7 130/129/4
f 132/128/8 136/133/8 135/136/8 131/131/8
f 133/132/10 137/137/90 140/138/90 136/133/10
f 134/134/9 138/139/9 137/140/9 133/135/9
f 135/136/7 139/141/5 138/139/5 134/134/7
f 136/133/8 140/138/8 139/141/8 135/136/8
f 137/137/90 141/142/91 144/143/91 140/138/90
f 138/139/9 142/144/9 141/145/9 137/140/9
f 139/141/5 143/146/92 142/144/92 138/139/5
f 140/138/8 144/143/8 143/146/8 139/141/8
f 141/142/91 145/147/93 148/148/93 144/143/91
f 142/144/9 146/149/9 145/150/9 141/145/9
f 143/146/92 147/151/94 146/149/94 142/144/92
f 144/143/8 148/148/8 147/151/8 143/146/8
