# Blender 4.2.0
# www.blender.org
mtllib DoorOBJ.mtl
o Door1.001
v 0.272464 2.192492 0.604344
v 0.272464 2.192492 0.395656
v 1.727536 2.192492 0.604344
v 1.727536 2.192492 0.395656
v 0.272464 0.000000 0.604344
v 0.272464 0.000000 0.395656
v 1.727536 0.000000 0.395656
v 1.727536 0.000000 0.604344
vn -0.0000 -0.0000 -1.0000
vn -0.0000 -0.0000 1.0000
vn -0.0000 -1.0000 -0.0000
vn -1.0000 -0.0000 -0.0000
vn -0.0000 1.0000 -0.0000
vn 1.0000 -0.0000 -0.0000
vt -0.075244 1.121143
vt 1.065888 1.121143
vt 1.065888 -0.598307
vt -0.075244 -0.598307
vt 1.065888 -0.761970
vt -0.075244 -0.761970
vt -0.238907 -0.598307
vt -0.238907 1.121143
vt -0.075244 1.284806
vt 1.065888 1.284806
vt 1.229551 1.121143
vt 1.229551 -0.598307
s 0
usemtl Door
f 2/1/1 4/2/1 7/3/1 6/4/1
f 3/2/2 1/1/2 5/4/2 8/3/2
f 8/5/3 5/6/3 6/4/3 7/3/3
f 2/1/4 6/4/4 5/7/4 1/8/4
f 4/2/5 2/1/5 1/9/5 3/10/5
f 7/3/6 4/2/6 3/11/6 8/12/6
