# Blender 4.0.2
# www.blender.org
mtllib Pillar.mtl
o Pillar
v -0.072030 0.252678 0.133647
v -0.133647 0.252678 0.072030
v -0.115600 0.252678 0.115600
v -0.133647 0.252678 -0.072030
v -0.072030 0.252678 -0.133647
v -0.115600 0.252678 -0.115600
v 0.133647 0.252678 0.072030
v 0.072030 0.252678 0.133647
v 0.115600 0.252678 0.115600
v 0.072030 0.252678 -0.133647
v 0.133647 0.252678 -0.072030
v 0.115600 0.252678 -0.115600
v -0.168278 0.054182 0.106884
v -0.122731 0.000000 0.122731
v -0.106884 0.054182 0.168278
v -0.158853 0.015869 0.114807
v -0.148581 0.023768 0.148581
v -0.114807 0.015869 0.158853
v -0.149566 0.058364 0.149566
v -0.168278 0.054182 -0.106884
v -0.106884 0.054182 -0.168278
v -0.122731 -0.000000 -0.122731
v -0.149566 0.058364 -0.149566
v -0.148581 0.023768 -0.148581
v -0.114807 0.015869 -0.158853
v -0.158853 0.015869 -0.114807
v 0.106884 0.054182 -0.168278
v 0.168278 0.054182 -0.106884
v 0.122731 -0.000000 -0.122731
v 0.149566 0.058364 -0.149566
v 0.148581 0.023768 -0.148581
v 0.158853 0.015869 -0.114807
v 0.114807 0.015869 -0.158853
v 0.168278 0.054182 0.106884
v 0.106884 0.054182 0.168278
v 0.122731 0.000000 0.122731
v 0.149566 0.058364 0.149566
v 0.148581 0.023768 0.148581
v 0.114807 0.015869 0.158853
v 0.158853 0.015869 0.114807
v -0.071645 0.349596 0.133647
v -0.133647 0.349596 0.071644
v -0.115487 0.349596 0.115487
v -0.133647 0.349596 -0.071645
v -0.071645 0.349596 -0.133647
v -0.115487 0.349596 -0.115487
v 0.071645 0.349596 -0.133647
v 0.133647 0.349596 -0.071645
v 0.115487 0.349596 -0.115487
v 0.133647 0.349596 0.071644
v 0.071645 0.349596 0.133647
v 0.115487 0.349596 0.115487
v -0.162162 0.252678 0.100306
v -0.100306 0.252678 0.162162
v -0.144045 0.252678 0.144045
v -0.100306 0.252678 -0.162163
v -0.162162 0.252678 -0.100306
v -0.144045 0.252678 -0.144045
v 0.100306 0.252678 -0.162163
v 0.162162 0.252678 -0.100306
v 0.144045 0.252678 -0.144045
v 0.162162 0.252678 0.100306
v 0.100306 0.252678 0.162162
v 0.144045 0.252678 0.144045
v -0.100231 0.349596 0.162162
v -0.162162 0.349596 0.100231
v -0.144023 0.349596 0.144023
v -0.162162 0.349596 -0.100231
v -0.100231 0.349596 -0.162163
v -0.144023 0.349596 -0.144023
v 0.162162 0.349596 -0.100231
v 0.100231 0.349596 -0.162163
v 0.144023 0.349596 -0.144023
v 0.100231 0.349596 0.162162
v 0.162162 0.349596 0.100231
v 0.144023 0.349596 0.144023
v -0.133647 2.412478 0.072029
v -0.072030 2.412478 0.133646
v -0.115600 2.412478 0.115599
v -0.072030 2.412478 -0.133647
v -0.133647 2.412478 -0.072030
v -0.115600 2.412478 -0.115600
v 0.072030 2.412478 0.133646
v 0.133647 2.412478 0.072029
v 0.115600 2.412478 0.115599
v 0.133647 2.412478 -0.072030
v 0.072030 2.412478 -0.133647
v 0.115600 2.412478 -0.115600
v -0.168278 2.610974 0.106884
v -0.106884 2.610974 0.168277
v -0.122731 2.665156 0.122730
v -0.149566 2.606792 0.149566
v -0.148581 2.641388 0.148581
v -0.114807 2.649287 0.158852
v -0.158853 2.649287 0.114807
v -0.168278 2.610974 -0.106885
v -0.122731 2.665156 -0.122731
v -0.106884 2.610974 -0.168278
v -0.158853 2.649287 -0.114808
v -0.148581 2.641388 -0.148581
v -0.114807 2.649287 -0.158853
v -0.149566 2.606792 -0.149567
v 0.106884 2.610974 -0.168278
v 0.122731 2.665156 -0.122731
v 0.168278 2.610974 -0.106885
v 0.114807 2.649287 -0.158853
v 0.148581 2.641388 -0.148581
v 0.158853 2.649287 -0.114808
v 0.149566 2.606792 -0.149567
v 0.168278 2.610974 0.106884
v 0.122731 2.665156 0.122730
v 0.106884 2.610974 0.168277
v 0.158853 2.649287 0.114807
v 0.148581 2.641388 0.148581
v 0.114807 2.649287 0.158852
v 0.149566 2.606792 0.149566
v -0.133647 2.315560 0.071644
v -0.071645 2.315560 0.133646
v -0.115487 2.315560 0.115486
v -0.071645 2.315560 -0.133647
v -0.133647 2.315560 -0.071645
v -0.115487 2.315560 -0.115487
v 0.133647 2.315560 -0.071645
v 0.071645 2.315560 -0.133647
v 0.115487 2.315560 -0.115487
v 0.071645 2.315560 0.133646
v 0.133647 2.315560 0.071644
v 0.115487 2.315560 0.115486
v -0.100306 2.412478 0.162162
v -0.162162 2.412478 0.100306
v -0.144045 2.412478 0.144045
v -0.162162 2.412478 -0.100307
v -0.100306 2.412478 -0.162163
v -0.144045 2.412478 -0.144046
v 0.162162 2.412478 -0.100307
v 0.100306 2.412478 -0.162163
v 0.144045 2.412478 -0.144046
v 0.100306 2.412478 0.162162
v 0.162162 2.412478 0.100306
v 0.144045 2.412478 0.144045
v -0.162162 2.315560 0.100231
v -0.100231 2.315560 0.162162
v -0.144023 2.315560 0.144023
v -0.100231 2.315560 -0.162163
v -0.162162 2.315560 -0.100232
v -0.144023 2.315560 -0.144024
v 0.100231 2.315560 -0.162163
v 0.162162 2.315560 -0.100232
v 0.144023 2.315560 -0.144024
v 0.162162 2.315560 0.100231
v 0.100231 2.315560 0.162162
v 0.144023 2.315560 0.144023
vn -0.0000 -1.0000 -0.0000
vn 0.2115 -0.9542 0.2115
vn -0.2115 -0.9542 0.2115
vn -0.2115 -0.9542 -0.2115
vn 0.2115 -0.9542 -0.2115
vn -0.9827 0.0057 0.1854
vn -0.9644 0.1989 0.1745
vn -0.9644 0.1989 -0.1745
vn -0.9827 0.0057 -0.1854
vn -0.1951 -0.0000 0.9808
vn 0.1951 -0.0000 0.9808
vn 0.9827 0.0057 -0.1854
vn 0.9644 0.1989 -0.1745
vn 0.9644 0.1989 0.1745
vn 0.9827 0.0057 0.1854
vn -0.9808 0.0002 -0.1952
vn -0.9808 0.0002 0.1952
vn -0.9808 0.0002 0.1950
vn -0.9808 0.0002 -0.1950
vn 0.1854 -0.0057 0.9827
vn -0.1854 -0.0057 0.9827
vn -0.1745 -0.1989 0.9644
vn 0.1745 -0.1989 0.9644
vn -0.1952 0.0002 0.9808
vn 0.1952 0.0002 0.9808
vn 0.1950 0.0002 0.9808
vn -0.1950 0.0002 0.9808
vn 0.1952 0.0002 -0.9808
vn -0.1952 0.0002 -0.9808
vn -0.1950 0.0002 -0.9808
vn 0.1950 0.0002 -0.9808
vn 0.9808 0.0002 0.1952
vn 0.9808 0.0002 -0.1952
vn 0.9808 0.0002 -0.1950
vn 0.9808 0.0002 0.1950
vn 0.1951 -0.0000 -0.9808
vn -0.1951 -0.0000 -0.9808
vn 0.9808 -0.0000 0.1951
vn 0.9808 -0.0000 -0.1951
vn -0.1854 0.0057 -0.9827
vn -0.1745 0.1989 -0.9644
vn 0.1745 0.1989 -0.9644
vn 0.1854 0.0057 -0.9827
vn -0.0000 1.0000 -0.0000
vn 0.2115 0.9542 -0.2115
vn -0.2115 0.9542 -0.2115
vn -0.2115 0.9542 0.2115
vn 0.2115 0.9542 0.2115
vn 0.9827 -0.0057 -0.1854
vn 0.9827 -0.0057 0.1854
vn 0.9644 -0.1989 0.1745
vn 0.9644 -0.1989 -0.1745
vn -0.9808 -0.0002 -0.1952
vn -0.9808 -0.0002 -0.1950
vn -0.9808 -0.0002 0.1950
vn -0.9808 -0.0002 0.1952
vn -0.1952 -0.0002 0.9808
vn -0.1950 -0.0002 0.9808
vn 0.1950 -0.0002 0.9808
vn 0.1952 -0.0002 0.9808
vn 0.1952 -0.0002 -0.9808
vn 0.1950 -0.0002 -0.9808
vn -0.1950 -0.0002 -0.9808
vn -0.1952 -0.0002 -0.9808
vn 0.9808 -0.0002 0.1952
vn 0.9808 -0.0002 0.1950
vn 0.9808 -0.0002 -0.1950
vn 0.9808 -0.0002 -0.1952
vn -0.9827 -0.0057 0.1854
vn -0.9827 -0.0057 -0.1854
vn -0.9644 -0.1989 -0.1745
vn -0.9644 -0.1989 0.1745
vn -0.1854 -0.0057 -0.9827
vn 0.1854 -0.0057 -0.9827
vn 0.1745 -0.1989 -0.9644
vn -0.1745 -0.1989 -0.9644
vn -0.9808 -0.0000 -0.1951
vn -0.9808 -0.0000 0.1951
vn -0.7723 -0.6017 0.2039
vn -0.6396 -0.4264 0.6396
vn -0.7051 0.0749 0.7051
vn -0.2039 -0.6017 0.7723
vn -0.1854 0.0057 0.9827
vn -0.7051 0.0749 -0.7051
vn -0.6396 -0.4264 -0.6396
vn -0.7723 -0.6017 -0.2039
vn -0.2039 -0.6017 -0.7723
vn 0.7051 0.0749 -0.7051
vn 0.6396 -0.4264 -0.6396
vn 0.2039 -0.6017 -0.7723
vn 0.7723 -0.6017 -0.2039
vn 0.7051 0.0749 0.7051
vn 0.6396 -0.4264 0.6396
vn 0.7723 -0.6017 0.2039
vn 0.1854 0.0057 0.9827
vn 0.2039 -0.6017 0.7723
vn -0.7051 -0.0749 0.7051
vn -0.6396 0.4264 0.6396
vn -0.7723 0.6017 0.2039
vn -0.2039 0.6017 0.7723
vn -0.7723 0.6017 -0.2039
vn -0.6396 0.4264 -0.6396
vn -0.7051 -0.0749 -0.7051
vn -0.2039 0.6017 -0.7723
vn 0.2039 0.6017 -0.7723
vn 0.6396 0.4264 -0.6396
vn 0.7051 -0.0749 -0.7051
vn 0.7723 0.6017 -0.2039
vn 0.7723 0.6017 0.2039
vn 0.6396 0.4264 0.6396
vn 0.7051 -0.0749 0.7051
vn 0.2039 0.6017 0.7723
vn -0.1745 0.1989 0.9644
vn -0.6864 0.2400 0.6864
vn -0.6864 0.2400 -0.6864
vn 0.6864 0.2400 -0.6864
vn 0.1745 0.1989 0.9644
vn 0.6864 0.2400 0.6864
vn 0.7071 0.0003 -0.7071
vn 0.7071 0.0003 0.7071
vn -0.7071 0.0003 0.7071
vn -0.7071 0.0003 -0.7071
vn -0.6864 -0.2400 0.6864
vn -0.6864 -0.2400 -0.6864
vn 0.6864 -0.2400 -0.6864
vn 0.6864 -0.2400 0.6864
vn 0.7071 -0.0003 -0.7071
vn 0.7071 -0.0003 0.7071
vn -0.7071 -0.0003 0.7071
vn -0.7071 -0.0003 -0.7071
vn 0.7071 -0.0000 -0.7071
vn -0.7071 -0.0000 -0.7071
vn 0.7071 -0.0000 0.7071
vn -0.7071 -0.0000 0.7071
vt 0.198424 0.668755
vt 0.198424 0.753527
vt 0.215204 0.770167
vt 0.215204 0.652116
vt 0.198424 0.096207
vt 0.198424 0.180979
vt 0.215204 0.197618
vt 0.215204 0.079567
vt 0.373278 -0.210331
vt 0.373278 -0.003399
vt 0.580210 -0.003399
vt 0.580210 -0.210331
vt 0.679508 0.287293
vt 0.873423 0.273553
vt 0.873423 0.112047
vt 0.679508 0.098307
vt 0.198424 0.287056
vt 0.198424 0.371828
vt 0.215204 0.388468
vt 0.215204 0.270417
vt 0.189718 1.386563
vt 0.189718 -0.505451
vt 0.051819 -0.505451
vt 0.051819 1.386563
vt 0.679508 -0.312037
vt 0.873423 -0.325777
vt 0.873423 -0.487283
vt 0.679508 -0.501023
vt 0.215204 0.461266
vt 0.215204 0.579317
vt 0.272235 0.579273
vt 0.272235 0.461310
vt 0.320492 0.586958
vt 0.320492 0.397972
vt 0.126577 0.411712
vt 0.126577 0.573218
vt 0.272235 0.770122
vt 0.272235 0.652160
vt 0.272235 0.388423
vt 0.272235 0.270461
vt 0.272235 0.197574
vt 0.272235 0.079612
vt 0.704197 -0.505451
vt 0.566298 -0.505451
vt 0.566298 1.386563
vt 0.704197 1.386563
vt 0.198424 0.477906
vt 0.198424 0.562678
vt 0.961437 1.386563
vt 0.961437 -0.505451
vt 0.823537 -0.505451
vt 0.823537 1.386563
vt 0.679508 -0.012372
vt 0.873423 -0.026112
vt 0.873423 -0.187618
vt 0.679508 -0.201358
vt 0.049602 0.369922
vt 0.066382 0.386561
vt 0.066382 0.268510
vt 0.049602 0.285150
vt 0.289015 0.180752
vt 0.289015 0.096433
vt 0.272235 0.079612
vt 0.272235 0.197574
vt 0.289015 0.371602
vt 0.289015 0.287283
vt 0.049602 0.751620
vt 0.066382 0.768260
vt 0.066382 0.650209
vt 0.049602 0.666848
vt 0.419790 -0.210331
vt 0.419790 -0.003399
vt 0.626722 -0.003399
vt 0.626722 -0.210331
vt 0.049602 0.179072
vt 0.066382 0.195712
vt 0.066382 0.077661
vt 0.049602 0.094300
vt 0.049602 0.560771
vt 0.066382 0.577411
vt 0.066382 0.459360
vt 0.049602 0.475999
vt 0.140193 0.094527
vt 0.123413 0.077705
vt 0.123413 0.195668
vt 0.140193 0.178846
vt 0.320492 -0.312038
vt 0.320492 -0.501023
vt 0.126577 -0.487283
vt 0.126577 -0.325777
vt 0.123413 0.386517
vt 0.123413 0.268555
vt 0.123413 0.195668
vt 0.123413 0.077705
vt 0.123413 0.577366
vt 0.123413 0.459404
vt 0.123413 0.768215
vt 0.123413 0.650253
vt 0.140193 0.476226
vt 0.140193 0.560544
vt 0.320492 0.287293
vt 0.320492 0.098307
vt 0.126577 0.112047
vt 0.126577 0.273553
vt 0.140193 0.667075
vt 0.123413 0.768216
vt 0.140193 0.751394
vt 0.320492 -0.012372
vt 0.320492 -0.201358
vt 0.126577 -0.187618
vt 0.126577 -0.026112
vt 0.289015 0.562451
vt 0.289015 0.478132
vt 0.272235 0.461310
vt 0.289015 0.753300
vt 0.289015 0.668982
vt 0.272235 0.770122
vt 0.140193 0.285376
vt 0.123413 0.268555
vt 0.140193 0.369695
vt 0.446958 1.386563
vt 0.446958 -0.505451
vt 0.309058 -0.505451
vt 0.309058 1.386563
vt 0.626576 0.289586
vt 0.626576 0.318058
vt 0.689371 0.342632
vt 0.326911 -0.010079
vt 0.326911 0.018394
vt 0.379958 0.042967
vt 0.679508 0.397972
vt 0.689371 0.342632
vt 0.657830 0.342632
vt 0.626576 0.395679
vt 0.689371 0.042967
vt 0.628803 0.034776
vt 0.626576 0.096014
vt 0.626576 -0.010079
vt 0.573530 0.042967
vt 0.626576 -0.010079
vt 0.689371 -0.256698
vt 0.636994 -0.256698
vt 0.626576 -0.203651
vt 0.626576 -0.309744
vt 0.573530 -0.256698
vt 0.689371 -0.556363
vt 0.657830 -0.556363
vt 0.626576 -0.503316
vt 0.679508 0.586958
vt 0.626576 0.589251
vt 0.626576 0.617723
vt 0.689371 0.642297
vt 0.379958 -0.256698
vt 0.351485 -0.256698
vt 0.326911 -0.203651
vt 0.310629 0.342633
vt 0.342170 0.342633
vt 0.373423 0.289586
vt 0.373423 0.395679
vt 0.373423 0.367206
vt 0.620042 0.042967
vt 0.648514 0.042967
vt 0.673088 -0.010079
vt 0.373423 0.096014
vt 0.363006 0.042967
vt 0.310629 0.042967
vt 0.373423 -0.010079
vt 0.426470 0.042967
vt 0.310629 0.042967
vt 0.373423 -0.010079
vt 0.373423 -0.203651
vt 0.371197 -0.248506
vt 0.310629 -0.256698
vt 0.426470 -0.256698
vt 0.373423 -0.203651
vt 0.373423 -0.309744
vt 0.373423 -0.503316
vt 0.373423 -0.531789
vt 0.310629 -0.556363
vt 0.673088 -0.203651
vt 0.673088 -0.232124
vt 0.620042 -0.256698
vt 0.310629 0.642298
vt 0.342170 0.642298
vt 0.373423 0.589251
vt 0.873423 0.411712
vt 0.873423 0.342632
vt 0.873423 0.042967
vt 0.873423 -0.256698
vt 0.873423 0.573218
vt 0.873423 0.642297
vt 0.873423 -0.556363
vt 0.626576 -0.010079
vt 0.198424 0.789786
vt 0.204543 0.795905
vt 0.204543 0.053829
vt 0.198424 0.059948
vt 0.204543 0.244679
vt 0.198424 0.250798
vt 0.198424 0.217237
vt 0.204543 0.223356
vt 0.289015 0.250798
vt 0.282909 0.244692
vt 0.282909 0.223343
vt 0.289015 0.217237
vt 0.282909 0.795892
vt 0.289015 0.789786
vt 0.289015 0.059948
vt 0.282909 0.053842
vt 0.272235 0.234017
vt 0.215204 0.234017
vt 0.215204 0.806566
vt 0.272235 0.806566
vt 0.272235 0.043168
vt 0.215204 0.043168
vt 0.272235 0.615717
vt 0.215204 0.615717
vt 0.215204 0.424867
vt 0.272235 0.424867
vt 0.282909 0.414193
vt 0.289015 0.408087
vt 0.289015 0.441647
vt 0.282909 0.435541
vt 0.289015 0.632496
vt 0.282909 0.626391
vt 0.282909 0.605042
vt 0.289015 0.598936
vt 0.204543 0.626378
vt 0.198424 0.632496
vt 0.198424 0.598936
vt 0.204543 0.605055
vt 0.198424 0.408087
vt 0.204543 0.414206
vt 0.204543 0.435528
vt 0.198424 0.441647
vt 0.126577 0.342633
vt 0.126577 0.042967
vt 0.126577 -0.256698
vt 0.126577 -0.556363
vt 0.126577 0.642298
vt 0.373423 -0.010079
vt 0.049602 0.787879
vt 0.055721 0.793998
vt 0.055721 0.051923
vt 0.049602 0.058042
vt 0.055721 0.624471
vt 0.049602 0.630590
vt 0.049602 0.597030
vt 0.055721 0.603149
vt 0.140193 0.630590
vt 0.134087 0.624484
vt 0.134087 0.603136
vt 0.140193 0.597030
vt 0.134087 0.793985
vt 0.140193 0.787879
vt 0.140193 0.058042
vt 0.134087 0.051936
vt 0.123413 0.613810
vt 0.066382 0.613810
vt 0.066382 0.804659
vt 0.123413 0.804659
vt 0.123413 0.041262
vt 0.066382 0.041262
vt 0.123413 0.232111
vt 0.066382 0.232111
vt 0.066382 0.422960
vt 0.123413 0.422960
vt 0.134087 0.412286
vt 0.140193 0.406180
vt 0.140193 0.439740
vt 0.134087 0.433634
vt 0.140193 0.248891
vt 0.134087 0.242785
vt 0.134087 0.221437
vt 0.140193 0.215331
vt 0.055721 0.242772
vt 0.049602 0.248891
vt 0.049602 0.215331
vt 0.055721 0.221450
vt 0.049602 0.406180
vt 0.055721 0.412299
vt 0.055721 0.433621
vt 0.049602 0.439740
vt 0.763867 1.386563
vt 0.763867 -0.505451
vt 0.506628 -0.505451
vt 0.506628 1.386563
vt 1.021107 1.386563
vt 1.021107 -0.505451
vt -0.007851 -0.505451
vt -0.007851 1.386563
vt 0.249388 -0.505451
vt 0.249388 1.386563
s 1
usemtl wall
f 36/9/2 14/10/3 22/11/4 29/12/5
f 13/13/6 2/14/7 4/15/8 20/16/9
f 118/21/10 41/22/10 51/23/11 126/24/11
f 28/25/12 11/26/13 7/27/14 34/28/15
f 112/33/20 90/34/21 78/35/22 83/36/23
f 47/43/36 45/44/37 120/45/37 124/46/36
f 127/49/38 50/50/38 48/51/39 123/52/39
f 21/53/40 5/54/41 10/55/42 27/56/43
f 104/71/45 97/72/46 91/73/47 111/74/48
f 105/87/49 110/88/50 84/89/51 86/90/52
f 89/101/69 96/102/70 81/103/71 77/104/72
f 98/108/73 103/109/74 87/110/75 80/111/76
f 121/121/77 44/122/77 42/123/78 117/124/78
f 13/13/6 16/125/79 17/126/80 19/127/81
f 14/10/3 18/128/82 17/129/80 16/130/79
f 15/131/83 19/132/81 17/133/80 18/134/82
f 20/16/9 23/135/84 24/136/85 26/137/86
f 21/53/40 25/138/87 24/136/85 23/135/84
f 22/11/4 26/139/86 24/136/85 25/140/87
f 27/56/43 30/141/88 31/142/89 33/143/90
f 28/25/12 32/144/91 31/142/89 30/141/88
f 29/12/5 33/143/90 31/142/89 32/145/91
f 34/28/15 37/146/92 38/147/93 40/148/94
f 35/149/95 39/150/96 38/151/93 37/152/92
f 36/9/2 40/153/94 38/154/93 39/155/96
f 89/101/69 92/156/97 93/157/98 95/158/99
f 90/34/21 94/159/100 93/160/98 92/156/97
f 91/73/47 95/161/99 93/162/98 94/163/100
f 96/102/70 99/164/101 100/165/102 102/166/103
f 97/72/46 101/167/104 100/165/102 99/168/101
f 98/108/73 102/169/103 100/165/102 101/170/104
f 103/109/74 106/171/105 107/172/106 109/173/107
f 104/71/45 108/174/108 107/172/106 106/175/105
f 105/87/49 109/173/107 107/172/106 108/176/108
f 110/88/50 113/177/109 114/178/110 116/179/111
f 111/74/48 115/180/112 114/181/110 113/182/109
f 112/33/20 116/183/111 114/184/110 115/185/112
f 15/131/83 1/186/113 3/187/114 19/132/81
f 19/132/81 3/187/114 2/14/7 13/13/6
f 5/54/41 21/53/40 23/135/84 6/188/115
f 6/188/115 23/135/84 20/16/9 4/15/8
f 11/26/13 28/25/12 30/141/88 12/189/116
f 12/189/116 30/141/88 27/56/43 10/55/42
f 8/190/117 35/149/95 37/152/92 9/191/118
f 9/192/118 37/146/92 34/28/15 7/27/14
f 35/149/95 15/131/83 18/134/82 39/150/96
f 39/155/96 18/128/82 14/10/3 36/9/2
f 28/25/12 34/28/15 40/148/94 32/144/91
f 32/145/91 40/153/94 36/9/2 29/12/5
f 21/53/40 27/56/43 33/143/90 25/193/87
f 25/193/87 33/143/90 29/12/5 22/11/4
f 13/13/6 20/16/9 26/137/86 16/125/79
f 16/130/79 26/139/86 22/11/4 14/10/3
f 89/101/69 77/104/72 79/236/123 92/156/97
f 92/156/97 79/236/123 78/35/22 90/34/21
f 81/103/71 96/102/70 102/166/103 82/237/124
f 82/237/124 102/166/103 98/108/73 80/111/76
f 87/110/75 103/109/74 109/173/107 88/238/125
f 88/238/125 109/173/107 105/87/49 86/90/52
f 84/89/51 110/88/50 116/179/111 85/239/126
f 85/240/126 116/183/111 112/33/20 83/36/23
f 111/74/48 91/73/47 94/163/100 115/180/112
f 115/185/112 94/159/100 90/34/21 112/33/20
f 104/71/45 111/74/48 113/182/109 108/174/108
f 108/176/108 113/177/109 110/88/50 105/87/49
f 97/72/46 104/71/45 106/175/105 101/241/104
f 101/241/104 106/175/105 103/109/74 98/108/73
f 91/73/47 97/72/46 99/168/101 95/161/99
f 95/158/99 99/164/101 96/102/70 89/101/69
f 47/43/36 124/46/36 125/284/131 49/285/131
f 49/285/131 125/284/131 123/52/39 48/51/39
f 120/45/37 45/44/37 46/286/132 122/287/132
f 122/287/132 46/286/132 44/122/77 121/121/77
f 50/50/38 127/49/38 128/288/133 52/289/133
f 52/290/133 128/291/133 126/24/11 51/23/11
f 117/124/78 42/123/78 43/292/134 119/293/134
f 119/293/134 43/292/134 41/22/10 118/21/10
f 35/149/95 8/190/117 1/186/113 15/131/83
usemtl tops
f 1/1/1 8/2/1 63/3/1 54/4/1
f 7/5/1 11/6/1 60/7/1 62/8/1
f 10/17/1 5/18/1 56/19/1 59/20/1
f 57/29/16 53/30/17 66/31/18 68/32/19
f 54/4/24 63/3/25 74/37/26 65/38/27
f 59/20/28 56/19/29 69/39/30 72/40/31
f 62/8/32 60/7/33 71/41/34 75/42/35
f 4/47/1 2/48/1 53/30/1 57/29/1
f 81/57/44 132/58/44 130/59/44 77/60/44
f 48/61/44 50/62/44 75/63/44 71/64/44
f 45/65/44 47/66/44 72/40/44 69/39/44
f 84/67/44 139/68/44 135/69/44 86/70/44
f 78/75/44 129/76/44 138/77/44 83/78/44
f 87/79/44 136/80/44 133/81/44 80/82/44
f 126/83/1 151/84/1 142/85/1 118/86/1
f 132/58/53 145/91/54 141/92/55 130/59/56
f 129/76/57 142/93/58 151/94/59 138/77/60
f 136/80/61 147/95/62 144/96/63 133/81/64
f 139/68/65 150/97/66 148/98/67 135/69/68
f 120/99/1 144/96/1 147/95/1 124/100/1
f 123/105/1 148/98/1 150/106/1 127/107/1
f 42/112/44 44/113/44 68/114/44 66/31/44
f 51/115/44 41/116/44 65/38/44 74/117/44
f 117/118/1 141/119/1 145/91/1 121/120/1
f 63/3/1 8/2/1 9/194/1 64/195/1
f 64/196/1 9/197/1 7/5/1 62/8/1
f 10/17/1 59/20/1 61/198/1 12/199/1
f 12/200/1 61/201/1 60/7/1 11/6/1
f 72/40/44 47/66/44 49/202/44 73/203/44
f 73/204/44 49/205/44 48/61/44 71/64/44
f 51/115/44 74/117/44 76/206/44 52/207/44
f 52/208/44 76/209/44 75/63/44 50/62/44
f 59/20/28 72/40/31 73/210/119 61/211/119
f 61/211/119 73/210/119 71/41/34 60/7/33
f 74/37/26 63/3/25 64/212/120 76/213/120
f 76/214/120 64/215/120 62/8/32 75/42/35
f 54/4/24 65/38/27 67/216/121 55/217/121
f 55/217/121 67/216/121 66/31/18 53/30/17
f 69/39/30 56/19/29 58/218/122 70/219/122
f 70/219/122 58/218/122 57/29/16 68/32/19
f 45/65/44 69/39/44 70/220/44 46/221/44
f 46/222/44 70/223/44 68/114/44 44/113/44
f 65/38/44 41/116/44 43/224/44 67/225/44
f 67/226/44 43/227/44 42/112/44 66/31/44
f 1/1/1 54/4/1 55/228/1 3/229/1
f 3/230/1 55/231/1 53/30/1 2/48/1
f 56/19/1 5/18/1 6/232/1 58/233/1
f 58/234/1 6/235/1 4/47/1 57/29/1
f 139/68/44 84/67/44 85/242/44 140/243/44
f 140/244/44 85/245/44 83/78/44 138/77/44
f 86/70/44 135/69/44 137/246/44 88/247/44
f 88/248/44 137/249/44 136/80/44 87/79/44
f 148/98/1 123/105/1 125/250/1 149/251/1
f 149/252/1 125/253/1 124/100/1 147/95/1
f 127/107/1 150/106/1 152/254/1 128/255/1
f 128/256/1 152/257/1 151/84/1 126/83/1
f 135/69/68 148/98/67 149/258/127 137/259/127
f 137/259/127 149/258/127 147/95/62 136/80/61
f 150/97/66 139/68/65 140/260/128 152/261/128
f 152/262/128 140/263/128 138/77/60 151/94/59
f 130/59/56 141/92/55 143/264/129 131/265/129
f 131/265/129 143/264/129 142/93/58 129/76/57
f 145/91/54 132/58/53 134/266/130 146/267/130
f 146/267/130 134/266/130 133/81/64 144/96/63
f 121/120/1 145/91/1 146/268/1 122/269/1
f 122/270/1 146/271/1 144/96/1 120/99/1
f 141/119/1 117/118/1 119/272/1 143/273/1
f 143/274/1 119/275/1 118/86/1 142/85/1
f 77/60/44 130/59/44 131/276/44 79/277/44
f 79/278/44 131/279/44 129/76/44 78/75/44
f 132/58/44 81/57/44 82/280/44 134/281/44
f 134/282/44 82/283/44 80/82/44 133/81/44
