# Blender 4.0.2
# www.blender.org
mtllib PillarBroken.mtl
o PillarBroken
v -0.012660 1.345049 0.133647
v -0.133647 1.346630 0.043674
v -0.054783 1.481085 -0.133647
v 0.027664 1.519066 -0.133647
v -0.005526 1.454275 -0.044193
v -0.002891 1.319017 -0.133647
v -0.072653 0.252678 0.133647
v -0.133647 0.252678 0.072653
v -0.115782 0.252678 0.115782
v -0.133647 0.252678 -0.072653
v -0.072653 0.252678 -0.133647
v -0.115782 0.252678 -0.115782
v 0.133647 0.252678 0.072653
v 0.072653 0.252678 0.133647
v 0.115782 0.252678 0.115782
v 0.072653 0.252678 -0.133647
v 0.133647 0.252678 -0.072653
v 0.115782 0.252678 -0.115782
v -0.168278 0.054182 0.107483
v -0.122731 0.000000 0.122731
v -0.107483 0.054182 0.168278
v -0.158853 0.015869 0.115107
v -0.148709 0.023759 0.148709
v -0.115107 0.015869 0.158853
v -0.149749 0.058323 0.149749
v -0.168278 0.054182 -0.107483
v -0.107483 0.054182 -0.168278
v -0.122731 -0.000000 -0.122731
v -0.149749 0.058323 -0.149749
v -0.148709 0.023759 -0.148709
v -0.115107 0.015869 -0.158853
v -0.158853 0.015869 -0.115107
v 0.107483 0.054182 -0.168278
v 0.168278 0.054182 -0.107483
v 0.122731 -0.000000 -0.122731
v 0.149749 0.058323 -0.149749
v 0.148709 0.023759 -0.148709
v 0.158853 0.015869 -0.115107
v 0.115107 0.015869 -0.158853
v 0.168278 0.054182 0.107483
v 0.107483 0.054182 0.168278
v 0.122731 0.000000 0.122731
v 0.149749 0.058323 0.149749
v 0.148709 0.023759 0.148709
v 0.115107 0.015869 0.158853
v 0.158853 0.015869 0.115107
v -0.072802 0.349596 0.133647
v -0.133647 0.349596 0.072802
v -0.115826 0.349596 0.115826
v -0.133647 0.349596 -0.072802
v -0.072802 0.349596 -0.133647
v -0.115826 0.349596 -0.115826
v 0.072802 0.349596 -0.133647
v 0.133647 0.349596 -0.072802
v 0.115826 0.349596 -0.115826
v 0.133647 0.349596 0.072802
v 0.072802 0.349596 0.133647
v 0.115826 0.349596 0.115826
v -0.162162 0.252678 0.101049
v -0.101049 0.252678 0.162162
v -0.144263 0.252678 0.144263
v -0.101049 0.252678 -0.162163
v -0.162162 0.252678 -0.101049
v -0.144263 0.252678 -0.144263
v 0.101049 0.252678 -0.162163
v 0.162162 0.252678 -0.101049
v 0.144263 0.252678 -0.144263
v 0.162162 0.252678 0.101049
v 0.101049 0.252678 0.162162
v 0.144263 0.252678 0.144263
v -0.101078 0.349596 0.162162
v -0.162162 0.349596 0.101078
v -0.144271 0.349596 0.144271
v -0.162162 0.349596 -0.101078
v -0.101078 0.349596 -0.162163
v -0.144271 0.349596 -0.144271
v 0.162162 0.349596 -0.101078
v 0.101078 0.349596 -0.162163
v 0.144271 0.349596 -0.144271
v 0.101078 0.349596 0.162162
v 0.162162 0.349596 0.101078
v 0.144271 0.349596 0.144271
v 0.133647 1.530573 -0.073027
v 0.073027 1.539964 -0.133647
v 0.115892 1.548781 -0.115892
v 0.073027 1.379192 0.133647
v 0.133647 1.440663 0.073027
v 0.115892 1.407201 0.115892
v -0.073027 1.472681 -0.133647
v -0.133647 1.411209 -0.073027
v -0.115892 1.443109 -0.115892
v -0.133647 1.284231 0.073027
v -0.073027 1.250404 0.133647
v -0.115892 1.220945 0.115892
vn -0.0000 -1.0000 -0.0000
vn 0.2106 -0.9546 0.2106
vn -0.2106 -0.9546 0.2106
vn -0.2106 -0.9546 -0.2106
vn 0.2106 -0.9546 -0.2106
vn -0.9826 0.0053 0.1856
vn -0.9644 0.1989 0.1745
vn -0.9644 0.1989 -0.1745
vn -0.9826 0.0053 -0.1856
vn -0.1092 -0.0000 0.9940
vn -0.1950 -0.0000 0.9808
vn 0.1951 -0.0000 0.9808
vn 0.2492 -0.0001 0.9685
vn -0.0000 -0.0000 1.0000
vn 0.9826 0.0053 -0.1856
vn 0.9644 0.1989 -0.1745
vn 0.9644 0.1989 0.1745
vn 0.9826 0.0053 0.1856
vn -0.9808 -0.0001 -0.1951
vn -0.9808 -0.0001 0.1951
vn -0.3487 0.8082 0.4746
vn -0.3479 0.8081 0.4753
vn -0.3368 0.8073 0.4846
vn -0.1951 -0.0001 0.9808
vn 0.1951 -0.0001 0.9808
vn 0.1951 -0.0001 -0.9808
vn -0.1951 -0.0001 -0.9808
vn 0.9808 -0.0001 0.1951
vn 0.9808 -0.0001 -0.1951
vn 0.1951 -0.0000 -0.9808
vn -0.1951 -0.0000 -0.9808
vn -0.0000 -0.0000 -1.0000
vn 0.2366 -0.0000 -0.9716
vn -0.1300 -0.0000 -0.9915
vn -0.1856 0.0053 -0.9826
vn -0.1745 0.1989 -0.9644
vn 0.1745 0.1989 -0.9644
vn 0.1856 0.0053 -0.9826
vn 0.9928 -0.0000 0.1200
vn 0.9808 -0.0000 0.1951
vn 0.9808 -0.0000 -0.1951
vn 0.9668 -0.0000 -0.2556
vn -0.9653 -0.0001 -0.2613
vn -0.9808 -0.0000 -0.1951
vn -0.9808 -0.0000 0.1950
vn -0.9973 -0.0000 0.0735
vn -1.0000 -0.0000 -0.0000
vn -0.3619 0.8089 0.4633
vn -0.0000 1.0000 -0.0000
vn -0.9573 0.1462 -0.2493
vn 0.8740 0.2798 -0.3974
vn -0.5551 0.3541 0.7527
vn -0.7715 -0.6028 0.2034
vn -0.6390 -0.4282 0.6390
vn -0.7052 0.0736 0.7052
vn -0.2034 -0.6028 0.7715
vn -0.1856 0.0053 0.9826
vn -0.7052 0.0736 -0.7052
vn -0.6390 -0.4282 -0.6390
vn -0.7715 -0.6028 -0.2034
vn -0.2034 -0.6028 -0.7715
vn 0.7052 0.0736 -0.7052
vn 0.6390 -0.4282 -0.6390
vn 0.2034 -0.6028 -0.7715
vn 0.7715 -0.6028 -0.2034
vn 0.7052 0.0736 0.7052
vn 0.6390 -0.4282 0.6390
vn 0.7715 -0.6028 0.2034
vn 0.1856 0.0053 0.9826
vn 0.2034 -0.6028 0.7715
vn -0.1745 0.1989 0.9644
vn -0.6865 0.2399 0.6865
vn -0.6865 0.2399 -0.6865
vn 0.6865 0.2399 -0.6865
vn 0.1745 0.1989 0.9644
vn 0.6865 0.2399 0.6865
vn 0.7071 -0.0001 -0.7071
vn 0.7071 -0.0001 0.7071
vn -0.7071 -0.0001 0.7071
vn -0.7071 -0.0001 -0.7071
vn -0.5897 -0.0001 -0.8076
vn -0.7302 -0.0001 0.6832
vn 0.6857 -0.0001 -0.7279
vn 0.8042 -0.0001 0.5943
vt 0.198424 0.668388
vt 0.198424 0.753894
vt 0.215204 0.770604
vt 0.215204 0.651679
vt 0.198424 0.095840
vt 0.198424 0.181345
vt 0.215204 0.198055
vt 0.215204 0.079130
vt 0.373278 -0.210331
vt 0.373278 -0.003399
vt 0.580210 -0.003399
vt 0.580210 -0.210331
vt 0.679508 0.287824
vt 0.873423 0.274252
vt 0.873423 0.111348
vt 0.679508 0.097776
vt 0.198424 0.286690
vt 0.198424 0.372195
vt 0.215204 0.388905
vt 0.215204 0.269980
vt 0.191049 0.361473
vt 0.190833 -0.505451
vt 0.050705 -0.505451
vt 0.050488 0.485416
vt 0.132952 0.452558
vt 0.679508 -0.311506
vt 0.873423 -0.325079
vt 0.873423 -0.487982
vt 0.679508 -0.501554
vt 0.215204 0.460829
vt 0.215204 0.579754
vt 0.272235 0.579771
vt 0.272235 0.460812
vt 0.848800 0.792334
vt 1.021107 0.782966
vt 1.021107 0.622315
vt 1.003946 0.549822
vt 0.962767 0.544575
vt 0.822207 0.631103
vt 0.780996 0.676755
vt 0.763867 0.731249
vt 0.763867 0.779315
vt 0.215204 0.770604
vt 0.272235 0.770621
vt 0.272235 0.651662
vt 0.215204 0.388905
vt 0.272235 0.388922
vt 0.272235 0.269962
vt 0.215204 0.079130
vt 0.215204 0.198055
vt 0.272235 0.198072
vt 0.272235 0.079113
vt 0.705312 -0.505451
vt 0.565184 -0.505451
vt 0.632465 0.427504
vt 0.661871 0.620029
vt 0.705528 0.640141
vt 0.198424 0.477539
vt 0.198424 0.563044
vt 0.565184 -0.505451
vt 0.564967 0.575388
vt 0.582525 0.583477
vt 0.679508 -0.011841
vt 0.873423 -0.025414
vt 0.873423 -0.188317
vt 0.679508 -0.201889
vt 0.962767 0.544575
vt 0.962551 -0.505451
vt 0.822423 -0.505451
vt 0.822207 0.631103
vt 0.448288 0.516230
vt 0.448072 -0.505451
vt 0.307944 -0.505451
vt 0.307728 0.394027
vt 0.335976 0.454079
vt 0.763867 0.886007
vt 0.780879 0.932607
vt 0.822207 0.963747
vt 0.934519 0.989751
vt 0.763867 0.866675
vt 0.289015 0.181433
vt 0.289015 0.095752
vt 0.289015 0.563132
vt 0.289015 0.477451
vt 0.289015 0.753982
vt 0.289015 0.668301
vt 0.563959 0.567751
vt 0.683772 0.574915
vt 0.267865 0.405813
vt 0.237713 0.336573
vt 0.276812 0.471571
vt 0.289015 0.372283
vt 0.289015 0.286602
vt 0.626576 0.289839
vt 0.626576 0.318166
vt 0.689275 0.342632
vt 0.326911 -0.009826
vt 0.326911 0.018501
vt 0.379705 0.042967
vt 0.679508 0.397441
vt 0.689275 0.342632
vt 0.657781 0.342632
vt 0.626576 0.395426
vt 0.689275 0.042967
vt 0.628823 0.034812
vt 0.626576 0.095761
vt 0.626576 -0.009826
vt 0.573783 0.042967
vt 0.626576 -0.009826
vt 0.689275 -0.256698
vt 0.636978 -0.256698
vt 0.626576 -0.203904
vt 0.626576 -0.309491
vt 0.573783 -0.256698
vt 0.689275 -0.556363
vt 0.657781 -0.556363
vt 0.626576 -0.503569
vt 0.679508 0.587489
vt 0.626576 0.589504
vt 0.626576 0.617831
vt 0.689275 0.642298
vt 0.379705 -0.256698
vt 0.351377 -0.256698
vt 0.326911 -0.203904
vt 0.873423 0.411013
vt 0.873423 0.342632
vt 0.873423 0.042967
vt 0.873423 -0.256698
vt 0.873423 0.573916
vt 0.873423 0.642297
vt 0.873423 -0.556363
vt 0.626576 -0.009826
vt 0.198424 0.789786
vt 0.204671 0.796033
vt 0.204671 0.053701
vt 0.198424 0.059948
vt 0.204671 0.244551
vt 0.198424 0.250798
vt 0.198424 0.217237
vt 0.204671 0.223484
vt 0.289015 0.250798
vt 0.282763 0.244546
vt 0.282763 0.223489
vt 0.289015 0.217237
vt 0.282763 0.796038
vt 0.289015 0.789786
vt 0.289015 0.059948
vt 0.282763 0.053696
vt 0.272235 0.234017
vt 0.215204 0.234017
vt 0.215204 0.806566
vt 0.272235 0.806566
vt 0.272235 0.043168
vt 0.215204 0.043168
vt 0.272235 0.615717
vt 0.215204 0.615717
vt 0.215204 0.424867
vt 0.272235 0.424867
vt 0.282763 0.414339
vt 0.289015 0.408087
vt 0.289015 0.441647
vt 0.282763 0.435395
vt 0.289015 0.632496
vt 0.282763 0.626245
vt 0.282763 0.605188
vt 0.289015 0.598936
vt 0.204671 0.626250
vt 0.198424 0.632496
vt 0.198424 0.598936
vt 0.204671 0.605183
vt 0.198424 0.408087
vt 0.204671 0.414334
vt 0.204671 0.435400
vt 0.198424 0.441647
vt 0.506628 -0.505451
vt 0.506628 0.546929
vt 0.249388 -0.505451
vt 0.249388 0.270007
vt 0.763867 0.648626
vt 0.763867 -0.505451
vt 1.021107 0.508662
vt 1.021107 -0.505451
vt -0.007851 -0.505451
vt -0.007851 0.508662
s 1
usemtl wall
f 42/9/2 20/10/3 28/11/4 35/12/5
f 19/13/6 8/14/7 10/15/8 26/16/9
f 93/21/10 47/22/11 57/23/12 86/24/13 1/25/14
f 34/26/15 17/27/16 13/28/17 40/29/18
f 5/34/21 1/35/22 86/36/23 88/37/23 87/38/23 83/39/23 85/40/23 84/41/23 4/42/23
f 53/53/30 51/54/31 6/55/32 4/56/32 84/57/33
f 51/60/31 89/61/34 3/62/32 6/55/32
f 27/63/35 11/64/36 16/65/37 33/66/38
f 87/67/39 56/68/40 54/69/41 83/70/42
f 90/71/43 50/72/44 48/73/45 92/74/46 2/75/47
f 89/76/48 91/77/48 90/78/48 2/79/48 1/35/22 5/34/21 3/80/48
f 4/56/50 6/55/50 5/87/50
f 6/55/51 3/62/51 5/88/51
f 92/89/52 94/90/52 93/21/52 1/25/52 2/91/52
f 19/13/6 22/94/53 23/95/54 25/96/55
f 20/10/3 24/97/56 23/98/54 22/99/53
f 21/100/57 25/101/55 23/102/54 24/103/56
f 26/16/9 29/104/58 30/105/59 32/106/60
f 27/63/35 31/107/61 30/105/59 29/104/58
f 28/11/4 32/108/60 30/105/59 31/109/61
f 33/66/38 36/110/62 37/111/63 39/112/64
f 34/26/15 38/113/65 37/111/63 36/110/62
f 35/12/5 39/112/64 37/111/63 38/114/65
f 40/29/18 43/115/66 44/116/67 46/117/68
f 41/118/69 45/119/70 44/120/67 43/121/66
f 42/9/2 46/122/68 44/123/67 45/124/70
f 21/100/57 7/125/71 9/126/72 25/96/55
f 25/96/55 9/126/72 8/14/7 19/13/6
f 11/64/36 27/63/35 29/104/58 12/127/73
f 12/127/73 29/104/58 26/16/9 10/15/8
f 17/27/16 34/26/15 36/110/62 18/128/74
f 18/128/74 36/110/62 33/66/38 16/65/37
f 14/129/75 41/118/69 43/121/66 15/130/76
f 15/131/76 43/115/66 40/29/18 13/28/17
f 41/118/69 21/100/57 24/103/56 45/119/70
f 45/124/70 24/97/56 20/10/3 42/9/2
f 34/26/15 40/29/18 46/117/68 38/113/65
f 38/114/65 46/122/68 42/9/2 35/12/5
f 27/63/35 33/66/38 39/112/64 31/132/61
f 31/132/61 39/112/64 35/12/5 28/11/4
f 19/13/6 26/16/9 32/106/60 22/94/53
f 22/99/53 32/108/60 28/11/4 20/10/3
f 89/61/34 51/60/31 52/175/80 91/176/81
f 91/176/81 52/175/80 50/72/44 90/71/43
f 92/74/46 48/73/45 49/177/79 94/178/82
f 94/178/82 49/177/79 47/22/11 93/21/10
f 53/53/30 84/57/33 85/179/83 55/180/77
f 55/180/77 85/179/83 83/70/42 54/69/41
f 56/68/40 87/67/39 88/181/84 58/182/78
f 58/183/78 88/184/84 86/24/13 57/23/12
f 41/118/69 14/129/75 7/125/71 21/100/57
usemtl tops
f 7/1/1 14/2/1 69/3/1 60/4/1
f 13/5/1 17/6/1 66/7/1 68/8/1
f 16/17/1 11/18/1 62/19/1 65/20/1
f 63/30/19 59/31/20 72/32/20 74/33/19
f 60/4/24 69/43/25 80/44/25 71/45/24
f 65/20/26 62/46/27 75/47/27 78/48/26
f 68/49/28 66/50/29 77/51/29 81/52/28
f 10/58/1 8/59/1 59/31/1 63/30/1
f 54/81/49 56/82/49 81/52/49 77/51/49
f 48/83/49 50/84/49 74/33/49 72/32/49
f 57/85/49 47/86/49 71/45/49 80/44/49
f 51/92/49 53/93/49 78/48/49 75/47/49
f 69/3/1 14/2/1 15/133/1 70/134/1
f 70/135/1 15/136/1 13/5/1 68/8/1
f 16/17/1 65/20/1 67/137/1 18/138/1
f 18/139/1 67/140/1 66/7/1 17/6/1
f 78/48/49 53/93/49 55/141/49 79/142/49
f 79/143/49 55/144/49 54/81/49 77/51/49
f 57/85/49 80/44/49 82/145/49 58/146/49
f 58/147/49 82/148/49 81/52/49 56/82/49
f 65/20/26 78/48/26 79/149/77 67/150/77
f 67/150/77 79/149/77 77/51/29 66/50/29
f 80/44/25 69/43/25 70/151/78 82/152/78
f 82/153/78 70/154/78 68/49/28 81/52/28
f 60/4/24 71/45/24 73/155/79 61/156/79
f 61/156/79 73/155/79 72/32/20 59/31/20
f 75/47/27 62/46/27 64/157/80 76/158/80
f 76/158/80 64/157/80 63/30/19 74/33/19
f 51/92/49 75/47/49 76/159/49 52/160/49
f 52/161/49 76/162/49 74/33/49 50/84/49
f 71/45/49 47/86/49 49/163/49 73/164/49
f 73/165/49 49/166/49 48/83/49 72/32/49
f 7/1/1 60/4/1 61/167/1 9/168/1
f 9/169/1 61/170/1 59/31/1 8/59/1
f 62/19/1 11/18/1 12/171/1 64/172/1
f 64/173/1 12/174/1 10/58/1 63/30/1
