# Blender 4.0.2
# www.blender.org
mtllib PipeStraight.mtl
o PipeStraight
v 0.113182 0.097075 1.254561
v 0.007313 0.140927 1.254561
v -0.098555 0.097075 1.254561
v -0.142408 -0.008794 1.254561
v -0.098555 -0.114663 1.254561
v 0.007313 -0.158515 1.254561
v 0.113182 -0.114663 1.254561
v 0.157034 -0.008794 1.254561
v 0.113182 0.097075 1.349319
v 0.007313 0.140927 1.349319
v -0.098555 0.097075 1.349319
v -0.142407 -0.008794 1.349319
v -0.098555 -0.114663 1.349319
v 0.007313 -0.158515 1.349319
v 0.113182 -0.114663 1.349319
v 0.157034 -0.008794 1.349319
v 0.087792 0.071685 1.227885
v 0.007313 0.105021 1.227885
v -0.073166 0.071685 1.227885
v -0.106502 -0.008794 1.227885
v -0.073166 -0.089273 1.227885
v 0.007313 -0.122609 1.227885
v 0.087792 -0.089273 1.227885
v 0.121128 -0.008794 1.227885
v -0.098555 0.097075 1.444078
v 0.007314 0.140927 1.444078
v 0.113182 0.097075 1.444078
v 0.157035 -0.008794 1.444078
v 0.113182 -0.114663 1.444078
v 0.007314 -0.158515 1.444078
v -0.098555 -0.114663 1.444078
v -0.142407 -0.008794 1.444078
v -0.073166 0.071685 1.470754
v 0.007314 0.105021 1.470754
v 0.087793 0.071685 1.470754
v 0.121129 -0.008794 1.470754
v 0.087793 -0.089273 1.470754
v 0.007314 -0.122609 1.470754
v -0.073166 -0.089273 1.470754
v -0.106501 -0.008794 1.470754
v -0.028927 0.110966 1.385560
v 0.043554 0.110966 1.385560
v -0.028927 0.110966 1.313079
v 0.043554 0.110966 1.313079
v -0.018376 0.154196 1.375009
v -0.004171 0.165351 1.360804
v 0.018799 0.165351 1.360804
v 0.033004 0.154196 1.375009
v -0.004171 0.165351 1.337834
v -0.018376 0.154196 1.323630
v 0.018798 0.165351 1.337834
v 0.033004 0.154196 1.323630
v 0.092908 0.082471 1.385560
v 0.129149 0.019700 1.385560
v 0.092908 0.082471 1.313079
v 0.129149 0.019700 1.313079
v 0.135622 0.094949 1.375009
v 0.152385 0.088225 1.360804
v 0.163870 0.068332 1.360804
v 0.161312 0.050453 1.375009
v 0.152385 0.088225 1.337834
v 0.135622 0.094949 1.323630
v 0.163870 0.068332 1.337834
v 0.161312 0.050452 1.323630
v 0.117623 -0.067851 1.385560
v 0.066371 -0.119103 1.385560
v 0.117623 -0.067851 1.313079
v 0.066371 -0.119103 1.313079
v 0.140730 -0.105880 1.375009
v 0.138574 -0.123812 1.360804
v 0.122332 -0.140054 1.360804
v 0.104399 -0.142211 1.375009
v 0.138574 -0.123812 1.337834
v 0.140730 -0.105880 1.323630
v 0.122332 -0.140054 1.337834
v 0.104399 -0.142211 1.323630
v -0.021181 -0.130630 1.385560
v -0.083952 -0.094389 1.385560
v -0.021181 -0.130630 1.313079
v -0.083952 -0.094389 1.313079
v -0.051933 -0.162792 1.375009
v -0.069813 -0.165350 1.360804
v -0.089705 -0.153866 1.360804
v -0.096430 -0.137102 1.375009
v -0.069813 -0.165350 1.337834
v -0.051933 -0.162792 1.323630
v -0.089705 -0.153866 1.337834
v -0.096429 -0.137102 1.323630
v -0.117746 -0.012804 1.385560
v -0.098986 0.057208 1.385560
v -0.117746 -0.012804 1.313079
v -0.098986 0.057208 1.313079
v -0.156772 0.008576 1.375009
v -0.163870 0.025184 1.360804
v -0.157925 0.047371 1.360804
v -0.143473 0.058205 1.375009
v -0.163870 0.025184 1.337834
v -0.156772 0.008576 1.323630
v -0.157925 0.047371 1.337834
v -0.143473 0.058205 1.323630
v 0.092420 0.076312 -1.470755
v 0.007313 0.111564 -1.470755
v -0.077793 0.076312 -1.470755
v -0.113045 -0.008794 -1.470755
v -0.077793 -0.093901 -1.470755
v 0.007313 -0.129153 -1.470755
v 0.092420 -0.093901 -1.470755
v 0.127672 -0.008794 -1.470755
v 0.092420 0.076312 1.349319
v 0.007313 0.111564 1.349319
v -0.077793 0.076312 1.349319
v -0.113045 -0.008794 1.349319
v -0.077793 -0.093900 1.349319
v 0.007313 -0.129153 1.349319
v 0.092420 -0.093901 1.349319
v 0.127672 -0.008794 1.349319
v 0.007313 -0.008794 1.349319
v 0.007313 0.111564 -0.060718
v 0.092420 0.076312 -0.060718
v 0.127672 -0.008794 -0.060718
v 0.092420 -0.093901 -0.060718
v 0.007313 -0.129153 -0.060718
v -0.077793 -0.093901 -0.060718
v -0.113045 -0.008794 -0.060718
v -0.077793 0.076312 -0.060718
vn 0.7071 0.7071 -0.0000
vn -0.0000 1.0000 -0.0000
vn -0.7071 0.7071 -0.0000
vn -1.0000 -0.0000 -0.0000
vn -0.7071 -0.7071 -0.0000
vn -0.0000 -1.0000 -0.0000
vn 0.7071 -0.7071 -0.0000
vn 1.0000 -0.0000 -0.0000
vn -0.0000 0.5964 -0.8027
vn 0.4217 0.4217 -0.8027
vn -0.4217 0.4217 -0.8027
vn -0.5964 -0.0000 -0.8027
vn -0.4217 -0.4217 -0.8027
vn -0.0000 -0.5964 -0.8027
vn 0.4217 -0.4217 -0.8027
vn 0.5964 -0.0000 -0.8027
vn -0.0000 0.5964 0.8027
vn -0.4217 0.4217 0.8027
vn 0.4217 0.4217 0.8027
vn 0.5964 -0.0000 0.8027
vn 0.4217 -0.4217 0.8027
vn -0.0000 -0.5964 0.8027
vn -0.4217 -0.4217 0.8027
vn -0.5964 -0.0000 0.8027
vn -0.6176 0.7865 -0.0000
vn -0.0000 0.7865 0.6176
vn 0.6176 0.7865 -0.0000
vn -0.0000 0.7865 -0.6176
vn -0.0000 0.2371 0.9715
vn -0.0000 0.2371 -0.9715
vn 0.9715 0.2371 -0.0000
vn -0.9715 0.2371 -0.0000
vn 0.3723 0.9281 -0.0000
vn 0.6811 0.3932 0.6176
vn 0.9899 -0.1416 -0.0000
vn 0.6811 0.3932 -0.6176
vn 0.2053 0.1185 0.9715
vn 0.8660 0.5000 -0.0000
vn 0.2053 0.1186 -0.9715
vn 0.6911 -0.7228 -0.0000
vn -0.2804 0.9599 -0.0000
vn 0.9928 -0.1194 -0.0000
vn 0.5561 -0.5561 0.6176
vn 0.1194 -0.9928 -0.0000
vn 0.5561 -0.5561 -0.6176
vn 0.1677 -0.1677 0.9715
vn 0.1677 -0.1677 -0.9715
vn -0.5193 -0.8546 -0.0000
vn 0.8546 0.5193 -0.0000
vn 0.1416 -0.9899 -0.0000
vn -0.3932 -0.6811 0.6176
vn -0.9281 -0.3723 -0.0000
vn -0.3932 -0.6811 -0.6176
vn -0.1185 -0.2053 0.9715
vn -0.5000 -0.8660 -0.0000
vn -0.1186 -0.2053 -0.9715
vn -0.9599 0.2804 -0.0000
vn 0.7228 -0.6911 -0.0000
vn -0.9195 -0.3930 -0.0000
vn -0.7597 0.2036 0.6176
vn -0.5998 0.8001 -0.0000
vn -0.7597 0.2036 -0.6176
vn -0.2290 0.0614 0.9715
vn -0.9659 0.2588 -0.0000
vn -0.2290 0.0614 -0.9715
vn 0.0224 0.9997 -0.0000
vn -0.4805 -0.8770 -0.0000
vn -0.0000 -0.0000 1.0000
vt 0.792412 0.373066
vt 0.751592 0.373066
vt 0.751592 0.336529
vt 0.792412 0.336529
vt 0.710771 0.373066
vt 0.710772 0.336529
vt 0.348019 0.821873
vt 0.307199 0.821873
vt 0.307199 0.785337
vt 0.348019 0.785337
vt 0.266379 0.821873
vt 0.266379 0.785337
vt 0.442996 0.405795
vt 0.483817 0.405795
vt 0.483817 0.442332
vt 0.442997 0.442332
vt 0.524637 0.405795
vt 0.524637 0.442332
vt 0.898784 0.733051
vt 0.939604 0.733051
vt 0.939604 0.769588
vt 0.898784 0.769588
vt 0.980424 0.733051
vt 0.980424 0.769588
vt 0.782622 0.383352
vt 0.751592 0.383352
vt 0.720561 0.383352
vt 0.338230 0.832159
vt 0.307199 0.832159
vt 0.276169 0.832159
vt 0.452786 0.395509
vt 0.483817 0.395509
vt 0.514847 0.395509
vt 0.908573 0.722766
vt 0.939604 0.722766
vt 0.970634 0.722766
vt 0.710772 0.299993
vt 0.751592 0.299993
vt 0.792412 0.299993
vt 0.980424 0.806124
vt 0.939604 0.806124
vt 0.898784 0.806124
vt 0.524637 0.478868
vt 0.483817 0.478868
vt 0.442997 0.478868
vt 0.266379 0.748800
vt 0.307199 0.748800
vt 0.348019 0.748800
vt 0.720561 0.289707
vt 0.751592 0.289707
vt 0.782622 0.289707
vt 0.970634 0.816410
vt 0.939604 0.816410
vt 0.908573 0.816410
vt 0.514847 0.489154
vt 0.483817 0.489154
vt 0.452786 0.489154
vt 0.276169 0.738514
vt 0.307199 0.738514
vt 0.338230 0.738514
vt 0.253843 0.290273
vt 0.257959 0.295514
vt 0.257959 0.303989
vt 0.253843 0.309231
vt 0.767458 0.733684
vt 0.762048 0.739094
vt 0.762048 0.719525
vt 0.767458 0.724936
vt 0.149710 0.182452
vt 0.145593 0.187693
vt 0.145593 0.168736
vt 0.149710 0.173977
vt 0.781616 0.739094
vt 0.776206 0.733684
vt 0.776206 0.724936
vt 0.781616 0.719525
vt 0.779140 0.203985
vt 0.779140 0.178213
vt 0.794511 0.181965
vt 0.794511 0.200234
vt 0.066972 0.190945
vt 0.066972 0.172675
vt 0.082343 0.168924
vt 0.082343 0.194696
vt 0.129643 0.191586
vt 0.129643 0.164843
vt 0.237892 0.313124
vt 0.237892 0.286380
vt 0.395654 0.152597
vt 0.401670 0.157694
vt 0.401670 0.165938
vt 0.395654 0.171035
vt 0.464451 0.079568
vt 0.458679 0.082301
vt 0.458679 0.064220
vt 0.464451 0.071485
vt 0.479556 0.064220
vt 0.473784 0.071485
vt 0.479556 0.082301
vt 0.473784 0.079568
vt 0.004301 0.111413
vt 0.017187 0.089094
vt 0.028623 0.100028
vt 0.019489 0.115850
vt 0.714564 0.004339
vt 0.723699 0.020160
vt 0.712263 0.031094
vt 0.699377 0.008775
vt 0.454391 0.051724
vt 0.483844 0.051724
vt 0.380326 0.174822
vt 0.380326 0.148810
vt 0.629494 0.494805
vt 0.635124 0.487697
vt 0.644228 0.487697
vt 0.649859 0.494805
vt 0.629494 0.480405
vt 0.635124 0.481259
vt 0.782934 0.083853
vt 0.776241 0.089155
vt 0.776241 0.069978
vt 0.782934 0.075280
vt 0.644228 0.481259
vt 0.649859 0.480405
vt 0.102288 0.030760
vt 0.084064 0.012536
vt 0.097586 0.004320
vt 0.110504 0.017238
vt 0.017823 0.004320
vt 0.030741 0.017238
vt 0.022525 0.030760
vt 0.004301 0.012536
vt 0.762048 0.093093
vt 0.762048 0.066040
vt 0.654041 0.509878
vt 0.625311 0.509878
vt 0.644779 0.335622
vt 0.639007 0.342887
vt 0.629674 0.342887
vt 0.623901 0.335622
vt 0.644779 0.353703
vt 0.639007 0.350971
vt 0.408812 0.198866
vt 0.414828 0.193769
vt 0.414828 0.212207
vt 0.408812 0.207110
vt 0.629674 0.350971
vt 0.623901 0.353703
vt 0.300604 0.126707
vt 0.313490 0.149027
vt 0.298303 0.153463
vt 0.289168 0.137642
vt 0.051412 0.140217
vt 0.042278 0.156039
vt 0.027091 0.151602
vt 0.039977 0.129283
vt 0.430157 0.189982
vt 0.430157 0.215994
vt 0.619614 0.323126
vt 0.649066 0.323126
vt 0.756350 0.699356
vt 0.762884 0.704945
vt 0.762884 0.713982
vt 0.756350 0.719570
vt 0.775875 0.699356
vt 0.771613 0.704945
vt 0.775875 0.719570
vt 0.771613 0.713982
vt 0.468268 0.222936
vt 0.474938 0.247830
vt 0.459120 0.248185
vt 0.454391 0.230538
vt 0.454391 0.099932
vt 0.459120 0.082286
vt 0.474938 0.082640
vt 0.468268 0.107534
vt 0.794733 0.479736
vt 0.794733 0.505141
vt 0.779140 0.501443
vt 0.779140 0.483434
vt 0.765257 0.669899
vt 0.765257 0.697024
vt 0.750653 0.693075
vt 0.750653 0.673848
vt 0.004301 0.194947
vt 0.027646 0.194947
vt 0.027647 0.878315
vt 0.004301 0.878315
vt 0.050992 0.194947
vt 0.050992 0.878315
vt 0.074337 0.194947
vt 0.074337 0.878315
vt 0.097682 0.194947
vt 0.097682 0.878315
vt 0.121027 0.194947
vt 0.121027 0.878315
vt 0.144372 0.194947
vt 0.144372 0.878315
vt 0.167718 0.194947
vt 0.167718 0.878315
vt 0.191063 0.194947
vt 0.191063 0.878315
vt 0.235833 0.076338
vt 0.206007 0.088693
vt 0.206007 0.046511
vt 0.176181 0.076338
vt 0.163827 0.046511
vt 0.176181 0.016685
vt 0.206007 0.004330
vt 0.235833 0.016685
vt 0.248187 0.046511
vt 0.796232 0.004341
vt 0.819577 0.004341
vt 0.819577 0.687710
vt 0.796232 0.687710
vt 0.959648 0.004341
vt 0.982993 0.004341
vt 0.982993 0.687709
vt 0.959648 0.687709
vt 0.936303 0.004341
vt 0.936303 0.687709
vt 0.912958 0.004341
vt 0.912958 0.687709
vt 0.889612 0.004341
vt 0.889612 0.687709
vt 0.866267 0.004341
vt 0.866267 0.687710
vt 0.842922 0.004341
vt 0.842922 0.687710
s 1
usemtl M_Props03
f 1/1/1 2/2/2 10/3/2 9/4/1
f 2/2/2 3/5/3 11/6/3 10/3/2
f 3/7/3 4/8/4 12/9/4 11/10/3
f 4/8/4 5/11/5 13/12/5 12/9/4
f 5/13/5 6/14/6 14/15/6 13/16/5
f 6/14/6 7/17/7 15/18/7 14/15/6
f 7/19/7 8/20/8 16/21/8 15/22/7
f 8/20/8 1/23/1 9/24/1 16/21/8
f 2/2/9 1/1/10 17/25/10 18/26/9
f 3/5/11 2/2/9 18/26/9 19/27/11
f 4/8/12 3/7/11 19/28/11 20/29/12
f 5/11/13 4/8/12 20/29/12 21/30/13
f 6/14/14 5/13/13 21/31/13 22/32/14
f 7/17/15 6/14/14 22/32/14 23/33/15
f 8/20/16 7/19/15 23/34/15 24/35/16
f 1/23/10 8/20/16 24/35/16 17/36/10
f 25/37/3 26/38/2 10/3/2 11/6/3
f 26/38/2 27/39/1 9/4/1 10/3/2
f 27/40/1 28/41/8 16/21/8 9/24/1
f 28/41/8 29/42/7 15/22/7 16/21/8
f 29/43/7 30/44/6 14/15/6 15/18/7
f 30/44/6 31/45/5 13/16/5 14/15/6
f 31/46/5 32/47/4 12/9/4 13/12/5
f 32/47/4 25/48/3 11/10/3 12/9/4
f 26/38/17 25/37/18 33/49/18 34/50/17
f 27/39/19 26/38/17 34/50/17 35/51/19
f 28/41/20 27/40/19 35/52/19 36/53/20
f 29/42/21 28/41/20 36/53/20 37/54/21
f 30/44/22 29/43/21 37/55/21 38/56/22
f 31/45/23 30/44/22 38/56/22 39/57/23
f 32/47/24 31/46/23 39/58/23 40/59/24
f 25/48/18 32/47/24 40/59/24 33/60/18
f 45/61/25 46/62/25 49/63/25 50/64/25
f 46/65/26 45/66/26 48/67/26 47/68/26
f 47/69/27 48/70/27 52/71/27 51/72/27
f 50/73/28 49/74/28 51/75/28 52/76/28
f 41/77/29 42/78/29 48/79/29 45/80/29
f 46/65/2 47/68/2 51/75/2 49/74/2
f 50/81/30 52/82/30 44/83/30 43/84/30
f 42/85/31 44/86/31 52/71/31 48/70/31
f 43/87/32 41/88/32 45/61/32 50/64/32
f 57/89/33 58/90/33 61/91/33 62/92/33
f 58/93/34 57/94/34 60/95/34 59/96/34
f 59/96/35 60/95/35 64/97/35 63/98/35
f 62/99/36 61/100/36 63/98/36 64/97/36
f 53/101/37 54/102/37 60/103/37 57/104/37
f 58/93/38 59/96/38 63/98/38 61/100/38
f 62/105/39 64/106/39 56/107/39 55/108/39
f 54/109/40 56/110/40 64/97/40 60/95/40
f 55/111/41 53/112/41 57/89/41 62/92/41
f 69/113/42 70/114/42 73/115/42 74/116/42
f 70/114/43 69/113/43 72/117/43 71/118/43
f 71/119/44 72/120/44 76/121/44 75/122/44
f 74/116/45 73/115/45 75/123/45 76/124/45
f 65/125/46 66/126/46 72/127/46 69/128/46
f 70/114/7 71/118/7 75/123/7 73/115/7
f 74/129/47 76/130/47 68/131/47 67/132/47
f 66/133/48 68/134/48 76/121/48 72/120/48
f 67/135/49 65/136/49 69/113/49 74/116/49
f 81/137/50 82/138/50 85/139/50 86/140/50
f 82/138/51 81/137/51 84/141/51 83/142/51
f 83/143/52 84/144/52 88/145/52 87/146/52
f 86/140/53 85/139/53 87/147/53 88/148/53
f 77/149/54 78/150/54 84/151/54 81/152/54
f 82/138/55 83/142/55 87/147/55 85/139/55
f 86/153/56 88/154/56 80/155/56 79/156/56
f 78/157/57 80/158/57 88/145/57 84/144/57
f 79/159/58 77/160/58 81/137/58 86/140/58
f 93/161/59 94/162/59 97/163/59 98/164/59
f 94/162/60 93/161/60 96/165/60 95/166/60
f 95/166/61 96/165/61 100/167/61 99/168/61
f 98/164/62 97/163/62 99/168/62 100/167/62
f 89/169/63 90/170/63 96/171/63 93/172/63
f 94/162/64 95/166/64 99/168/64 97/163/64
f 98/173/65 100/174/65 92/175/65 91/176/65
f 90/177/66 92/178/66 100/179/66 96/180/66
f 91/181/67 89/182/67 93/183/67 98/184/67
f 101/185/1 102/186/2 118/187/2 119/188/1
f 102/186/2 103/189/3 125/190/3 118/187/2
f 103/189/3 104/191/4 124/192/4 125/190/3
f 104/191/4 105/193/5 123/194/5 124/192/4
f 105/193/5 106/195/6 122/196/6 123/194/5
f 106/195/6 107/197/7 121/198/7 122/196/6
f 107/197/7 108/199/8 120/200/8 121/198/7
f 108/199/8 101/201/1 119/202/1 120/200/8
f 109/203/68 110/204/68 117/205/68
f 110/204/68 111/206/68 117/205/68
f 111/206/68 112/207/68 117/205/68
f 112/207/68 113/208/68 117/205/68
f 113/208/68 114/209/68 117/205/68
f 114/209/68 115/210/68 117/205/68
f 115/210/68 116/211/68 117/205/68
f 116/211/68 109/203/68 117/205/68
f 119/212/1 118/213/2 110/214/2 109/215/1
f 120/216/8 119/217/1 109/218/1 116/219/8
f 121/220/7 120/216/8 116/219/8 115/221/7
f 122/222/6 121/220/7 115/221/7 114/223/6
f 123/224/5 122/222/6 114/223/6 113/225/5
f 124/226/4 123/224/5 113/225/5 112/227/4
f 125/228/3 124/226/4 112/227/4 111/229/3
f 118/213/2 125/228/3 111/229/3 110/214/2
