# Blender 4.0.2
# www.blender.org
mtllib Dirt01.mtl
o Dirt1
v -0.138519 -0.000005 0.897210
v -0.092346 0.072178 -0.000000
v -1.138519 0.000000 0.000000
v 1.138519 0.000000 0.000000
v -0.879745 0.000000 0.628751
v 0.648158 -0.000020 0.628751
v -0.115433 0.036086 0.448605
v 0.281810 -0.000014 0.824982
v 0.920329 -0.000014 0.337830
v -0.632747 0.049622 -0.000000
v -1.053077 0.000000 0.337830
v 0.505772 0.049622 -0.000000
v -0.553076 -0.000000 0.824982
v 0.396853 0.024804 0.415152
v -0.597898 0.024811 0.415152
vn -0.0010 0.9974 0.0726
vn 0.0279 0.9971 0.0703
vn 0.0413 0.9968 0.0682
vn -0.0010 0.9973 0.0728
vn 0.0466 0.9970 0.0611
vn 0.0634 0.9961 0.0622
vn 0.0683 0.9957 0.0625
vn 0.0533 0.9963 0.0679
vn -0.0002 0.9973 0.0731
vn -0.0494 0.9975 0.0507
vn -0.0304 0.9975 0.0644
vn -0.0458 0.9972 0.0597
vn -0.0713 0.9963 0.0472
vn -0.0592 0.9966 0.0576
vn -0.0808 0.9957 0.0457
vt 0.220335 0.548604
vt 0.203033 0.651572
vt 0.102614 0.680097
vt 0.110165 0.554598
vt 0.155419 0.741487
vt 0.084585 0.808530
vt 0.002241 0.862502
vt 0.000888 0.707126
vt 0.000000 0.560596
vt 0.154248 0.367252
vt 0.202398 0.447158
vt 0.101847 0.436445
vt 0.083027 0.324819
vt 0.000000 0.428182
vt 0.000354 0.303766
s 1
usemtl M_Props04
f 1/1/1 8/2/2 14/3/3 7/4/4
f 8/2/2 6/5/5 9/6/6 14/3/3
f 14/3/3 9/6/6 4/7/7 12/8/8
f 7/4/4 14/3/3 12/8/8 2/9/9
f 5/10/10 13/11/11 15/12/12 11/13/13
f 13/11/11 1/1/1 7/4/4 15/12/12
f 15/12/12 7/4/4 2/9/9 10/14/14
f 11/13/13 15/12/12 10/14/14 3/15/15
