# Blender 4.0.2
# www.blender.org
mtllib Shelf.mtl
o Shelf
v -0.198025 0.069815 0.433844
v -0.192695 0.067607 0.437239
v -0.198025 0.115367 0.433844
v -0.192695 0.117575 0.437239
v -0.198025 0.066692 0.431854
v -0.192695 0.061362 0.433261
v 0.172247 -0.018602 0.433844
v 0.166917 -0.020810 0.437239
v 0.172247 0.026950 0.433844
v 0.166917 0.029158 0.437239
v 0.172247 -0.021725 0.431854
v 0.166917 -0.027055 0.433261
v -0.198025 0.118490 0.431854
v -0.192695 0.123820 0.433261
v -0.198025 0.118490 0.390908
v -0.192695 0.123820 0.389502
v 0.172247 0.030073 0.431854
v 0.166917 0.035403 0.433261
v 0.172247 0.030073 0.390908
v 0.166917 0.035403 0.389502
v -0.198025 0.115367 0.388919
v -0.192695 0.117575 0.385524
v -0.198025 0.069815 0.388919
v -0.192695 0.067607 0.385524
v 0.172247 0.026950 0.388919
v 0.166917 0.029158 0.385524
v 0.172247 -0.018602 0.388919
v 0.166917 -0.020810 0.385524
v -0.198025 0.066692 0.390908
v -0.192695 0.061362 0.389502
v 0.172247 -0.021725 0.390908
v 0.166917 -0.027055 0.389502
v -0.115474 0.115776 0.385524
v -0.115474 0.065809 0.385524
v -0.115474 0.059564 0.389502
v -0.115474 0.059564 0.433261
v -0.115474 0.065809 0.437239
v -0.115474 0.115776 0.437239
v -0.115474 0.122021 0.433261
v -0.115474 0.122021 0.389502
v -0.170631 0.115141 0.573414
v -0.164679 0.112933 0.578744
v -0.170631 0.160693 0.573414
v -0.164679 0.162900 0.578744
v -0.170631 0.112018 0.570291
v -0.164679 0.106688 0.572499
v 0.198025 0.115141 0.573414
v 0.192074 0.112933 0.578744
v 0.198025 0.160693 0.573414
v 0.192074 0.162900 0.578744
v 0.198025 0.112018 0.570291
v 0.192074 0.106688 0.572499
v -0.170631 0.163815 0.570291
v -0.164679 0.169145 0.572499
v -0.170631 0.163815 0.506004
v -0.164679 0.169145 0.503796
v 0.198025 0.163815 0.570291
v 0.192074 0.169145 0.572499
v 0.198025 0.163815 0.506004
v 0.192074 0.169145 0.503796
v -0.170631 0.160693 0.502881
v -0.164679 0.162900 0.497551
v -0.170631 0.115141 0.502881
v -0.164679 0.112933 0.497551
v 0.198025 0.160693 0.502881
v 0.192074 0.162900 0.497551
v 0.198025 0.115141 0.502881
v 0.192074 0.112933 0.497551
v -0.170631 0.112018 0.506004
v -0.164679 0.106688 0.503796
v 0.198025 0.112018 0.506004
v 0.192074 0.106688 0.503796
v -0.005968 0.121272 0.614420
v -0.006031 0.130721 0.635696
v -0.015418 0.130721 0.614421
v 0.183347 0.130721 0.614439
v 0.174092 0.130930 0.635696
v 0.173888 0.121272 0.614420
v -0.015418 0.150460 0.614421
v -0.006000 0.150428 0.635696
v -0.005968 0.159910 0.614420
v 0.173888 0.159910 0.614420
v 0.174301 0.150460 0.635696
v 0.183347 0.150460 0.614439
v -0.011742 0.150491 -0.622181
v -0.002292 0.159910 -0.622110
v -0.002261 0.150491 -0.643386
v 0.150190 0.150655 -0.643386
v 0.150390 0.159910 -0.622110
v 0.159840 0.150655 -0.622570
v -0.011742 0.130721 -0.622110
v -0.002261 0.130690 -0.643386
v -0.002292 0.121272 -0.622110
v 0.150390 0.121272 -0.622110
v 0.149995 0.130721 -0.643386
v 0.159848 0.130721 -0.622129
v -0.198025 0.069815 -0.394666
v -0.192695 0.067607 -0.391271
v -0.198025 0.115367 -0.394666
v -0.192695 0.117575 -0.391271
v -0.198025 0.066692 -0.396655
v -0.192695 0.061362 -0.395249
v 0.172247 -0.018602 -0.394666
v 0.166917 -0.020810 -0.391271
v 0.172247 0.026950 -0.394666
v 0.166917 0.029158 -0.391271
v 0.172247 -0.021725 -0.396655
v 0.166917 -0.027055 -0.395249
v -0.198025 0.118490 -0.396655
v -0.192695 0.123820 -0.395249
v -0.198025 0.118490 -0.437601
v -0.192695 0.123820 -0.439008
v 0.172247 0.030073 -0.396655
v 0.166917 0.035403 -0.395249
v 0.172247 0.030073 -0.437601
v 0.166917 0.035403 -0.439008
v -0.198025 0.115367 -0.439591
v -0.192695 0.117575 -0.442986
v -0.198025 0.069815 -0.439591
v -0.192695 0.067607 -0.442986
v 0.172247 0.026950 -0.439591
v 0.166917 0.029158 -0.442986
v 0.172247 -0.018602 -0.439591
v 0.166917 -0.020810 -0.442986
v -0.198025 0.066692 -0.437601
v -0.192695 0.061362 -0.439008
v 0.172247 -0.021725 -0.437601
v 0.166917 -0.027055 -0.439008
v -0.115474 0.115776 -0.442986
v -0.115474 0.065808 -0.442986
v -0.115474 0.059563 -0.439008
v -0.115474 0.059563 -0.395249
v -0.115474 0.065808 -0.391271
v -0.115474 0.115776 -0.391271
v -0.115474 0.122021 -0.395249
v -0.115474 0.122021 -0.439008
v -0.130269 0.111154 -0.207173
v -0.130471 0.118446 -0.191961
v -0.138725 0.118504 -0.207168
v -0.022518 0.118506 -0.207180
v -0.031002 0.118360 -0.191961
v -0.030973 0.111154 -0.207178
v -0.138725 0.149357 -0.207168
v -0.130403 0.149356 -0.191961
v -0.130269 0.156707 -0.207173
v -0.030973 0.156707 -0.207178
v -0.031102 0.149415 -0.191961
v -0.022518 0.149355 -0.207180
v -0.141714 0.141566 -0.620702
v -0.133263 0.148805 -0.620463
v -0.133126 0.141449 -0.635675
v -0.027096 0.141308 -0.635675
v -0.027056 0.148804 -0.620582
v -0.018672 0.141428 -0.620404
v -0.141719 0.126406 -0.620468
v -0.133126 0.126412 -0.635675
v -0.133263 0.119056 -0.620463
v -0.027126 0.119056 -0.620458
v -0.026997 0.126467 -0.635675
v -0.018671 0.126408 -0.620456
v -0.157923 0.115141 -0.479053
v -0.152592 0.112933 -0.473723
v -0.157923 0.160693 -0.479053
v -0.152592 0.162900 -0.473723
v -0.157923 0.112018 -0.482176
v -0.152592 0.106688 -0.479968
v 0.172247 0.115141 -0.479053
v 0.166917 0.112933 -0.473723
v 0.172247 0.160693 -0.479053
v 0.166917 0.162900 -0.473723
v 0.172247 0.112018 -0.482176
v 0.166917 0.106688 -0.479968
v -0.157923 0.163815 -0.482176
v -0.152592 0.169145 -0.479968
v -0.157923 0.163815 -0.546463
v -0.152592 0.169145 -0.548671
v 0.172247 0.163815 -0.482176
v 0.166917 0.169145 -0.479968
v 0.172247 0.163815 -0.546463
v 0.166917 0.169145 -0.548671
v -0.157923 0.160693 -0.549586
v -0.152592 0.162900 -0.554916
v -0.157923 0.115141 -0.549586
v -0.152592 0.112933 -0.554916
v 0.172247 0.160693 -0.549586
v 0.166917 0.162900 -0.554916
v 0.172247 0.115141 -0.549586
v 0.166917 0.112933 -0.554916
v -0.157923 0.112018 -0.546463
v -0.152592 0.106688 -0.548671
v 0.172247 0.112018 -0.546463
v 0.166917 0.106688 -0.548671
v -0.150907 0.111154 0.628174
v -0.151109 0.118446 0.643386
v -0.159363 0.118504 0.628179
v -0.022518 0.118506 0.628167
v -0.031002 0.118360 0.643386
v -0.030973 0.111154 0.628169
v -0.159363 0.149357 0.628179
v -0.151041 0.149356 0.643386
v -0.150907 0.156707 0.628174
v -0.030973 0.156707 0.628169
v -0.031102 0.149415 0.643386
v -0.022518 0.149355 0.628167
v -0.141714 0.141566 -0.174799
v -0.133263 0.148805 -0.174559
v -0.133126 0.141449 -0.189772
v -0.027096 0.141308 -0.189772
v -0.027056 0.148804 -0.174679
v -0.018672 0.141428 -0.174500
v -0.141719 0.126406 -0.174565
v -0.133126 0.126412 -0.189772
v -0.133263 0.119056 -0.174559
v -0.027126 0.119056 -0.174554
v -0.026997 0.126467 -0.189772
v -0.018671 0.126408 -0.174552
vn -0.5372 -0.0000 0.8434
vn -0.6050 -0.4278 0.6716
vn -0.6050 0.4278 0.6716
vn -0.7071 -0.7071 -0.0000
vn 0.6050 -0.4278 0.6716
vn 0.5372 -0.0000 0.8434
vn 0.6050 0.4278 0.6716
vn 0.7071 -0.7071 -0.0000
vn -0.7071 0.7071 -0.0000
vn -0.6050 0.4278 -0.6716
vn 0.7071 0.7071 -0.0000
vn 0.6050 0.4278 -0.6716
vn -0.5372 -0.0000 -0.8434
vn -0.6050 -0.4278 -0.6716
vn 0.5372 -0.0000 -0.8435
vn 0.6049 -0.4278 -0.6716
vn -0.0000 -0.0000 1.0000
vn 0.0233 0.9997 -0.0000
vn 0.2387 0.9711 -0.0000
vn -0.0000 -0.0000 -1.0000
vn -0.0233 -0.9997 -0.0000
vn -0.2388 -0.9711 -0.0000
vn 1.0000 -0.0000 -0.0000
vn -1.0000 -0.0000 -0.0000
vn -0.0125 -0.5372 0.8434
vn -0.1348 -0.5323 0.8357
vn -0.1260 -0.5329 0.8367
vn 0.0125 0.5372 0.8434
vn 0.1348 0.5323 0.8357
vn 0.1261 0.5329 0.8367
vn 0.0125 0.5372 -0.8434
vn 0.1261 0.5330 -0.8367
vn 0.1348 0.5323 -0.8357
vn -0.0125 -0.5372 -0.8434
vn -0.1260 -0.5330 -0.8367
vn -0.1348 -0.5323 -0.8357
vn -0.1626 -0.5301 -0.8322
vn -0.2932 -0.9560 -0.0000
vn -0.1626 -0.5301 0.8322
vn 0.1626 0.5301 0.8322
vn 0.2932 0.9560 -0.0000
vn 0.1626 0.5301 -0.8322
vn -0.6672 -0.0000 0.7449
vn -0.6672 -0.5267 0.5267
vn -0.6672 0.5267 0.5267
vn -0.6671 -0.7449 -0.0000
vn 0.6672 -0.5267 0.5267
vn 0.6672 -0.0000 0.7449
vn 0.6672 0.5267 0.5267
vn 0.6671 -0.7449 -0.0000
vn -0.6672 0.7449 -0.0000
vn -0.6672 0.5268 -0.5267
vn 0.6672 0.7449 -0.0000
vn 0.6671 0.5268 -0.5267
vn -0.6671 -0.0000 -0.7449
vn -0.6672 -0.5268 -0.5267
vn 0.6671 -0.0000 -0.7449
vn 0.6672 -0.5268 -0.5267
vn -0.0000 1.0000 -0.0000
vn -0.0000 -1.0000 -0.0000
vn -0.0000 -0.7071 0.7071
vn -0.0000 0.7071 0.7071
vn -0.0000 0.7071 -0.7071
vn -0.0000 -0.7071 -0.7071
vn -0.7071 -0.7071 -0.0021
vn 0.0005 -0.9122 0.4096
vn -0.9147 0.0007 0.4042
vn 0.7067 -0.7074 -0.0134
vn 0.9185 -0.0049 0.3954
vn -0.7065 0.7077 -0.0021
vn -0.0001 0.9137 0.4065
vn 0.7030 0.7110 -0.0133
vn -0.9132 -0.0007 -0.4076
vn -0.0005 0.9157 -0.4018
vn 0.9072 -0.0089 -0.4206
vn 0.0001 -0.9142 -0.4054
vn 0.9998 -0.0000 -0.0190
vn -1.0000 -0.0000 -0.0030
vn -0.6750 -0.6750 0.2978
vn 0.6739 -0.6752 0.3000
vn -0.6746 0.6746 0.2996
vn 0.6765 0.6778 0.2879
vn -0.6722 0.6767 -0.3005
vn 0.6586 0.6877 -0.3053
vn -0.6746 -0.6746 -0.2996
vn 0.6714 -0.6726 -0.3112
vn -0.6049 -0.4278 0.6716
vn -0.6049 0.4278 0.6716
vn 0.6049 0.4278 0.6716
vn -0.6049 0.4278 -0.6716
vn 0.6049 0.4278 -0.6716
vn -0.5372 -0.0000 -0.8435
vn -0.6049 -0.4278 -0.6716
vn 0.5372 -0.0000 -0.8434
vn -0.6560 -0.7547 -0.0097
vn -0.0004 -0.9028 0.4301
vn -0.8781 0.0010 0.4786
vn 0.6562 -0.7546 -0.0083
vn 0.8722 0.0014 0.4891
vn -0.6532 0.7572 -0.0096
vn -0.0003 0.9011 0.4336
vn 0.6584 0.7526 -0.0082
vn -0.8691 -0.0037 -0.4947
vn 0.0004 0.8980 -0.4400
vn 0.8764 0.0037 -0.4815
vn 0.0002 -0.8997 -0.4366
vn -0.0000 0.9998 -0.0191
vn -0.0000 -0.9998 -0.0191
vn 1.0000 -0.0000 0.0093
vn -1.0000 0.0001 0.0072
vn -0.6184 -0.7118 0.3330
vn 0.6177 -0.7103 0.3375
vn -0.6173 0.7105 0.3379
vn 0.6160 0.7083 0.3446
vn -0.6032 0.7159 -0.3516
vn 0.6231 0.6998 -0.3492
vn -0.6150 -0.7078 -0.3477
vn 0.6171 -0.7095 -0.3403
vn -0.7071 -0.0000 0.7071
vn -0.7071 -0.5000 0.5000
vn -0.7071 0.5000 0.5000
vn 0.7071 -0.5000 0.5000
vn 0.7071 -0.0000 0.7071
vn 0.7071 0.5000 0.5000
vn -0.7071 0.5000 -0.5000
vn 0.7071 0.5000 -0.5000
vn -0.7071 -0.0000 -0.7071
vn -0.7071 -0.5000 -0.5000
vn 0.7071 -0.0000 -0.7071
vn 0.7071 -0.5000 -0.5000
vn -0.6559 -0.7546 -0.0218
vn -0.0003 -0.9028 0.4301
vn 0.6562 -0.7546 -0.0043
vn -0.6529 0.7571 -0.0218
vn -0.0002 0.9011 0.4336
vn 0.6584 0.7527 -0.0042
vn -0.0000 1.0000 -0.0098
vn -0.0000 -1.0000 -0.0098
vn 1.0000 -0.0000 0.0048
vn -0.9998 -0.0000 -0.0220
vn -0.6185 -0.7118 0.3330
vn 0.6161 0.7083 0.3446
vt 0.318618 0.892976
vt 0.319929 0.892122
vt 0.319929 0.911416
vt 0.318618 0.910562
vt 0.317850 0.891768
vt 0.318392 0.889711
vt 0.318392 0.913827
vt 0.317850 0.911770
vt 0.302040 0.891768
vt 0.301496 0.889711
vt 0.647735 0.889019
vt 0.646422 0.888166
vt 0.647959 0.885756
vt 0.648502 0.887813
vt 0.647735 0.906605
vt 0.646422 0.907459
vt 0.648502 0.907812
vt 0.647959 0.909870
vt 0.664855 0.885756
vt 0.664313 0.887813
vt 0.301496 0.913827
vt 0.302040 0.911770
vt 0.299961 0.911416
vt 0.301272 0.910562
vt 0.664313 0.907812
vt 0.664855 0.909870
vt 0.665079 0.906605
vt 0.666392 0.907459
vt 0.299961 0.892122
vt 0.301272 0.892976
vt 0.665079 0.889019
vt 0.666392 0.888166
vt 0.524616 0.743199
vt 0.523974 0.715576
vt 0.541848 0.715576
vt 0.542492 0.743199
vt 0.915230 0.979011
vt 0.915230 0.949183
vt 0.932134 0.949183
vt 0.932134 0.979011
vt 0.443495 0.737720
vt 0.444140 0.710096
vt 0.462017 0.710096
vt 0.461371 0.737720
vt 0.157963 0.982886
vt 0.157963 0.953056
vt 0.174868 0.953056
vt 0.174868 0.982886
vt 0.176404 0.982886
vt 0.176404 0.953056
vt 0.913692 0.979011
vt 0.913692 0.949183
vt 0.933671 0.979011
vt 0.933671 0.949183
vt 0.156427 0.982886
vt 0.156427 0.953056
vt 0.475128 0.609080
vt 0.492998 0.609080
vt 0.156427 0.843971
vt 0.157963 0.843971
vt 0.174868 0.843971
vt 0.176404 0.843971
vt 0.492989 0.614561
vt 0.510864 0.614561
vt 0.913692 0.840107
vt 0.915230 0.840107
vt 0.932134 0.840107
vt 0.933671 0.840107
vt 0.016084 0.343656
vt 0.015249 0.341645
vt 0.034105 0.341645
vt 0.033271 0.343656
vt 0.014906 0.344835
vt 0.012893 0.344001
vt 0.036461 0.344001
vt 0.034451 0.344835
vt 0.014906 0.369093
vt 0.012893 0.369926
vt 0.689208 0.888381
vt 0.688374 0.890394
vt 0.686018 0.888038
vt 0.688030 0.887203
vt 0.706396 0.888381
vt 0.707230 0.890394
vt 0.707574 0.887203
vt 0.709586 0.888038
vt 0.686018 0.862113
vt 0.688030 0.862947
vt 0.036461 0.369926
vt 0.034451 0.369093
vt 0.034105 0.372282
vt 0.033271 0.370271
vt 0.707574 0.862947
vt 0.709586 0.862113
vt 0.706396 0.861769
vt 0.707230 0.859757
vt 0.015249 0.372282
vt 0.016084 0.370271
vt 0.689208 0.861769
vt 0.688374 0.859757
vt 0.032691 0.966034
vt 0.032691 0.851742
vt 0.050565 0.851742
vt 0.050565 0.966034
vt 0.648726 0.130806
vt 0.648726 0.012928
vt 0.674074 0.012928
vt 0.674074 0.130806
vt 0.012893 0.966049
vt 0.012893 0.851742
vt 0.030765 0.851742
vt 0.030765 0.966049
vt 0.074590 0.910260
vt 0.074590 0.792381
vt 0.099938 0.792381
vt 0.099938 0.910260
vt 0.102241 0.910260
vt 0.102241 0.792381
vt 0.646422 0.130806
vt 0.646422 0.012928
vt 0.676377 0.130806
vt 0.676377 0.012928
vt 0.072286 0.910260
vt 0.072286 0.792381
vt 0.908743 0.021279
vt 0.912451 0.021279
vt 0.912451 0.506512
vt 0.908743 0.506512
vt 0.532585 0.482413
vt 0.532607 0.474789
vt 0.597048 0.474789
vt 0.597118 0.482413
vt 0.912451 0.012928
vt 0.920182 0.012928
vt 0.920194 0.021279
vt 0.872857 0.506709
vt 0.869147 0.506709
vt 0.869147 0.021275
vt 0.872857 0.021275
vt 0.872934 0.515056
vt 0.880605 0.506709
vt 0.880605 0.515056
vt 0.923902 0.021279
vt 0.923902 0.506512
vt 0.920206 0.506541
vt 0.468253 0.020545
vt 0.468242 0.012928
vt 0.532837 0.012928
vt 0.532692 0.020545
vt 0.884315 0.506709
vt 0.880682 0.021101
vt 0.884315 0.021275
vt 0.920206 0.514865
vt 0.912437 0.514865
vt 0.469582 0.471183
vt 0.469571 0.463566
vt 0.524272 0.463566
vt 0.524202 0.471183
vt 0.880682 0.012928
vt 0.872857 0.012928
vt 0.533925 0.031766
vt 0.533936 0.024143
vt 0.588486 0.024143
vt 0.588627 0.031766
vt 0.710765 0.077442
vt 0.710840 0.013002
vt 0.717826 0.012927
vt 0.717813 0.077431
vt 0.592031 0.195138
vt 0.591978 0.140622
vt 0.599105 0.140692
vt 0.599123 0.195138
vt 0.225719 0.814159
vt 0.228608 0.814157
vt 0.231716 0.976669
vt 0.228825 0.976667
vt 0.721667 0.838559
vt 0.721740 0.833095
vt 0.757396 0.833093
vt 0.757383 0.838559
vt 0.228586 0.808177
vt 0.240739 0.808177
vt 0.240739 0.814157
vt 0.139521 0.981099
vt 0.136629 0.981099
vt 0.139734 0.818685
vt 0.142616 0.818685
vt 0.139463 0.987076
vt 0.151639 0.981099
vt 0.151668 0.987076
vt 0.243630 0.814159
vt 0.240524 0.976667
vt 0.237677 0.976761
vt 0.474267 0.684692
vt 0.474219 0.679231
vt 0.509877 0.679231
vt 0.509926 0.684692
vt 0.154530 0.981099
vt 0.148525 0.818704
vt 0.151426 0.818637
vt 0.237631 0.982649
vt 0.231719 0.982649
vt 0.473240 0.838574
vt 0.473192 0.833104
vt 0.511331 0.833148
vt 0.511318 0.838574
vt 0.148476 0.812699
vt 0.142645 0.812699
vt 0.720664 0.684687
vt 0.720713 0.679224
vt 0.758824 0.679224
vt 0.758775 0.684689
vt 0.334638 0.922143
vt 0.334607 0.886563
vt 0.345717 0.886598
vt 0.345695 0.922119
vt 0.398950 0.499990
vt 0.398985 0.462062
vt 0.404303 0.462027
vt 0.404320 0.499990
vt 0.923591 0.518642
vt 0.926478 0.518639
vt 0.929585 0.834140
vt 0.926696 0.834130
vt 0.596928 0.769819
vt 0.597000 0.764365
vt 0.639991 0.764363
vt 0.639978 0.769819
vt 0.926457 0.512662
vt 0.938604 0.512662
vt 0.938604 0.518639
vt 0.352336 0.897439
vt 0.349455 0.897439
vt 0.352558 0.582175
vt 0.355448 0.582175
vt 0.352278 0.903412
vt 0.364456 0.897439
vt 0.364475 0.903412
vt 0.941494 0.518642
vt 0.938389 0.834130
vt 0.935543 0.834227
vt 0.676167 0.476644
vt 0.676119 0.471192
vt 0.719110 0.471192
vt 0.719159 0.476644
vt 0.367345 0.897439
vt 0.361343 0.582195
vt 0.364243 0.582127
vt 0.935497 0.840107
vt 0.929588 0.840107
vt 0.682541 0.769837
vt 0.682492 0.764385
vt 0.720561 0.764421
vt 0.720548 0.769837
vt 0.361295 0.576192
vt 0.355467 0.576192
vt 0.603325 0.476634
vt 0.603374 0.471183
vt 0.641416 0.471183
vt 0.641367 0.476634
vt 0.210902 0.920232
vt 0.210871 0.877269
vt 0.221980 0.877304
vt 0.221958 0.920208
vt 0.913692 0.552828
vt 0.913728 0.514900
vt 0.919045 0.514865
vt 0.919063 0.552828
s 1
usemtl M_Props02
f 1/1/1 2/2/1 4/3/1 3/4/1
f 2/2/2 1/1/2 5/5/2 6/6/2
f 3/4/3 4/3/3 14/7/3 13/8/3
f 6/6/4 5/5/4 29/9/4 30/10/4
f 7/11/5 8/12/5 12/13/5 11/14/5
f 8/12/6 7/11/6 9/15/6 10/16/6
f 10/16/7 9/15/7 17/17/7 18/18/7
f 11/14/8 12/13/8 32/19/8 31/20/8
f 13/8/9 14/7/9 16/21/9 15/22/9
f 15/22/10 16/21/10 22/23/10 21/24/10
f 18/18/11 17/17/11 19/25/11 20/26/11
f 20/26/12 19/25/12 25/27/12 26/28/12
f 21/24/13 22/23/13 24/29/13 23/30/13
f 23/30/14 24/29/14 30/10/14 29/9/14
f 26/28/15 25/27/15 27/31/15 28/32/15
f 28/32/16 27/31/16 31/20/16 32/19/16
f 2/33/17 37/34/17 38/35/17 4/36/17
f 14/37/18 39/38/19 40/39/19 16/40/18
f 22/41/20 33/42/20 34/43/20 24/44/20
f 30/45/21 35/46/22 36/47/22 6/48/21
f 7/11/23 11/14/23 31/20/23 27/31/23 25/27/23 19/25/23 17/17/23 9/15/23
f 23/30/24 29/9/24 5/5/24 1/1/24 3/4/24 13/8/24 15/22/24 21/24/24
f 2/49/25 6/48/25 36/47/26 37/50/27
f 14/37/28 4/51/28 38/52/29 39/38/30
f 22/53/31 16/40/31 40/39/32 33/54/33
f 30/45/34 24/55/34 34/56/35 35/46/36
f 33/42/20 26/57/20 28/58/20 34/43/20
f 35/46/36 34/56/35 28/59/37 32/60/37
f 36/47/22 35/46/22 32/60/38 12/61/38
f 37/50/27 36/47/26 12/61/39 8/62/39
f 38/35/17 37/34/17 8/63/17 10/64/17
f 39/38/30 38/52/29 10/65/40 18/66/40
f 40/39/19 39/38/19 18/66/41 20/67/41
f 33/54/33 40/39/32 20/67/42 26/68/42
f 41/69/43 42/70/43 44/71/43 43/72/43
f 42/70/44 41/69/44 45/73/44 46/74/44
f 43/72/45 44/71/45 54/75/45 53/76/45
f 46/74/46 45/73/46 69/77/46 70/78/46
f 47/79/47 48/80/47 52/81/47 51/82/47
f 48/80/48 47/79/48 49/83/48 50/84/48
f 50/84/49 49/83/49 57/85/49 58/86/49
f 51/82/50 52/81/50 72/87/50 71/88/50
f 53/76/51 54/75/51 56/89/51 55/90/51
f 55/90/52 56/89/52 62/91/52 61/92/52
f 58/86/53 57/85/53 59/93/53 60/94/53
f 60/94/54 59/93/54 65/95/54 66/96/54
f 61/92/55 62/91/55 64/97/55 63/98/55
f 63/98/56 64/97/56 70/78/56 69/77/56
f 66/96/57 65/95/57 67/99/57 68/100/57
f 68/100/58 67/99/58 71/88/58 72/87/58
f 42/101/17 48/102/17 50/103/17 44/104/17
f 54/105/59 58/106/59 60/107/59 56/108/59
f 62/109/20 66/110/20 68/111/20 64/112/20
f 70/113/60 72/114/60 52/115/60 46/116/60
f 47/79/23 51/82/23 71/88/23 67/99/23 65/95/23 59/93/23 57/85/23 49/83/23
f 63/98/24 69/77/24 45/73/24 41/69/24 43/72/24 53/76/24 55/90/24 61/92/24
f 42/117/61 46/116/61 52/115/61 48/118/61
f 54/105/62 44/119/62 50/120/62 58/106/62
f 62/121/63 56/108/63 60/107/63 66/122/63
f 70/113/64 64/123/64 68/124/64 72/114/64
f 73/125/65 75/126/65 91/127/65 93/128/65
f 74/129/66 73/130/66 78/131/66 77/132/66
f 75/126/67 74/133/67 80/134/67 79/135/67
f 76/136/68 78/137/68 94/138/68 96/139/68
f 77/140/69 76/136/69 84/141/69 83/142/69
f 79/135/70 81/143/70 86/144/70 85/145/70
f 81/146/71 80/147/71 83/148/71 82/149/71
f 82/150/72 84/141/72 90/151/72 89/152/72
f 85/145/73 87/153/73 92/154/73 91/127/73
f 87/155/74 86/156/74 89/157/74 88/158/74
f 88/159/75 90/151/75 96/139/75 95/160/75
f 93/161/76 92/162/76 95/163/76 94/164/76
f 74/165/17 77/166/17 83/167/17 80/168/17
f 81/146/59 82/149/59 89/157/59 86/156/59
f 87/169/20 88/170/20 95/171/20 92/172/20
f 93/161/60 94/164/60 78/131/60 73/130/60
f 76/136/77 96/139/77 90/151/77 84/141/77
f 91/127/78 75/126/78 79/135/78 85/145/78
f 73/125/79 74/133/79 75/126/79
f 76/136/80 77/140/80 78/137/80
f 79/135/81 80/134/81 81/143/81
f 82/150/82 83/142/82 84/141/82
f 85/145/83 86/144/83 87/153/83
f 88/159/84 89/152/84 90/151/84
f 91/127/85 92/154/85 93/128/85
f 94/138/86 95/160/86 96/139/86
f 97/1/1 98/2/1 100/3/1 99/4/1
f 98/2/87 97/1/87 101/5/87 102/6/87
f 99/4/88 100/3/88 110/7/88 109/8/88
f 102/6/4 101/5/4 125/9/4 126/10/4
f 103/11/5 104/12/5 108/13/5 107/14/5
f 104/12/6 103/11/6 105/15/6 106/16/6
f 106/16/89 105/15/89 113/17/89 114/18/89
f 107/14/8 108/13/8 128/19/8 127/20/8
f 109/8/9 110/7/9 112/21/9 111/22/9
f 111/22/90 112/21/90 118/23/90 117/24/90
f 114/18/11 113/17/11 115/25/11 116/26/11
f 116/26/91 115/25/91 121/27/91 122/28/91
f 117/24/92 118/23/92 120/29/92 119/30/92
f 119/30/93 120/29/93 126/10/93 125/9/93
f 122/28/94 121/27/94 123/31/94 124/32/94
f 124/32/16 123/31/16 127/20/16 128/19/16
f 98/33/17 133/34/17 134/35/17 100/36/17
f 110/37/18 135/38/19 136/39/19 112/40/18
f 118/41/20 129/42/20 130/43/20 120/44/20
f 126/45/21 131/46/22 132/47/22 102/48/21
f 103/11/23 107/14/23 127/20/23 123/31/23 121/27/23 115/25/23 113/17/23 105/15/23
f 119/30/24 125/9/24 101/5/24 97/1/24 99/4/24 109/8/24 111/22/24 117/24/24
f 98/49/25 102/48/25 132/47/26 133/50/27
f 110/37/28 100/51/28 134/52/29 135/38/30
f 118/53/31 112/40/31 136/39/32 129/54/33
f 126/45/34 120/55/34 130/56/35 131/46/36
f 129/42/20 122/57/20 124/58/20 130/43/20
f 131/46/36 130/56/35 124/59/37 128/60/37
f 132/47/22 131/46/22 128/60/38 108/61/38
f 133/50/27 132/47/26 108/61/39 104/62/39
f 134/35/17 133/34/17 104/63/17 106/64/17
f 135/38/30 134/52/29 106/65/40 114/66/40
f 136/39/19 135/38/19 114/66/41 116/67/41
f 129/54/33 136/39/32 116/67/42 122/68/42
f 137/173/95 139/174/95 155/175/95 157/176/95
f 138/177/96 137/178/96 142/179/96 141/180/96
f 139/174/97 138/181/97 144/182/97 143/183/97
f 140/184/98 142/185/98 158/186/98 160/187/98
f 141/188/99 140/184/99 148/189/99 147/190/99
f 143/183/100 145/191/100 150/192/100 149/193/100
f 145/194/101 144/195/101 147/196/101 146/197/101
f 146/198/102 148/189/102 154/199/102 153/200/102
f 149/193/103 151/201/103 156/202/103 155/175/103
f 151/203/104 150/204/104 153/205/104 152/206/104
f 152/207/105 154/199/105 160/187/105 159/208/105
f 157/209/106 156/210/106 159/211/106 158/212/106
f 138/213/17 141/214/17 147/215/17 144/216/17
f 145/194/107 146/197/107 153/205/107 150/204/107
f 151/217/20 152/218/20 159/219/20 156/220/20
f 157/209/108 158/212/108 142/179/108 137/178/108
f 140/184/109 160/187/109 154/199/109 148/189/109
f 155/175/110 139/174/110 143/183/110 149/193/110
f 137/173/111 138/181/111 139/174/111
f 140/184/112 141/188/112 142/185/112
f 143/183/113 144/182/113 145/191/113
f 146/198/114 147/190/114 148/189/114
f 149/193/115 150/192/115 151/201/115
f 152/207/116 153/200/116 154/199/116
f 155/175/117 156/202/117 157/176/117
f 158/186/118 159/208/118 160/187/118
f 161/69/119 162/70/119 164/71/119 163/72/119
f 162/70/120 161/69/120 165/73/120 166/74/120
f 163/72/121 164/71/121 174/75/121 173/76/121
f 166/74/4 165/73/4 189/77/4 190/78/4
f 167/79/122 168/80/122 172/81/122 171/82/122
f 168/80/123 167/79/123 169/83/123 170/84/123
f 170/84/124 169/83/124 177/85/124 178/86/124
f 171/82/8 172/81/8 192/87/8 191/88/8
f 173/76/9 174/75/9 176/89/9 175/90/9
f 175/90/125 176/89/125 182/91/125 181/92/125
f 178/86/11 177/85/11 179/93/11 180/94/11
f 180/94/126 179/93/126 185/95/126 186/96/126
f 181/92/127 182/91/127 184/97/127 183/98/127
f 183/98/128 184/97/128 190/78/128 189/77/128
f 186/96/129 185/95/129 187/99/129 188/100/129
f 188/100/130 187/99/130 191/88/130 192/87/130
f 162/101/17 168/102/17 170/103/17 164/104/17
f 174/105/59 178/106/59 180/107/59 176/108/59
f 182/109/20 186/110/20 188/111/20 184/112/20
f 190/113/60 192/114/60 172/115/60 166/116/60
f 167/79/23 171/82/23 191/88/23 187/99/23 185/95/23 179/93/23 177/85/23 169/83/23
f 183/98/24 189/77/24 165/73/24 161/69/24 163/72/24 173/76/24 175/90/24 181/92/24
f 162/117/61 166/116/61 172/115/61 168/118/61
f 174/105/62 164/119/62 170/120/62 178/106/62
f 182/121/63 176/108/63 180/107/63 186/122/63
f 190/113/64 184/123/64 188/124/64 192/114/64
f 193/221/131 195/222/131 211/223/131 213/224/131
f 194/225/132 193/226/132 198/227/132 197/228/132
f 195/222/97 194/229/97 200/230/97 199/231/97
f 196/232/133 198/233/133 214/234/133 216/235/133
f 197/236/99 196/232/99 204/237/99 203/238/99
f 199/231/134 201/239/134 206/240/134 205/241/134
f 201/242/135 200/243/135 203/244/135 202/245/135
f 202/246/136 204/237/136 210/247/136 209/248/136
f 205/241/103 207/249/103 212/250/103 211/223/103
f 207/251/104 206/252/104 209/253/104 208/254/104
f 208/255/105 210/247/105 216/235/105 215/256/105
f 213/257/106 212/258/106 215/259/106 214/260/106
f 194/261/17 197/262/17 203/263/17 200/264/17
f 201/242/137 202/245/137 209/253/137 206/252/137
f 207/265/20 208/266/20 215/267/20 212/268/20
f 213/257/138 214/260/138 198/227/138 193/226/138
f 196/232/139 216/235/139 210/247/139 204/237/139
f 211/223/140 195/222/140 199/231/140 205/241/140
f 193/221/141 194/229/141 195/222/141
f 196/232/112 197/236/112 198/233/112
f 199/231/113 200/230/113 201/239/113
f 202/246/142 203/238/142 204/237/142
f 205/241/115 206/240/115 207/249/115
f 208/255/116 209/248/116 210/247/116
f 211/223/117 212/250/117 213/224/117
f 214/234/118 215/256/118 216/235/118
